G04 #@! TF.GenerationSoftware,KiCad,Pcbnew,(5.1.2-1)-1*
G04 #@! TF.CreationDate,2019-07-22T14:19:50+02:00*
G04 #@! TF.ProjectId,Level Shifter,4c657665-6c20-4536-9869-667465722e6b,2.0*
G04 #@! TF.SameCoordinates,Original*
G04 #@! TF.FileFunction,Copper,L2,Bot*
G04 #@! TF.FilePolarity,Positive*
%FSLAX46Y46*%
G04 Gerber Fmt 4.6, Leading zero omitted, Abs format (unit mm)*
G04 Created by KiCad (PCBNEW (5.1.2-1)-1) date 2019-07-22 14:19:50*
%MOMM*%
%LPD*%
G04 APERTURE LIST*
%ADD10C,5.000000*%
%ADD11O,2.032000X2.032000*%
%ADD12R,2.032000X2.032000*%
%ADD13O,2.032000X1.727200*%
%ADD14R,2.032000X1.727200*%
%ADD15C,0.800000*%
%ADD16C,0.350000*%
%ADD17C,0.254000*%
G04 APERTURE END LIST*
D10*
X138684000Y-73533000D03*
X138684000Y-46482000D03*
X171196000Y-46482000D03*
X170942000Y-73660000D03*
D11*
X138938000Y-68072000D03*
D12*
X138938000Y-65532000D03*
D13*
X138938000Y-60452000D03*
X138938000Y-57912000D03*
D14*
X138938000Y-55372000D03*
D13*
X173736000Y-55372000D03*
X173736000Y-57912000D03*
X173736000Y-60452000D03*
X173736000Y-62992000D03*
X173736000Y-65532000D03*
D14*
X173736000Y-68072000D03*
D13*
X135382000Y-68072000D03*
X135382000Y-65532000D03*
X135382000Y-62992000D03*
X135382000Y-60452000D03*
X135382000Y-57912000D03*
D14*
X135382000Y-55372000D03*
D13*
X170180000Y-55372000D03*
X170180000Y-57912000D03*
X170180000Y-60452000D03*
X170180000Y-62992000D03*
X170180000Y-65532000D03*
D14*
X170180000Y-68072000D03*
D15*
X159512000Y-44196000D03*
X148844000Y-50038000D03*
X159766000Y-52324000D03*
X164338000Y-74422000D03*
X156972000Y-74422000D03*
X148717000Y-62992000D03*
X157734000Y-57912000D03*
X158999684Y-60212674D03*
X159004000Y-64516000D03*
X158242000Y-59182000D03*
X164592000Y-64008000D03*
X157226000Y-56642000D03*
X159829497Y-62039497D03*
D16*
X170180000Y-62992000D02*
X173482000Y-62992000D01*
X170180000Y-62992000D02*
X173736000Y-62992000D01*
X157734000Y-57912000D02*
X170434000Y-57912000D01*
X158999684Y-64003684D02*
X158999684Y-60212674D01*
X159004000Y-64516000D02*
X158999684Y-64003684D01*
X170180000Y-57912000D02*
X173736000Y-57912000D01*
X158242000Y-59182000D02*
X162560000Y-60452000D01*
X162560000Y-60452000D02*
X170434000Y-60452000D01*
X168148000Y-60452000D02*
X170434000Y-60452000D01*
X164592000Y-64008000D02*
X168148000Y-60452000D01*
X170180000Y-60452000D02*
X173736000Y-60452000D01*
X168656000Y-55372000D02*
X170434000Y-55372000D01*
X162814000Y-56642000D02*
X168656000Y-55372000D01*
X157226000Y-56642000D02*
X162814000Y-56642000D01*
X170180000Y-55372000D02*
X173736000Y-55372000D01*
X165100000Y-65532000D02*
X170434000Y-65532000D01*
X159829497Y-62039497D02*
X165100000Y-65532000D01*
X173736000Y-65532000D02*
X170180000Y-65532000D01*
X135636000Y-65532000D02*
X138938000Y-65532000D01*
X135636000Y-60452000D02*
X138938000Y-60452000D01*
X135636000Y-57912000D02*
X138938000Y-57912000D01*
X135636000Y-55372000D02*
X138938000Y-55372000D01*
D17*
G36*
X176099001Y-78055000D02*
G01*
X133400000Y-78055000D01*
X133400000Y-73224229D01*
X135549000Y-73224229D01*
X135549000Y-73841771D01*
X135669476Y-74447446D01*
X135905799Y-75017979D01*
X136248886Y-75531446D01*
X136685554Y-75968114D01*
X137199021Y-76311201D01*
X137769554Y-76547524D01*
X138375229Y-76668000D01*
X138992771Y-76668000D01*
X139598446Y-76547524D01*
X140168979Y-76311201D01*
X140682446Y-75968114D01*
X141119114Y-75531446D01*
X141462201Y-75017979D01*
X141698524Y-74447446D01*
X141819000Y-73841771D01*
X141819000Y-73351229D01*
X167807000Y-73351229D01*
X167807000Y-73968771D01*
X167927476Y-74574446D01*
X168163799Y-75144979D01*
X168506886Y-75658446D01*
X168943554Y-76095114D01*
X169457021Y-76438201D01*
X170027554Y-76674524D01*
X170633229Y-76795000D01*
X171250771Y-76795000D01*
X171856446Y-76674524D01*
X172426979Y-76438201D01*
X172940446Y-76095114D01*
X173377114Y-75658446D01*
X173720201Y-75144979D01*
X173956524Y-74574446D01*
X174077000Y-73968771D01*
X174077000Y-73351229D01*
X173956524Y-72745554D01*
X173720201Y-72175021D01*
X173377114Y-71661554D01*
X172940446Y-71224886D01*
X172426979Y-70881799D01*
X171856446Y-70645476D01*
X171250771Y-70525000D01*
X170633229Y-70525000D01*
X170027554Y-70645476D01*
X169457021Y-70881799D01*
X168943554Y-71224886D01*
X168506886Y-71661554D01*
X168163799Y-72175021D01*
X167927476Y-72745554D01*
X167807000Y-73351229D01*
X141819000Y-73351229D01*
X141819000Y-73224229D01*
X141698524Y-72618554D01*
X141462201Y-72048021D01*
X141119114Y-71534554D01*
X140682446Y-71097886D01*
X140168979Y-70754799D01*
X139598446Y-70518476D01*
X138992771Y-70398000D01*
X138375229Y-70398000D01*
X137769554Y-70518476D01*
X137199021Y-70754799D01*
X136685554Y-71097886D01*
X136248886Y-71534554D01*
X135905799Y-72048021D01*
X135669476Y-72618554D01*
X135549000Y-73224229D01*
X133400000Y-73224229D01*
X133400000Y-68431026D01*
X133774642Y-68431026D01*
X133777291Y-68446789D01*
X133878314Y-68722919D01*
X134031267Y-68974035D01*
X134230271Y-69190486D01*
X134467679Y-69363954D01*
X134734367Y-69487773D01*
X135020086Y-69557185D01*
X135255000Y-69412925D01*
X135255000Y-68199000D01*
X135509000Y-68199000D01*
X135509000Y-69412925D01*
X135743914Y-69557185D01*
X136029633Y-69487773D01*
X136296321Y-69363954D01*
X136533729Y-69190486D01*
X136732733Y-68974035D01*
X136885686Y-68722919D01*
X136983725Y-68454944D01*
X137332025Y-68454944D01*
X137389924Y-68645826D01*
X137531618Y-68936815D01*
X137727358Y-69194569D01*
X137969623Y-69409184D01*
X138249102Y-69572411D01*
X138555055Y-69677978D01*
X138811000Y-69559362D01*
X138811000Y-68199000D01*
X139065000Y-68199000D01*
X139065000Y-69559362D01*
X139320945Y-69677978D01*
X139626898Y-69572411D01*
X139906377Y-69409184D01*
X140148642Y-69194569D01*
X140344382Y-68936815D01*
X140344973Y-68935600D01*
X168525928Y-68935600D01*
X168538188Y-69060082D01*
X168574498Y-69179780D01*
X168633463Y-69290094D01*
X168712815Y-69386785D01*
X168809506Y-69466137D01*
X168919820Y-69525102D01*
X169039518Y-69561412D01*
X169164000Y-69573672D01*
X169894250Y-69570600D01*
X170053000Y-69411850D01*
X170053000Y-68199000D01*
X170307000Y-68199000D01*
X170307000Y-69411850D01*
X170465750Y-69570600D01*
X171196000Y-69573672D01*
X171320482Y-69561412D01*
X171440180Y-69525102D01*
X171550494Y-69466137D01*
X171647185Y-69386785D01*
X171726537Y-69290094D01*
X171785502Y-69179780D01*
X171821812Y-69060082D01*
X171834072Y-68935600D01*
X172081928Y-68935600D01*
X172094188Y-69060082D01*
X172130498Y-69179780D01*
X172189463Y-69290094D01*
X172268815Y-69386785D01*
X172365506Y-69466137D01*
X172475820Y-69525102D01*
X172595518Y-69561412D01*
X172720000Y-69573672D01*
X173450250Y-69570600D01*
X173609000Y-69411850D01*
X173609000Y-68199000D01*
X173863000Y-68199000D01*
X173863000Y-69411850D01*
X174021750Y-69570600D01*
X174752000Y-69573672D01*
X174876482Y-69561412D01*
X174996180Y-69525102D01*
X175106494Y-69466137D01*
X175203185Y-69386785D01*
X175282537Y-69290094D01*
X175341502Y-69179780D01*
X175377812Y-69060082D01*
X175390072Y-68935600D01*
X175387000Y-68357750D01*
X175228250Y-68199000D01*
X173863000Y-68199000D01*
X173609000Y-68199000D01*
X172243750Y-68199000D01*
X172085000Y-68357750D01*
X172081928Y-68935600D01*
X171834072Y-68935600D01*
X171831000Y-68357750D01*
X171672250Y-68199000D01*
X170307000Y-68199000D01*
X170053000Y-68199000D01*
X168687750Y-68199000D01*
X168529000Y-68357750D01*
X168525928Y-68935600D01*
X140344973Y-68935600D01*
X140486076Y-68645826D01*
X140543975Y-68454944D01*
X140424836Y-68199000D01*
X139065000Y-68199000D01*
X138811000Y-68199000D01*
X137451164Y-68199000D01*
X137332025Y-68454944D01*
X136983725Y-68454944D01*
X136986709Y-68446789D01*
X136989358Y-68431026D01*
X136868217Y-68199000D01*
X135509000Y-68199000D01*
X135255000Y-68199000D01*
X133895783Y-68199000D01*
X133774642Y-68431026D01*
X133400000Y-68431026D01*
X133400000Y-57912000D01*
X133723749Y-57912000D01*
X133752684Y-58205777D01*
X133838375Y-58488264D01*
X133977531Y-58748606D01*
X134164803Y-58976797D01*
X134392994Y-59164069D01*
X134426540Y-59182000D01*
X134392994Y-59199931D01*
X134164803Y-59387203D01*
X133977531Y-59615394D01*
X133838375Y-59875736D01*
X133752684Y-60158223D01*
X133723749Y-60452000D01*
X133752684Y-60745777D01*
X133838375Y-61028264D01*
X133977531Y-61288606D01*
X134164803Y-61516797D01*
X134392994Y-61704069D01*
X134426540Y-61722000D01*
X134392994Y-61739931D01*
X134164803Y-61927203D01*
X133977531Y-62155394D01*
X133838375Y-62415736D01*
X133752684Y-62698223D01*
X133723749Y-62992000D01*
X133752684Y-63285777D01*
X133838375Y-63568264D01*
X133977531Y-63828606D01*
X134164803Y-64056797D01*
X134392994Y-64244069D01*
X134426540Y-64262000D01*
X134392994Y-64279931D01*
X134164803Y-64467203D01*
X133977531Y-64695394D01*
X133838375Y-64955736D01*
X133752684Y-65238223D01*
X133723749Y-65532000D01*
X133752684Y-65825777D01*
X133838375Y-66108264D01*
X133977531Y-66368606D01*
X134164803Y-66596797D01*
X134392994Y-66784069D01*
X134432947Y-66805424D01*
X134230271Y-66953514D01*
X134031267Y-67169965D01*
X133878314Y-67421081D01*
X133777291Y-67697211D01*
X133774642Y-67712974D01*
X133895783Y-67945000D01*
X135255000Y-67945000D01*
X135255000Y-67925000D01*
X135509000Y-67925000D01*
X135509000Y-67945000D01*
X136868217Y-67945000D01*
X136989358Y-67712974D01*
X136986709Y-67697211D01*
X136885686Y-67421081D01*
X136732733Y-67169965D01*
X136533729Y-66953514D01*
X136331053Y-66805424D01*
X136371006Y-66784069D01*
X136599197Y-66596797D01*
X136786469Y-66368606D01*
X136800690Y-66342000D01*
X137283928Y-66342000D01*
X137283928Y-66548000D01*
X137296188Y-66672482D01*
X137332498Y-66792180D01*
X137391463Y-66902494D01*
X137470815Y-66999185D01*
X137567506Y-67078537D01*
X137611469Y-67102036D01*
X137531618Y-67207185D01*
X137389924Y-67498174D01*
X137332025Y-67689056D01*
X137451164Y-67945000D01*
X138811000Y-67945000D01*
X138811000Y-67925000D01*
X139065000Y-67925000D01*
X139065000Y-67945000D01*
X140424836Y-67945000D01*
X140543975Y-67689056D01*
X140486076Y-67498174D01*
X140344382Y-67207185D01*
X140264531Y-67102036D01*
X140308494Y-67078537D01*
X140405185Y-66999185D01*
X140484537Y-66902494D01*
X140543502Y-66792180D01*
X140579812Y-66672482D01*
X140592072Y-66548000D01*
X140592072Y-64516000D01*
X140579812Y-64391518D01*
X140543502Y-64271820D01*
X140484537Y-64161506D01*
X140405185Y-64064815D01*
X140308494Y-63985463D01*
X140198180Y-63926498D01*
X140078482Y-63890188D01*
X139954000Y-63877928D01*
X137922000Y-63877928D01*
X137797518Y-63890188D01*
X137677820Y-63926498D01*
X137567506Y-63985463D01*
X137470815Y-64064815D01*
X137391463Y-64161506D01*
X137332498Y-64271820D01*
X137296188Y-64391518D01*
X137283928Y-64516000D01*
X137283928Y-64722000D01*
X136800690Y-64722000D01*
X136786469Y-64695394D01*
X136599197Y-64467203D01*
X136371006Y-64279931D01*
X136337460Y-64262000D01*
X136371006Y-64244069D01*
X136599197Y-64056797D01*
X136786469Y-63828606D01*
X136925625Y-63568264D01*
X137011316Y-63285777D01*
X137040251Y-62992000D01*
X137011316Y-62698223D01*
X136925625Y-62415736D01*
X136786469Y-62155394D01*
X136599197Y-61927203D01*
X136371006Y-61739931D01*
X136337460Y-61722000D01*
X136371006Y-61704069D01*
X136599197Y-61516797D01*
X136786469Y-61288606D01*
X136800690Y-61262000D01*
X137519310Y-61262000D01*
X137533531Y-61288606D01*
X137720803Y-61516797D01*
X137948994Y-61704069D01*
X138209336Y-61843225D01*
X138491823Y-61928916D01*
X138711981Y-61950600D01*
X139164019Y-61950600D01*
X139384177Y-61928916D01*
X139666664Y-61843225D01*
X139927006Y-61704069D01*
X140155197Y-61516797D01*
X140342469Y-61288606D01*
X140481625Y-61028264D01*
X140567316Y-60745777D01*
X140596251Y-60452000D01*
X140567316Y-60158223D01*
X140481625Y-59875736D01*
X140342469Y-59615394D01*
X140155197Y-59387203D01*
X139927006Y-59199931D01*
X139893460Y-59182000D01*
X139927006Y-59164069D01*
X140155197Y-58976797D01*
X140342469Y-58748606D01*
X140481625Y-58488264D01*
X140567316Y-58205777D01*
X140596251Y-57912000D01*
X140567316Y-57618223D01*
X140481625Y-57335736D01*
X140342469Y-57075394D01*
X140155197Y-56847203D01*
X140147135Y-56840586D01*
X140198180Y-56825102D01*
X140308494Y-56766137D01*
X140405185Y-56686785D01*
X140484537Y-56590094D01*
X140511280Y-56540061D01*
X156191000Y-56540061D01*
X156191000Y-56743939D01*
X156230774Y-56943898D01*
X156308795Y-57132256D01*
X156422063Y-57301774D01*
X156566226Y-57445937D01*
X156735744Y-57559205D01*
X156756325Y-57567730D01*
X156738774Y-57610102D01*
X156699000Y-57810061D01*
X156699000Y-58013939D01*
X156738774Y-58213898D01*
X156816795Y-58402256D01*
X156930063Y-58571774D01*
X157074226Y-58715937D01*
X157243744Y-58829205D01*
X157264325Y-58837730D01*
X157246774Y-58880102D01*
X157207000Y-59080061D01*
X157207000Y-59283939D01*
X157246774Y-59483898D01*
X157324795Y-59672256D01*
X157438063Y-59841774D01*
X157582226Y-59985937D01*
X157751744Y-60099205D01*
X157940102Y-60177226D01*
X157964684Y-60182116D01*
X157964684Y-60314613D01*
X158004458Y-60514572D01*
X158082479Y-60702930D01*
X158189685Y-60863375D01*
X158189684Y-63871759D01*
X158086795Y-64025744D01*
X158008774Y-64214102D01*
X157969000Y-64414061D01*
X157969000Y-64617939D01*
X158008774Y-64817898D01*
X158086795Y-65006256D01*
X158200063Y-65175774D01*
X158344226Y-65319937D01*
X158513744Y-65433205D01*
X158702102Y-65511226D01*
X158902061Y-65551000D01*
X159105939Y-65551000D01*
X159305898Y-65511226D01*
X159494256Y-65433205D01*
X159663774Y-65319937D01*
X159807937Y-65175774D01*
X159921205Y-65006256D01*
X159999226Y-64817898D01*
X160039000Y-64617939D01*
X160039000Y-64414061D01*
X159999226Y-64214102D01*
X159921205Y-64025744D01*
X159809684Y-63858841D01*
X159809684Y-63074497D01*
X159925027Y-63074497D01*
X164618104Y-66184369D01*
X164647811Y-66208749D01*
X164684445Y-66228330D01*
X164685741Y-66229189D01*
X164719583Y-66247112D01*
X164788527Y-66283963D01*
X164790022Y-66284417D01*
X164791409Y-66285151D01*
X164866265Y-66307545D01*
X164941212Y-66330280D01*
X164942777Y-66330434D01*
X164944271Y-66330881D01*
X165021833Y-66338220D01*
X165060209Y-66342000D01*
X165061776Y-66342000D01*
X165103118Y-66345912D01*
X165141337Y-66342000D01*
X168761310Y-66342000D01*
X168775531Y-66368606D01*
X168962803Y-66596797D01*
X168970865Y-66603414D01*
X168919820Y-66618898D01*
X168809506Y-66677863D01*
X168712815Y-66757215D01*
X168633463Y-66853906D01*
X168574498Y-66964220D01*
X168538188Y-67083918D01*
X168525928Y-67208400D01*
X168529000Y-67786250D01*
X168687750Y-67945000D01*
X170053000Y-67945000D01*
X170053000Y-67925000D01*
X170307000Y-67925000D01*
X170307000Y-67945000D01*
X171672250Y-67945000D01*
X171831000Y-67786250D01*
X171834072Y-67208400D01*
X171821812Y-67083918D01*
X171785502Y-66964220D01*
X171726537Y-66853906D01*
X171647185Y-66757215D01*
X171550494Y-66677863D01*
X171440180Y-66618898D01*
X171389135Y-66603414D01*
X171397197Y-66596797D01*
X171584469Y-66368606D01*
X171598690Y-66342000D01*
X172317310Y-66342000D01*
X172331531Y-66368606D01*
X172518803Y-66596797D01*
X172526865Y-66603414D01*
X172475820Y-66618898D01*
X172365506Y-66677863D01*
X172268815Y-66757215D01*
X172189463Y-66853906D01*
X172130498Y-66964220D01*
X172094188Y-67083918D01*
X172081928Y-67208400D01*
X172085000Y-67786250D01*
X172243750Y-67945000D01*
X173609000Y-67945000D01*
X173609000Y-67925000D01*
X173863000Y-67925000D01*
X173863000Y-67945000D01*
X175228250Y-67945000D01*
X175387000Y-67786250D01*
X175390072Y-67208400D01*
X175377812Y-67083918D01*
X175341502Y-66964220D01*
X175282537Y-66853906D01*
X175203185Y-66757215D01*
X175106494Y-66677863D01*
X174996180Y-66618898D01*
X174945135Y-66603414D01*
X174953197Y-66596797D01*
X175140469Y-66368606D01*
X175279625Y-66108264D01*
X175365316Y-65825777D01*
X175394251Y-65532000D01*
X175365316Y-65238223D01*
X175279625Y-64955736D01*
X175140469Y-64695394D01*
X174953197Y-64467203D01*
X174725006Y-64279931D01*
X174691460Y-64262000D01*
X174725006Y-64244069D01*
X174953197Y-64056797D01*
X175140469Y-63828606D01*
X175279625Y-63568264D01*
X175365316Y-63285777D01*
X175394251Y-62992000D01*
X175365316Y-62698223D01*
X175279625Y-62415736D01*
X175140469Y-62155394D01*
X174953197Y-61927203D01*
X174725006Y-61739931D01*
X174691460Y-61722000D01*
X174725006Y-61704069D01*
X174953197Y-61516797D01*
X175140469Y-61288606D01*
X175279625Y-61028264D01*
X175365316Y-60745777D01*
X175394251Y-60452000D01*
X175365316Y-60158223D01*
X175279625Y-59875736D01*
X175140469Y-59615394D01*
X174953197Y-59387203D01*
X174725006Y-59199931D01*
X174691460Y-59182000D01*
X174725006Y-59164069D01*
X174953197Y-58976797D01*
X175140469Y-58748606D01*
X175279625Y-58488264D01*
X175365316Y-58205777D01*
X175394251Y-57912000D01*
X175365316Y-57618223D01*
X175279625Y-57335736D01*
X175140469Y-57075394D01*
X174953197Y-56847203D01*
X174725006Y-56659931D01*
X174691460Y-56642000D01*
X174725006Y-56624069D01*
X174953197Y-56436797D01*
X175140469Y-56208606D01*
X175279625Y-55948264D01*
X175365316Y-55665777D01*
X175394251Y-55372000D01*
X175365316Y-55078223D01*
X175279625Y-54795736D01*
X175140469Y-54535394D01*
X174953197Y-54307203D01*
X174725006Y-54119931D01*
X174464664Y-53980775D01*
X174182177Y-53895084D01*
X173962019Y-53873400D01*
X173509981Y-53873400D01*
X173289823Y-53895084D01*
X173007336Y-53980775D01*
X172746994Y-54119931D01*
X172518803Y-54307203D01*
X172331531Y-54535394D01*
X172317310Y-54562000D01*
X171598690Y-54562000D01*
X171584469Y-54535394D01*
X171397197Y-54307203D01*
X171169006Y-54119931D01*
X170908664Y-53980775D01*
X170626177Y-53895084D01*
X170406019Y-53873400D01*
X169953981Y-53873400D01*
X169733823Y-53895084D01*
X169451336Y-53980775D01*
X169190994Y-54119931D01*
X168962803Y-54307203D01*
X168775531Y-54535394D01*
X168761310Y-54562000D01*
X168688596Y-54562000D01*
X168641585Y-54558209D01*
X168569498Y-54566601D01*
X168497212Y-54573720D01*
X168452067Y-54587415D01*
X162726974Y-55832000D01*
X157876700Y-55832000D01*
X157716256Y-55724795D01*
X157527898Y-55646774D01*
X157327939Y-55607000D01*
X157124061Y-55607000D01*
X156924102Y-55646774D01*
X156735744Y-55724795D01*
X156566226Y-55838063D01*
X156422063Y-55982226D01*
X156308795Y-56151744D01*
X156230774Y-56340102D01*
X156191000Y-56540061D01*
X140511280Y-56540061D01*
X140543502Y-56479780D01*
X140579812Y-56360082D01*
X140592072Y-56235600D01*
X140592072Y-54508400D01*
X140579812Y-54383918D01*
X140543502Y-54264220D01*
X140484537Y-54153906D01*
X140405185Y-54057215D01*
X140308494Y-53977863D01*
X140198180Y-53918898D01*
X140078482Y-53882588D01*
X139954000Y-53870328D01*
X137922000Y-53870328D01*
X137797518Y-53882588D01*
X137677820Y-53918898D01*
X137567506Y-53977863D01*
X137470815Y-54057215D01*
X137391463Y-54153906D01*
X137332498Y-54264220D01*
X137296188Y-54383918D01*
X137283928Y-54508400D01*
X137283928Y-54562000D01*
X137036072Y-54562000D01*
X137036072Y-54508400D01*
X137023812Y-54383918D01*
X136987502Y-54264220D01*
X136928537Y-54153906D01*
X136849185Y-54057215D01*
X136752494Y-53977863D01*
X136642180Y-53918898D01*
X136522482Y-53882588D01*
X136398000Y-53870328D01*
X134366000Y-53870328D01*
X134241518Y-53882588D01*
X134121820Y-53918898D01*
X134011506Y-53977863D01*
X133914815Y-54057215D01*
X133835463Y-54153906D01*
X133776498Y-54264220D01*
X133740188Y-54383918D01*
X133727928Y-54508400D01*
X133727928Y-56235600D01*
X133740188Y-56360082D01*
X133776498Y-56479780D01*
X133835463Y-56590094D01*
X133914815Y-56686785D01*
X134011506Y-56766137D01*
X134121820Y-56825102D01*
X134172865Y-56840586D01*
X134164803Y-56847203D01*
X133977531Y-57075394D01*
X133838375Y-57335736D01*
X133752684Y-57618223D01*
X133723749Y-57912000D01*
X133400000Y-57912000D01*
X133400000Y-46173229D01*
X135549000Y-46173229D01*
X135549000Y-46790771D01*
X135669476Y-47396446D01*
X135905799Y-47966979D01*
X136248886Y-48480446D01*
X136685554Y-48917114D01*
X137199021Y-49260201D01*
X137769554Y-49496524D01*
X138375229Y-49617000D01*
X138992771Y-49617000D01*
X139598446Y-49496524D01*
X140168979Y-49260201D01*
X140682446Y-48917114D01*
X141119114Y-48480446D01*
X141462201Y-47966979D01*
X141698524Y-47396446D01*
X141819000Y-46790771D01*
X141819000Y-46173229D01*
X168061000Y-46173229D01*
X168061000Y-46790771D01*
X168181476Y-47396446D01*
X168417799Y-47966979D01*
X168760886Y-48480446D01*
X169197554Y-48917114D01*
X169711021Y-49260201D01*
X170281554Y-49496524D01*
X170887229Y-49617000D01*
X171504771Y-49617000D01*
X172110446Y-49496524D01*
X172680979Y-49260201D01*
X173194446Y-48917114D01*
X173631114Y-48480446D01*
X173974201Y-47966979D01*
X174210524Y-47396446D01*
X174331000Y-46790771D01*
X174331000Y-46173229D01*
X174210524Y-45567554D01*
X173974201Y-44997021D01*
X173631114Y-44483554D01*
X173194446Y-44046886D01*
X172680979Y-43703799D01*
X172110446Y-43467476D01*
X171504771Y-43347000D01*
X170887229Y-43347000D01*
X170281554Y-43467476D01*
X169711021Y-43703799D01*
X169197554Y-44046886D01*
X168760886Y-44483554D01*
X168417799Y-44997021D01*
X168181476Y-45567554D01*
X168061000Y-46173229D01*
X141819000Y-46173229D01*
X141698524Y-45567554D01*
X141462201Y-44997021D01*
X141119114Y-44483554D01*
X140682446Y-44046886D01*
X140168979Y-43703799D01*
X139598446Y-43467476D01*
X138992771Y-43347000D01*
X138375229Y-43347000D01*
X137769554Y-43467476D01*
X137199021Y-43703799D01*
X136685554Y-44046886D01*
X136248886Y-44483554D01*
X135905799Y-44997021D01*
X135669476Y-45567554D01*
X135549000Y-46173229D01*
X133400000Y-46173229D01*
X133400000Y-42595000D01*
X176099000Y-42595000D01*
X176099001Y-78055000D01*
X176099001Y-78055000D01*
G37*
X176099001Y-78055000D02*
X133400000Y-78055000D01*
X133400000Y-73224229D01*
X135549000Y-73224229D01*
X135549000Y-73841771D01*
X135669476Y-74447446D01*
X135905799Y-75017979D01*
X136248886Y-75531446D01*
X136685554Y-75968114D01*
X137199021Y-76311201D01*
X137769554Y-76547524D01*
X138375229Y-76668000D01*
X138992771Y-76668000D01*
X139598446Y-76547524D01*
X140168979Y-76311201D01*
X140682446Y-75968114D01*
X141119114Y-75531446D01*
X141462201Y-75017979D01*
X141698524Y-74447446D01*
X141819000Y-73841771D01*
X141819000Y-73351229D01*
X167807000Y-73351229D01*
X167807000Y-73968771D01*
X167927476Y-74574446D01*
X168163799Y-75144979D01*
X168506886Y-75658446D01*
X168943554Y-76095114D01*
X169457021Y-76438201D01*
X170027554Y-76674524D01*
X170633229Y-76795000D01*
X171250771Y-76795000D01*
X171856446Y-76674524D01*
X172426979Y-76438201D01*
X172940446Y-76095114D01*
X173377114Y-75658446D01*
X173720201Y-75144979D01*
X173956524Y-74574446D01*
X174077000Y-73968771D01*
X174077000Y-73351229D01*
X173956524Y-72745554D01*
X173720201Y-72175021D01*
X173377114Y-71661554D01*
X172940446Y-71224886D01*
X172426979Y-70881799D01*
X171856446Y-70645476D01*
X171250771Y-70525000D01*
X170633229Y-70525000D01*
X170027554Y-70645476D01*
X169457021Y-70881799D01*
X168943554Y-71224886D01*
X168506886Y-71661554D01*
X168163799Y-72175021D01*
X167927476Y-72745554D01*
X167807000Y-73351229D01*
X141819000Y-73351229D01*
X141819000Y-73224229D01*
X141698524Y-72618554D01*
X141462201Y-72048021D01*
X141119114Y-71534554D01*
X140682446Y-71097886D01*
X140168979Y-70754799D01*
X139598446Y-70518476D01*
X138992771Y-70398000D01*
X138375229Y-70398000D01*
X137769554Y-70518476D01*
X137199021Y-70754799D01*
X136685554Y-71097886D01*
X136248886Y-71534554D01*
X135905799Y-72048021D01*
X135669476Y-72618554D01*
X135549000Y-73224229D01*
X133400000Y-73224229D01*
X133400000Y-68431026D01*
X133774642Y-68431026D01*
X133777291Y-68446789D01*
X133878314Y-68722919D01*
X134031267Y-68974035D01*
X134230271Y-69190486D01*
X134467679Y-69363954D01*
X134734367Y-69487773D01*
X135020086Y-69557185D01*
X135255000Y-69412925D01*
X135255000Y-68199000D01*
X135509000Y-68199000D01*
X135509000Y-69412925D01*
X135743914Y-69557185D01*
X136029633Y-69487773D01*
X136296321Y-69363954D01*
X136533729Y-69190486D01*
X136732733Y-68974035D01*
X136885686Y-68722919D01*
X136983725Y-68454944D01*
X137332025Y-68454944D01*
X137389924Y-68645826D01*
X137531618Y-68936815D01*
X137727358Y-69194569D01*
X137969623Y-69409184D01*
X138249102Y-69572411D01*
X138555055Y-69677978D01*
X138811000Y-69559362D01*
X138811000Y-68199000D01*
X139065000Y-68199000D01*
X139065000Y-69559362D01*
X139320945Y-69677978D01*
X139626898Y-69572411D01*
X139906377Y-69409184D01*
X140148642Y-69194569D01*
X140344382Y-68936815D01*
X140344973Y-68935600D01*
X168525928Y-68935600D01*
X168538188Y-69060082D01*
X168574498Y-69179780D01*
X168633463Y-69290094D01*
X168712815Y-69386785D01*
X168809506Y-69466137D01*
X168919820Y-69525102D01*
X169039518Y-69561412D01*
X169164000Y-69573672D01*
X169894250Y-69570600D01*
X170053000Y-69411850D01*
X170053000Y-68199000D01*
X170307000Y-68199000D01*
X170307000Y-69411850D01*
X170465750Y-69570600D01*
X171196000Y-69573672D01*
X171320482Y-69561412D01*
X171440180Y-69525102D01*
X171550494Y-69466137D01*
X171647185Y-69386785D01*
X171726537Y-69290094D01*
X171785502Y-69179780D01*
X171821812Y-69060082D01*
X171834072Y-68935600D01*
X172081928Y-68935600D01*
X172094188Y-69060082D01*
X172130498Y-69179780D01*
X172189463Y-69290094D01*
X172268815Y-69386785D01*
X172365506Y-69466137D01*
X172475820Y-69525102D01*
X172595518Y-69561412D01*
X172720000Y-69573672D01*
X173450250Y-69570600D01*
X173609000Y-69411850D01*
X173609000Y-68199000D01*
X173863000Y-68199000D01*
X173863000Y-69411850D01*
X174021750Y-69570600D01*
X174752000Y-69573672D01*
X174876482Y-69561412D01*
X174996180Y-69525102D01*
X175106494Y-69466137D01*
X175203185Y-69386785D01*
X175282537Y-69290094D01*
X175341502Y-69179780D01*
X175377812Y-69060082D01*
X175390072Y-68935600D01*
X175387000Y-68357750D01*
X175228250Y-68199000D01*
X173863000Y-68199000D01*
X173609000Y-68199000D01*
X172243750Y-68199000D01*
X172085000Y-68357750D01*
X172081928Y-68935600D01*
X171834072Y-68935600D01*
X171831000Y-68357750D01*
X171672250Y-68199000D01*
X170307000Y-68199000D01*
X170053000Y-68199000D01*
X168687750Y-68199000D01*
X168529000Y-68357750D01*
X168525928Y-68935600D01*
X140344973Y-68935600D01*
X140486076Y-68645826D01*
X140543975Y-68454944D01*
X140424836Y-68199000D01*
X139065000Y-68199000D01*
X138811000Y-68199000D01*
X137451164Y-68199000D01*
X137332025Y-68454944D01*
X136983725Y-68454944D01*
X136986709Y-68446789D01*
X136989358Y-68431026D01*
X136868217Y-68199000D01*
X135509000Y-68199000D01*
X135255000Y-68199000D01*
X133895783Y-68199000D01*
X133774642Y-68431026D01*
X133400000Y-68431026D01*
X133400000Y-57912000D01*
X133723749Y-57912000D01*
X133752684Y-58205777D01*
X133838375Y-58488264D01*
X133977531Y-58748606D01*
X134164803Y-58976797D01*
X134392994Y-59164069D01*
X134426540Y-59182000D01*
X134392994Y-59199931D01*
X134164803Y-59387203D01*
X133977531Y-59615394D01*
X133838375Y-59875736D01*
X133752684Y-60158223D01*
X133723749Y-60452000D01*
X133752684Y-60745777D01*
X133838375Y-61028264D01*
X133977531Y-61288606D01*
X134164803Y-61516797D01*
X134392994Y-61704069D01*
X134426540Y-61722000D01*
X134392994Y-61739931D01*
X134164803Y-61927203D01*
X133977531Y-62155394D01*
X133838375Y-62415736D01*
X133752684Y-62698223D01*
X133723749Y-62992000D01*
X133752684Y-63285777D01*
X133838375Y-63568264D01*
X133977531Y-63828606D01*
X134164803Y-64056797D01*
X134392994Y-64244069D01*
X134426540Y-64262000D01*
X134392994Y-64279931D01*
X134164803Y-64467203D01*
X133977531Y-64695394D01*
X133838375Y-64955736D01*
X133752684Y-65238223D01*
X133723749Y-65532000D01*
X133752684Y-65825777D01*
X133838375Y-66108264D01*
X133977531Y-66368606D01*
X134164803Y-66596797D01*
X134392994Y-66784069D01*
X134432947Y-66805424D01*
X134230271Y-66953514D01*
X134031267Y-67169965D01*
X133878314Y-67421081D01*
X133777291Y-67697211D01*
X133774642Y-67712974D01*
X133895783Y-67945000D01*
X135255000Y-67945000D01*
X135255000Y-67925000D01*
X135509000Y-67925000D01*
X135509000Y-67945000D01*
X136868217Y-67945000D01*
X136989358Y-67712974D01*
X136986709Y-67697211D01*
X136885686Y-67421081D01*
X136732733Y-67169965D01*
X136533729Y-66953514D01*
X136331053Y-66805424D01*
X136371006Y-66784069D01*
X136599197Y-66596797D01*
X136786469Y-66368606D01*
X136800690Y-66342000D01*
X137283928Y-66342000D01*
X137283928Y-66548000D01*
X137296188Y-66672482D01*
X137332498Y-66792180D01*
X137391463Y-66902494D01*
X137470815Y-66999185D01*
X137567506Y-67078537D01*
X137611469Y-67102036D01*
X137531618Y-67207185D01*
X137389924Y-67498174D01*
X137332025Y-67689056D01*
X137451164Y-67945000D01*
X138811000Y-67945000D01*
X138811000Y-67925000D01*
X139065000Y-67925000D01*
X139065000Y-67945000D01*
X140424836Y-67945000D01*
X140543975Y-67689056D01*
X140486076Y-67498174D01*
X140344382Y-67207185D01*
X140264531Y-67102036D01*
X140308494Y-67078537D01*
X140405185Y-66999185D01*
X140484537Y-66902494D01*
X140543502Y-66792180D01*
X140579812Y-66672482D01*
X140592072Y-66548000D01*
X140592072Y-64516000D01*
X140579812Y-64391518D01*
X140543502Y-64271820D01*
X140484537Y-64161506D01*
X140405185Y-64064815D01*
X140308494Y-63985463D01*
X140198180Y-63926498D01*
X140078482Y-63890188D01*
X139954000Y-63877928D01*
X137922000Y-63877928D01*
X137797518Y-63890188D01*
X137677820Y-63926498D01*
X137567506Y-63985463D01*
X137470815Y-64064815D01*
X137391463Y-64161506D01*
X137332498Y-64271820D01*
X137296188Y-64391518D01*
X137283928Y-64516000D01*
X137283928Y-64722000D01*
X136800690Y-64722000D01*
X136786469Y-64695394D01*
X136599197Y-64467203D01*
X136371006Y-64279931D01*
X136337460Y-64262000D01*
X136371006Y-64244069D01*
X136599197Y-64056797D01*
X136786469Y-63828606D01*
X136925625Y-63568264D01*
X137011316Y-63285777D01*
X137040251Y-62992000D01*
X137011316Y-62698223D01*
X136925625Y-62415736D01*
X136786469Y-62155394D01*
X136599197Y-61927203D01*
X136371006Y-61739931D01*
X136337460Y-61722000D01*
X136371006Y-61704069D01*
X136599197Y-61516797D01*
X136786469Y-61288606D01*
X136800690Y-61262000D01*
X137519310Y-61262000D01*
X137533531Y-61288606D01*
X137720803Y-61516797D01*
X137948994Y-61704069D01*
X138209336Y-61843225D01*
X138491823Y-61928916D01*
X138711981Y-61950600D01*
X139164019Y-61950600D01*
X139384177Y-61928916D01*
X139666664Y-61843225D01*
X139927006Y-61704069D01*
X140155197Y-61516797D01*
X140342469Y-61288606D01*
X140481625Y-61028264D01*
X140567316Y-60745777D01*
X140596251Y-60452000D01*
X140567316Y-60158223D01*
X140481625Y-59875736D01*
X140342469Y-59615394D01*
X140155197Y-59387203D01*
X139927006Y-59199931D01*
X139893460Y-59182000D01*
X139927006Y-59164069D01*
X140155197Y-58976797D01*
X140342469Y-58748606D01*
X140481625Y-58488264D01*
X140567316Y-58205777D01*
X140596251Y-57912000D01*
X140567316Y-57618223D01*
X140481625Y-57335736D01*
X140342469Y-57075394D01*
X140155197Y-56847203D01*
X140147135Y-56840586D01*
X140198180Y-56825102D01*
X140308494Y-56766137D01*
X140405185Y-56686785D01*
X140484537Y-56590094D01*
X140511280Y-56540061D01*
X156191000Y-56540061D01*
X156191000Y-56743939D01*
X156230774Y-56943898D01*
X156308795Y-57132256D01*
X156422063Y-57301774D01*
X156566226Y-57445937D01*
X156735744Y-57559205D01*
X156756325Y-57567730D01*
X156738774Y-57610102D01*
X156699000Y-57810061D01*
X156699000Y-58013939D01*
X156738774Y-58213898D01*
X156816795Y-58402256D01*
X156930063Y-58571774D01*
X157074226Y-58715937D01*
X157243744Y-58829205D01*
X157264325Y-58837730D01*
X157246774Y-58880102D01*
X157207000Y-59080061D01*
X157207000Y-59283939D01*
X157246774Y-59483898D01*
X157324795Y-59672256D01*
X157438063Y-59841774D01*
X157582226Y-59985937D01*
X157751744Y-60099205D01*
X157940102Y-60177226D01*
X157964684Y-60182116D01*
X157964684Y-60314613D01*
X158004458Y-60514572D01*
X158082479Y-60702930D01*
X158189685Y-60863375D01*
X158189684Y-63871759D01*
X158086795Y-64025744D01*
X158008774Y-64214102D01*
X157969000Y-64414061D01*
X157969000Y-64617939D01*
X158008774Y-64817898D01*
X158086795Y-65006256D01*
X158200063Y-65175774D01*
X158344226Y-65319937D01*
X158513744Y-65433205D01*
X158702102Y-65511226D01*
X158902061Y-65551000D01*
X159105939Y-65551000D01*
X159305898Y-65511226D01*
X159494256Y-65433205D01*
X159663774Y-65319937D01*
X159807937Y-65175774D01*
X159921205Y-65006256D01*
X159999226Y-64817898D01*
X160039000Y-64617939D01*
X160039000Y-64414061D01*
X159999226Y-64214102D01*
X159921205Y-64025744D01*
X159809684Y-63858841D01*
X159809684Y-63074497D01*
X159925027Y-63074497D01*
X164618104Y-66184369D01*
X164647811Y-66208749D01*
X164684445Y-66228330D01*
X164685741Y-66229189D01*
X164719583Y-66247112D01*
X164788527Y-66283963D01*
X164790022Y-66284417D01*
X164791409Y-66285151D01*
X164866265Y-66307545D01*
X164941212Y-66330280D01*
X164942777Y-66330434D01*
X164944271Y-66330881D01*
X165021833Y-66338220D01*
X165060209Y-66342000D01*
X165061776Y-66342000D01*
X165103118Y-66345912D01*
X165141337Y-66342000D01*
X168761310Y-66342000D01*
X168775531Y-66368606D01*
X168962803Y-66596797D01*
X168970865Y-66603414D01*
X168919820Y-66618898D01*
X168809506Y-66677863D01*
X168712815Y-66757215D01*
X168633463Y-66853906D01*
X168574498Y-66964220D01*
X168538188Y-67083918D01*
X168525928Y-67208400D01*
X168529000Y-67786250D01*
X168687750Y-67945000D01*
X170053000Y-67945000D01*
X170053000Y-67925000D01*
X170307000Y-67925000D01*
X170307000Y-67945000D01*
X171672250Y-67945000D01*
X171831000Y-67786250D01*
X171834072Y-67208400D01*
X171821812Y-67083918D01*
X171785502Y-66964220D01*
X171726537Y-66853906D01*
X171647185Y-66757215D01*
X171550494Y-66677863D01*
X171440180Y-66618898D01*
X171389135Y-66603414D01*
X171397197Y-66596797D01*
X171584469Y-66368606D01*
X171598690Y-66342000D01*
X172317310Y-66342000D01*
X172331531Y-66368606D01*
X172518803Y-66596797D01*
X172526865Y-66603414D01*
X172475820Y-66618898D01*
X172365506Y-66677863D01*
X172268815Y-66757215D01*
X172189463Y-66853906D01*
X172130498Y-66964220D01*
X172094188Y-67083918D01*
X172081928Y-67208400D01*
X172085000Y-67786250D01*
X172243750Y-67945000D01*
X173609000Y-67945000D01*
X173609000Y-67925000D01*
X173863000Y-67925000D01*
X173863000Y-67945000D01*
X175228250Y-67945000D01*
X175387000Y-67786250D01*
X175390072Y-67208400D01*
X175377812Y-67083918D01*
X175341502Y-66964220D01*
X175282537Y-66853906D01*
X175203185Y-66757215D01*
X175106494Y-66677863D01*
X174996180Y-66618898D01*
X174945135Y-66603414D01*
X174953197Y-66596797D01*
X175140469Y-66368606D01*
X175279625Y-66108264D01*
X175365316Y-65825777D01*
X175394251Y-65532000D01*
X175365316Y-65238223D01*
X175279625Y-64955736D01*
X175140469Y-64695394D01*
X174953197Y-64467203D01*
X174725006Y-64279931D01*
X174691460Y-64262000D01*
X174725006Y-64244069D01*
X174953197Y-64056797D01*
X175140469Y-63828606D01*
X175279625Y-63568264D01*
X175365316Y-63285777D01*
X175394251Y-62992000D01*
X175365316Y-62698223D01*
X175279625Y-62415736D01*
X175140469Y-62155394D01*
X174953197Y-61927203D01*
X174725006Y-61739931D01*
X174691460Y-61722000D01*
X174725006Y-61704069D01*
X174953197Y-61516797D01*
X175140469Y-61288606D01*
X175279625Y-61028264D01*
X175365316Y-60745777D01*
X175394251Y-60452000D01*
X175365316Y-60158223D01*
X175279625Y-59875736D01*
X175140469Y-59615394D01*
X174953197Y-59387203D01*
X174725006Y-59199931D01*
X174691460Y-59182000D01*
X174725006Y-59164069D01*
X174953197Y-58976797D01*
X175140469Y-58748606D01*
X175279625Y-58488264D01*
X175365316Y-58205777D01*
X175394251Y-57912000D01*
X175365316Y-57618223D01*
X175279625Y-57335736D01*
X175140469Y-57075394D01*
X174953197Y-56847203D01*
X174725006Y-56659931D01*
X174691460Y-56642000D01*
X174725006Y-56624069D01*
X174953197Y-56436797D01*
X175140469Y-56208606D01*
X175279625Y-55948264D01*
X175365316Y-55665777D01*
X175394251Y-55372000D01*
X175365316Y-55078223D01*
X175279625Y-54795736D01*
X175140469Y-54535394D01*
X174953197Y-54307203D01*
X174725006Y-54119931D01*
X174464664Y-53980775D01*
X174182177Y-53895084D01*
X173962019Y-53873400D01*
X173509981Y-53873400D01*
X173289823Y-53895084D01*
X173007336Y-53980775D01*
X172746994Y-54119931D01*
X172518803Y-54307203D01*
X172331531Y-54535394D01*
X172317310Y-54562000D01*
X171598690Y-54562000D01*
X171584469Y-54535394D01*
X171397197Y-54307203D01*
X171169006Y-54119931D01*
X170908664Y-53980775D01*
X170626177Y-53895084D01*
X170406019Y-53873400D01*
X169953981Y-53873400D01*
X169733823Y-53895084D01*
X169451336Y-53980775D01*
X169190994Y-54119931D01*
X168962803Y-54307203D01*
X168775531Y-54535394D01*
X168761310Y-54562000D01*
X168688596Y-54562000D01*
X168641585Y-54558209D01*
X168569498Y-54566601D01*
X168497212Y-54573720D01*
X168452067Y-54587415D01*
X162726974Y-55832000D01*
X157876700Y-55832000D01*
X157716256Y-55724795D01*
X157527898Y-55646774D01*
X157327939Y-55607000D01*
X157124061Y-55607000D01*
X156924102Y-55646774D01*
X156735744Y-55724795D01*
X156566226Y-55838063D01*
X156422063Y-55982226D01*
X156308795Y-56151744D01*
X156230774Y-56340102D01*
X156191000Y-56540061D01*
X140511280Y-56540061D01*
X140543502Y-56479780D01*
X140579812Y-56360082D01*
X140592072Y-56235600D01*
X140592072Y-54508400D01*
X140579812Y-54383918D01*
X140543502Y-54264220D01*
X140484537Y-54153906D01*
X140405185Y-54057215D01*
X140308494Y-53977863D01*
X140198180Y-53918898D01*
X140078482Y-53882588D01*
X139954000Y-53870328D01*
X137922000Y-53870328D01*
X137797518Y-53882588D01*
X137677820Y-53918898D01*
X137567506Y-53977863D01*
X137470815Y-54057215D01*
X137391463Y-54153906D01*
X137332498Y-54264220D01*
X137296188Y-54383918D01*
X137283928Y-54508400D01*
X137283928Y-54562000D01*
X137036072Y-54562000D01*
X137036072Y-54508400D01*
X137023812Y-54383918D01*
X136987502Y-54264220D01*
X136928537Y-54153906D01*
X136849185Y-54057215D01*
X136752494Y-53977863D01*
X136642180Y-53918898D01*
X136522482Y-53882588D01*
X136398000Y-53870328D01*
X134366000Y-53870328D01*
X134241518Y-53882588D01*
X134121820Y-53918898D01*
X134011506Y-53977863D01*
X133914815Y-54057215D01*
X133835463Y-54153906D01*
X133776498Y-54264220D01*
X133740188Y-54383918D01*
X133727928Y-54508400D01*
X133727928Y-56235600D01*
X133740188Y-56360082D01*
X133776498Y-56479780D01*
X133835463Y-56590094D01*
X133914815Y-56686785D01*
X134011506Y-56766137D01*
X134121820Y-56825102D01*
X134172865Y-56840586D01*
X134164803Y-56847203D01*
X133977531Y-57075394D01*
X133838375Y-57335736D01*
X133752684Y-57618223D01*
X133723749Y-57912000D01*
X133400000Y-57912000D01*
X133400000Y-46173229D01*
X135549000Y-46173229D01*
X135549000Y-46790771D01*
X135669476Y-47396446D01*
X135905799Y-47966979D01*
X136248886Y-48480446D01*
X136685554Y-48917114D01*
X137199021Y-49260201D01*
X137769554Y-49496524D01*
X138375229Y-49617000D01*
X138992771Y-49617000D01*
X139598446Y-49496524D01*
X140168979Y-49260201D01*
X140682446Y-48917114D01*
X141119114Y-48480446D01*
X141462201Y-47966979D01*
X141698524Y-47396446D01*
X141819000Y-46790771D01*
X141819000Y-46173229D01*
X168061000Y-46173229D01*
X168061000Y-46790771D01*
X168181476Y-47396446D01*
X168417799Y-47966979D01*
X168760886Y-48480446D01*
X169197554Y-48917114D01*
X169711021Y-49260201D01*
X170281554Y-49496524D01*
X170887229Y-49617000D01*
X171504771Y-49617000D01*
X172110446Y-49496524D01*
X172680979Y-49260201D01*
X173194446Y-48917114D01*
X173631114Y-48480446D01*
X173974201Y-47966979D01*
X174210524Y-47396446D01*
X174331000Y-46790771D01*
X174331000Y-46173229D01*
X174210524Y-45567554D01*
X173974201Y-44997021D01*
X173631114Y-44483554D01*
X173194446Y-44046886D01*
X172680979Y-43703799D01*
X172110446Y-43467476D01*
X171504771Y-43347000D01*
X170887229Y-43347000D01*
X170281554Y-43467476D01*
X169711021Y-43703799D01*
X169197554Y-44046886D01*
X168760886Y-44483554D01*
X168417799Y-44997021D01*
X168181476Y-45567554D01*
X168061000Y-46173229D01*
X141819000Y-46173229D01*
X141698524Y-45567554D01*
X141462201Y-44997021D01*
X141119114Y-44483554D01*
X140682446Y-44046886D01*
X140168979Y-43703799D01*
X139598446Y-43467476D01*
X138992771Y-43347000D01*
X138375229Y-43347000D01*
X137769554Y-43467476D01*
X137199021Y-43703799D01*
X136685554Y-44046886D01*
X136248886Y-44483554D01*
X135905799Y-44997021D01*
X135669476Y-45567554D01*
X135549000Y-46173229D01*
X133400000Y-46173229D01*
X133400000Y-42595000D01*
X176099000Y-42595000D01*
X176099001Y-78055000D01*
M02*
