G04 #@! TF.FileFunction,Legend,Top*
%FSLAX46Y46*%
G04 Gerber Fmt 4.6, Leading zero omitted, Abs format (unit mm)*
G04 Created by KiCad (PCBNEW 4.0.2-stable) date Sunday, 27 May 2018 'pmt' 21:04:44*
%MOMM*%
G01*
G04 APERTURE LIST*
%ADD10C,0.100000*%
%ADD11C,0.200000*%
%ADD12C,0.150000*%
G04 APERTURE END LIST*
D10*
D11*
X179324286Y-112302857D02*
X178924286Y-111731429D01*
X178638571Y-112302857D02*
X178638571Y-111102857D01*
X179095714Y-111102857D01*
X179210000Y-111160000D01*
X179267143Y-111217143D01*
X179324286Y-111331429D01*
X179324286Y-111502857D01*
X179267143Y-111617143D01*
X179210000Y-111674286D01*
X179095714Y-111731429D01*
X178638571Y-111731429D01*
X179667143Y-111102857D02*
X180352857Y-111102857D01*
X180010000Y-112302857D02*
X180010000Y-111102857D01*
X180695714Y-112245714D02*
X180867143Y-112302857D01*
X181152857Y-112302857D01*
X181267143Y-112245714D01*
X181324286Y-112188571D01*
X181381429Y-112074286D01*
X181381429Y-111960000D01*
X181324286Y-111845714D01*
X181267143Y-111788571D01*
X181152857Y-111731429D01*
X180924286Y-111674286D01*
X180810000Y-111617143D01*
X180752857Y-111560000D01*
X180695714Y-111445714D01*
X180695714Y-111331429D01*
X180752857Y-111217143D01*
X180810000Y-111160000D01*
X180924286Y-111102857D01*
X181210000Y-111102857D01*
X181381429Y-111160000D01*
D10*
X172339048Y-94051429D02*
X173100953Y-94051429D01*
X172720001Y-94432381D02*
X172720001Y-93670476D01*
X177419048Y-113863429D02*
X178180953Y-113863429D01*
X177800001Y-114244381D02*
X177800001Y-113482476D01*
D11*
X156822858Y-112302857D02*
X156422858Y-111731429D01*
X156137143Y-112302857D02*
X156137143Y-111102857D01*
X156594286Y-111102857D01*
X156708572Y-111160000D01*
X156765715Y-111217143D01*
X156822858Y-111331429D01*
X156822858Y-111502857D01*
X156765715Y-111617143D01*
X156708572Y-111674286D01*
X156594286Y-111731429D01*
X156137143Y-111731429D01*
X157165715Y-111102857D02*
X157851429Y-111102857D01*
X157508572Y-112302857D02*
X157508572Y-111102857D01*
X158194286Y-112245714D02*
X158365715Y-112302857D01*
X158651429Y-112302857D01*
X158765715Y-112245714D01*
X158822858Y-112188571D01*
X158880001Y-112074286D01*
X158880001Y-111960000D01*
X158822858Y-111845714D01*
X158765715Y-111788571D01*
X158651429Y-111731429D01*
X158422858Y-111674286D01*
X158308572Y-111617143D01*
X158251429Y-111560000D01*
X158194286Y-111445714D01*
X158194286Y-111331429D01*
X158251429Y-111217143D01*
X158308572Y-111160000D01*
X158422858Y-111102857D01*
X158708572Y-111102857D01*
X158880001Y-111160000D01*
X156645001Y-107222857D02*
X156245001Y-106651429D01*
X155959286Y-107222857D02*
X155959286Y-106022857D01*
X156416429Y-106022857D01*
X156530715Y-106080000D01*
X156587858Y-106137143D01*
X156645001Y-106251429D01*
X156645001Y-106422857D01*
X156587858Y-106537143D01*
X156530715Y-106594286D01*
X156416429Y-106651429D01*
X155959286Y-106651429D01*
X157045001Y-106022857D02*
X157845001Y-107222857D01*
X157845001Y-106022857D02*
X157045001Y-107222857D01*
X180238572Y-109762857D02*
X179838572Y-109191429D01*
X179552857Y-109762857D02*
X179552857Y-108562857D01*
X180010000Y-108562857D01*
X180124286Y-108620000D01*
X180181429Y-108677143D01*
X180238572Y-108791429D01*
X180238572Y-108962857D01*
X180181429Y-109077143D01*
X180124286Y-109134286D01*
X180010000Y-109191429D01*
X179552857Y-109191429D01*
X180638572Y-108562857D02*
X181438572Y-109762857D01*
X181438572Y-108562857D02*
X180638572Y-109762857D01*
X179667143Y-106022857D02*
X180352857Y-106022857D01*
X180010000Y-107222857D02*
X180010000Y-106022857D01*
X180638572Y-106022857D02*
X181438572Y-107222857D01*
X181438572Y-106022857D02*
X180638572Y-107222857D01*
X178238572Y-104225714D02*
X179152858Y-104225714D01*
X178695715Y-104682857D02*
X178695715Y-103768571D01*
X180295715Y-103482857D02*
X179724286Y-103482857D01*
X179667143Y-104054286D01*
X179724286Y-103997143D01*
X179838572Y-103940000D01*
X180124286Y-103940000D01*
X180238572Y-103997143D01*
X180295715Y-104054286D01*
X180352858Y-104168571D01*
X180352858Y-104454286D01*
X180295715Y-104568571D01*
X180238572Y-104625714D01*
X180124286Y-104682857D01*
X179838572Y-104682857D01*
X179724286Y-104625714D01*
X179667143Y-104568571D01*
X180695715Y-103482857D02*
X181095715Y-104682857D01*
X181495715Y-103482857D01*
X179324286Y-102028571D02*
X179267143Y-102085714D01*
X179095714Y-102142857D01*
X178981428Y-102142857D01*
X178810000Y-102085714D01*
X178695714Y-101971429D01*
X178638571Y-101857143D01*
X178581428Y-101628571D01*
X178581428Y-101457143D01*
X178638571Y-101228571D01*
X178695714Y-101114286D01*
X178810000Y-101000000D01*
X178981428Y-100942857D01*
X179095714Y-100942857D01*
X179267143Y-101000000D01*
X179324286Y-101057143D01*
X179667143Y-100942857D02*
X180352857Y-100942857D01*
X180010000Y-102142857D02*
X180010000Y-100942857D01*
X180695714Y-102085714D02*
X180867143Y-102142857D01*
X181152857Y-102142857D01*
X181267143Y-102085714D01*
X181324286Y-102028571D01*
X181381429Y-101914286D01*
X181381429Y-101800000D01*
X181324286Y-101685714D01*
X181267143Y-101628571D01*
X181152857Y-101571429D01*
X180924286Y-101514286D01*
X180810000Y-101457143D01*
X180752857Y-101400000D01*
X180695714Y-101285714D01*
X180695714Y-101171429D01*
X180752857Y-101057143D01*
X180810000Y-101000000D01*
X180924286Y-100942857D01*
X181210000Y-100942857D01*
X181381429Y-101000000D01*
X178867143Y-98460000D02*
X178752857Y-98402857D01*
X178581428Y-98402857D01*
X178410000Y-98460000D01*
X178295714Y-98574286D01*
X178238571Y-98688571D01*
X178181428Y-98917143D01*
X178181428Y-99088571D01*
X178238571Y-99317143D01*
X178295714Y-99431429D01*
X178410000Y-99545714D01*
X178581428Y-99602857D01*
X178695714Y-99602857D01*
X178867143Y-99545714D01*
X178924286Y-99488571D01*
X178924286Y-99088571D01*
X178695714Y-99088571D01*
X179438571Y-99602857D02*
X179438571Y-98402857D01*
X180124286Y-99602857D01*
X180124286Y-98402857D01*
X180695714Y-99602857D02*
X180695714Y-98402857D01*
X180981429Y-98402857D01*
X181152857Y-98460000D01*
X181267143Y-98574286D01*
X181324286Y-98688571D01*
X181381429Y-98917143D01*
X181381429Y-99088571D01*
X181324286Y-99317143D01*
X181267143Y-99431429D01*
X181152857Y-99545714D01*
X180981429Y-99602857D01*
X180695714Y-99602857D01*
X156565715Y-98460000D02*
X156451429Y-98402857D01*
X156280000Y-98402857D01*
X156108572Y-98460000D01*
X155994286Y-98574286D01*
X155937143Y-98688571D01*
X155880000Y-98917143D01*
X155880000Y-99088571D01*
X155937143Y-99317143D01*
X155994286Y-99431429D01*
X156108572Y-99545714D01*
X156280000Y-99602857D01*
X156394286Y-99602857D01*
X156565715Y-99545714D01*
X156622858Y-99488571D01*
X156622858Y-99088571D01*
X156394286Y-99088571D01*
X157137143Y-99602857D02*
X157137143Y-98402857D01*
X157822858Y-99602857D01*
X157822858Y-98402857D01*
X158394286Y-99602857D02*
X158394286Y-98402857D01*
X158680001Y-98402857D01*
X158851429Y-98460000D01*
X158965715Y-98574286D01*
X159022858Y-98688571D01*
X159080001Y-98917143D01*
X159080001Y-99088571D01*
X159022858Y-99317143D01*
X158965715Y-99431429D01*
X158851429Y-99545714D01*
X158680001Y-99602857D01*
X158394286Y-99602857D01*
X156822858Y-102028571D02*
X156765715Y-102085714D01*
X156594286Y-102142857D01*
X156480000Y-102142857D01*
X156308572Y-102085714D01*
X156194286Y-101971429D01*
X156137143Y-101857143D01*
X156080000Y-101628571D01*
X156080000Y-101457143D01*
X156137143Y-101228571D01*
X156194286Y-101114286D01*
X156308572Y-101000000D01*
X156480000Y-100942857D01*
X156594286Y-100942857D01*
X156765715Y-101000000D01*
X156822858Y-101057143D01*
X157165715Y-100942857D02*
X157851429Y-100942857D01*
X157508572Y-102142857D02*
X157508572Y-100942857D01*
X158194286Y-102085714D02*
X158365715Y-102142857D01*
X158651429Y-102142857D01*
X158765715Y-102085714D01*
X158822858Y-102028571D01*
X158880001Y-101914286D01*
X158880001Y-101800000D01*
X158822858Y-101685714D01*
X158765715Y-101628571D01*
X158651429Y-101571429D01*
X158422858Y-101514286D01*
X158308572Y-101457143D01*
X158251429Y-101400000D01*
X158194286Y-101285714D01*
X158194286Y-101171429D01*
X158251429Y-101057143D01*
X158308572Y-101000000D01*
X158422858Y-100942857D01*
X158708572Y-100942857D01*
X158880001Y-101000000D01*
X156387857Y-104225714D02*
X157302143Y-104225714D01*
X155930715Y-108562857D02*
X156616429Y-108562857D01*
X156273572Y-109762857D02*
X156273572Y-108562857D01*
X156902144Y-108562857D02*
X157702144Y-109762857D01*
X157702144Y-108562857D02*
X156902144Y-109762857D01*
D12*
X174154000Y-111819000D02*
X172154000Y-111819000D01*
X172154000Y-109669000D02*
X174154000Y-109669000D01*
X160265000Y-100370000D02*
X160265000Y-102370000D01*
X162315000Y-102370000D02*
X162315000Y-100370000D01*
X176895000Y-99940000D02*
X174895000Y-99940000D01*
X174895000Y-101990000D02*
X176895000Y-101990000D01*
X165354000Y-99441000D02*
X165354000Y-102489000D01*
X165354000Y-102489000D02*
X172466000Y-102489000D01*
X172466000Y-102489000D02*
X172466000Y-99441000D01*
X165354000Y-96393000D02*
X165354000Y-95631000D01*
X165354000Y-95631000D02*
X166878000Y-93345000D01*
X166878000Y-93345000D02*
X170942000Y-93345000D01*
X170942000Y-93345000D02*
X172466000Y-95631000D01*
X172466000Y-95631000D02*
X172466000Y-96393000D01*
X152400000Y-110490000D02*
X152400000Y-97790000D01*
X152400000Y-97790000D02*
X154940000Y-97790000D01*
X154940000Y-97790000D02*
X154940000Y-110490000D01*
X152120000Y-113310000D02*
X152120000Y-111760000D01*
X152400000Y-110490000D02*
X154940000Y-110490000D01*
X155220000Y-111760000D02*
X155220000Y-113310000D01*
X155220000Y-113310000D02*
X152120000Y-113310000D01*
X185420000Y-100330000D02*
X185420000Y-113030000D01*
X185420000Y-113030000D02*
X182880000Y-113030000D01*
X182880000Y-113030000D02*
X182880000Y-100330000D01*
X185700000Y-97510000D02*
X185700000Y-99060000D01*
X185420000Y-100330000D02*
X182880000Y-100330000D01*
X182600000Y-99060000D02*
X182600000Y-97510000D01*
X182600000Y-97510000D02*
X185700000Y-97510000D01*
X166206000Y-115257000D02*
X168206000Y-115257000D01*
X168206000Y-117407000D02*
X166206000Y-117407000D01*
X166206000Y-112209000D02*
X168206000Y-112209000D01*
X168206000Y-114359000D02*
X166206000Y-114359000D01*
X175802000Y-98057860D02*
X175802000Y-94457860D01*
X173702000Y-98057860D02*
X173702000Y-94457860D01*
X174452000Y-96007860D02*
X175052000Y-96007860D01*
X175052000Y-96007860D02*
X174752000Y-96307860D01*
X174752000Y-96307860D02*
X174552000Y-96107860D01*
X174552000Y-96107860D02*
X174802000Y-96107860D01*
X174802000Y-96107860D02*
X174752000Y-96157860D01*
X174252000Y-96407860D02*
X175252000Y-96407860D01*
X174752000Y-95907860D02*
X174752000Y-95407860D01*
X174752000Y-96407860D02*
X174252000Y-95907860D01*
X174252000Y-95907860D02*
X175252000Y-95907860D01*
X175252000Y-95907860D02*
X174752000Y-96407860D01*
X176310000Y-117869860D02*
X176310000Y-114269860D01*
X174210000Y-117869860D02*
X174210000Y-114269860D01*
X174960000Y-115819860D02*
X175560000Y-115819860D01*
X175560000Y-115819860D02*
X175260000Y-116119860D01*
X175260000Y-116119860D02*
X175060000Y-115919860D01*
X175060000Y-115919860D02*
X175310000Y-115919860D01*
X175310000Y-115919860D02*
X175260000Y-115969860D01*
X174760000Y-116219860D02*
X175760000Y-116219860D01*
X175260000Y-115719860D02*
X175260000Y-115219860D01*
X175260000Y-116219860D02*
X174760000Y-115719860D01*
X174760000Y-115719860D02*
X175760000Y-115719860D01*
X175760000Y-115719860D02*
X175260000Y-116219860D01*
X180882000Y-117869860D02*
X180882000Y-114269860D01*
X178782000Y-117869860D02*
X178782000Y-114269860D01*
X179532000Y-115819860D02*
X180132000Y-115819860D01*
X180132000Y-115819860D02*
X179832000Y-116119860D01*
X179832000Y-116119860D02*
X179632000Y-115919860D01*
X179632000Y-115919860D02*
X179882000Y-115919860D01*
X179882000Y-115919860D02*
X179832000Y-115969860D01*
X179332000Y-116219860D02*
X180332000Y-116219860D01*
X179832000Y-115719860D02*
X179832000Y-115219860D01*
X179832000Y-116219860D02*
X179332000Y-115719860D01*
X179332000Y-115719860D02*
X180332000Y-115719860D01*
X180332000Y-115719860D02*
X179832000Y-116219860D01*
X171174210Y-104521000D02*
G75*
G03X171174210Y-104521000I-359210J0D01*
G01*
X169760000Y-103420000D02*
X169760000Y-103545000D01*
X174410000Y-103420000D02*
X174410000Y-103645000D01*
X174410000Y-108670000D02*
X174410000Y-108445000D01*
X169760000Y-108670000D02*
X169760000Y-108445000D01*
X169760000Y-103420000D02*
X174410000Y-103420000D01*
X169760000Y-108670000D02*
X174410000Y-108670000D01*
X169760000Y-103545000D02*
X168410000Y-103545000D01*
X180399000Y-94938000D02*
X180399000Y-96938000D01*
X178249000Y-96938000D02*
X178249000Y-94938000D01*
D10*
X169552953Y-111196381D02*
X168981524Y-111196381D01*
X169267238Y-111196381D02*
X169267238Y-110196381D01*
X169172000Y-110339238D01*
X169076762Y-110434476D01*
X168981524Y-110482095D01*
X169981524Y-111196381D02*
X169981524Y-110196381D01*
X170076762Y-110815429D02*
X170362477Y-111196381D01*
X170362477Y-110529714D02*
X169981524Y-110910667D01*
X161647143Y-97956666D02*
X161694762Y-98004285D01*
X161742381Y-98147142D01*
X161742381Y-98242380D01*
X161694762Y-98385238D01*
X161599524Y-98480476D01*
X161504286Y-98528095D01*
X161313810Y-98575714D01*
X161170952Y-98575714D01*
X160980476Y-98528095D01*
X160885238Y-98480476D01*
X160790000Y-98385238D01*
X160742381Y-98242380D01*
X160742381Y-98147142D01*
X160790000Y-98004285D01*
X160837619Y-97956666D01*
X161742381Y-97004285D02*
X161742381Y-97575714D01*
X161742381Y-97290000D02*
X160742381Y-97290000D01*
X160885238Y-97385238D01*
X160980476Y-97480476D01*
X161028095Y-97575714D01*
X175601334Y-102973143D02*
X175553715Y-103020762D01*
X175410858Y-103068381D01*
X175315620Y-103068381D01*
X175172762Y-103020762D01*
X175077524Y-102925524D01*
X175029905Y-102830286D01*
X174982286Y-102639810D01*
X174982286Y-102496952D01*
X175029905Y-102306476D01*
X175077524Y-102211238D01*
X175172762Y-102116000D01*
X175315620Y-102068381D01*
X175410858Y-102068381D01*
X175553715Y-102116000D01*
X175601334Y-102163619D01*
X175982286Y-102163619D02*
X176029905Y-102116000D01*
X176125143Y-102068381D01*
X176363239Y-102068381D01*
X176458477Y-102116000D01*
X176506096Y-102163619D01*
X176553715Y-102258857D01*
X176553715Y-102354095D01*
X176506096Y-102496952D01*
X175934667Y-103068381D01*
X176553715Y-103068381D01*
D12*
X166743334Y-99131381D02*
X166267143Y-99131381D01*
X166267143Y-98131381D01*
X167076667Y-99131381D02*
X167076667Y-98131381D01*
X167410001Y-98845667D01*
X167743334Y-98131381D01*
X167743334Y-99131381D01*
X168743334Y-99131381D02*
X168171905Y-99131381D01*
X168457619Y-99131381D02*
X168457619Y-98131381D01*
X168362381Y-98274238D01*
X168267143Y-98369476D01*
X168171905Y-98417095D01*
X169695715Y-99131381D02*
X169124286Y-99131381D01*
X169410000Y-99131381D02*
X169410000Y-98131381D01*
X169314762Y-98274238D01*
X169219524Y-98369476D01*
X169124286Y-98417095D01*
X170648096Y-99131381D02*
X170076667Y-99131381D01*
X170362381Y-99131381D02*
X170362381Y-98131381D01*
X170267143Y-98274238D01*
X170171905Y-98369476D01*
X170076667Y-98417095D01*
X170981429Y-98131381D02*
X171648096Y-98131381D01*
X171219524Y-99131381D01*
X152971809Y-94916762D02*
X154209905Y-94916762D01*
X153543238Y-95678667D01*
X153828952Y-95678667D01*
X154019428Y-95773905D01*
X154114666Y-95869143D01*
X154209905Y-96059619D01*
X154209905Y-96535810D01*
X154114666Y-96726286D01*
X154019428Y-96821524D01*
X153828952Y-96916762D01*
X153257524Y-96916762D01*
X153067047Y-96821524D01*
X152971809Y-96726286D01*
X154781333Y-94916762D02*
X155448000Y-96916762D01*
X156114667Y-94916762D01*
X156590857Y-94916762D02*
X157828953Y-94916762D01*
X157162286Y-95678667D01*
X157448000Y-95678667D01*
X157638476Y-95773905D01*
X157733714Y-95869143D01*
X157828953Y-96059619D01*
X157828953Y-96535810D01*
X157733714Y-96726286D01*
X157638476Y-96821524D01*
X157448000Y-96916762D01*
X156876572Y-96916762D01*
X156686095Y-96821524D01*
X156590857Y-96726286D01*
X183769047Y-94864762D02*
X182816666Y-94864762D01*
X182721428Y-95817143D01*
X182816666Y-95721905D01*
X183007143Y-95626667D01*
X183483333Y-95626667D01*
X183673809Y-95721905D01*
X183769047Y-95817143D01*
X183864286Y-96007619D01*
X183864286Y-96483810D01*
X183769047Y-96674286D01*
X183673809Y-96769524D01*
X183483333Y-96864762D01*
X183007143Y-96864762D01*
X182816666Y-96769524D01*
X182721428Y-96674286D01*
X184435714Y-94864762D02*
X185102381Y-96864762D01*
X185769048Y-94864762D01*
D10*
X166596476Y-111080571D02*
X166596476Y-111613905D01*
X166406000Y-110775810D02*
X166215524Y-111347238D01*
X166710762Y-111347238D01*
X166939334Y-110813905D02*
X167472667Y-110813905D01*
X167129810Y-111613905D01*
X167929810Y-110813905D02*
X168006001Y-110813905D01*
X168082191Y-110852000D01*
X168120286Y-110890095D01*
X168158382Y-110966286D01*
X168196477Y-111118667D01*
X168196477Y-111309143D01*
X168158382Y-111461524D01*
X168120286Y-111537714D01*
X168082191Y-111575810D01*
X168006001Y-111613905D01*
X167929810Y-111613905D01*
X167853620Y-111575810D01*
X167815524Y-111537714D01*
X167777429Y-111461524D01*
X167739334Y-111309143D01*
X167739334Y-111118667D01*
X167777429Y-110966286D01*
X167815524Y-110890095D01*
X167853620Y-110852000D01*
X167929810Y-110813905D01*
X177204381Y-97241193D02*
X176204381Y-97241193D01*
X176204381Y-96860240D01*
X176252000Y-96765002D01*
X176299619Y-96717383D01*
X176394857Y-96669764D01*
X176537714Y-96669764D01*
X176632952Y-96717383D01*
X176680571Y-96765002D01*
X176728190Y-96860240D01*
X176728190Y-97241193D01*
X176204381Y-96336431D02*
X177204381Y-96098336D01*
X176490095Y-95907859D01*
X177204381Y-95717383D01*
X176204381Y-95479288D01*
X177204381Y-94526907D02*
X176728190Y-94860241D01*
X177204381Y-95098336D02*
X176204381Y-95098336D01*
X176204381Y-94717383D01*
X176252000Y-94622145D01*
X176299619Y-94574526D01*
X176394857Y-94526907D01*
X176537714Y-94526907D01*
X176632952Y-94574526D01*
X176680571Y-94622145D01*
X176728190Y-94717383D01*
X176728190Y-95098336D01*
D12*
X177712381Y-115886526D02*
X177236190Y-116219860D01*
X177712381Y-116457955D02*
X176712381Y-116457955D01*
X176712381Y-116077002D01*
X176760000Y-115981764D01*
X176807619Y-115934145D01*
X176902857Y-115886526D01*
X177045714Y-115886526D01*
X177140952Y-115934145D01*
X177188571Y-115981764D01*
X177236190Y-116077002D01*
X177236190Y-116457955D01*
X176712381Y-115553193D02*
X177712381Y-114886526D01*
X176712381Y-114886526D02*
X177712381Y-115553193D01*
X181284381Y-116481765D02*
X181284381Y-115910336D01*
X182284381Y-116196051D02*
X181284381Y-116196051D01*
X181284381Y-115672241D02*
X182284381Y-115005574D01*
X181284381Y-115005574D02*
X182284381Y-115672241D01*
X171108810Y-107132381D02*
X171108810Y-106132381D01*
X172156429Y-107037143D02*
X172108810Y-107084762D01*
X171965953Y-107132381D01*
X171870715Y-107132381D01*
X171727857Y-107084762D01*
X171632619Y-106989524D01*
X171585000Y-106894286D01*
X171537381Y-106703810D01*
X171537381Y-106560952D01*
X171585000Y-106370476D01*
X171632619Y-106275238D01*
X171727857Y-106180000D01*
X171870715Y-106132381D01*
X171965953Y-106132381D01*
X172108810Y-106180000D01*
X172156429Y-106227619D01*
X173108810Y-107132381D02*
X172537381Y-107132381D01*
X172823095Y-107132381D02*
X172823095Y-106132381D01*
X172727857Y-106275238D01*
X172632619Y-106370476D01*
X172537381Y-106418095D01*
D10*
X181409714Y-96699904D02*
X182076381Y-96699904D01*
X181028762Y-96938000D02*
X181743048Y-97176095D01*
X181743048Y-96557047D01*
X181076381Y-96271333D02*
X181076381Y-95604666D01*
X182076381Y-96033238D01*
X181076381Y-95033238D02*
X181076381Y-94937999D01*
X181124000Y-94842761D01*
X181171619Y-94795142D01*
X181266857Y-94747523D01*
X181457333Y-94699904D01*
X181695429Y-94699904D01*
X181885905Y-94747523D01*
X181981143Y-94795142D01*
X182028762Y-94842761D01*
X182076381Y-94937999D01*
X182076381Y-95033238D01*
X182028762Y-95128476D01*
X181981143Y-95176095D01*
X181885905Y-95223714D01*
X181695429Y-95271333D01*
X181457333Y-95271333D01*
X181266857Y-95223714D01*
X181171619Y-95176095D01*
X181124000Y-95128476D01*
X181076381Y-95033238D01*
M02*
