G04 #@! TF.GenerationSoftware,KiCad,Pcbnew,(5.1.2-1)-1*
G04 #@! TF.CreationDate,2019-06-09T09:00:05+02:00*
G04 #@! TF.ProjectId,Level Shifter,4c657665-6c20-4536-9869-667465722e6b,rev?*
G04 #@! TF.SameCoordinates,Original*
G04 #@! TF.FileFunction,Legend,Top*
G04 #@! TF.FilePolarity,Positive*
%FSLAX46Y46*%
G04 Gerber Fmt 4.6, Leading zero omitted, Abs format (unit mm)*
G04 Created by KiCad (PCBNEW (5.1.2-1)-1) date 2019-06-09 09:00:05*
%MOMM*%
%LPD*%
G04 APERTURE LIST*
%ADD10C,0.100000*%
%ADD11C,0.200000*%
%ADD12C,0.150000*%
G04 APERTURE END LIST*
D10*
X174117047Y-113863428D02*
X174878952Y-113863428D01*
X174498000Y-114244380D02*
X174498000Y-113482476D01*
X152598333Y-115973333D02*
X152698333Y-116006666D01*
X152865000Y-116006666D01*
X152931666Y-115973333D01*
X152965000Y-115940000D01*
X152998333Y-115873333D01*
X152998333Y-115806666D01*
X152965000Y-115740000D01*
X152931666Y-115706666D01*
X152865000Y-115673333D01*
X152731666Y-115640000D01*
X152665000Y-115606666D01*
X152631666Y-115573333D01*
X152598333Y-115506666D01*
X152598333Y-115440000D01*
X152631666Y-115373333D01*
X152665000Y-115340000D01*
X152731666Y-115306666D01*
X152898333Y-115306666D01*
X152998333Y-115340000D01*
X153565000Y-115973333D02*
X153498333Y-116006666D01*
X153365000Y-116006666D01*
X153298333Y-115973333D01*
X153265000Y-115906666D01*
X153265000Y-115640000D01*
X153298333Y-115573333D01*
X153365000Y-115540000D01*
X153498333Y-115540000D01*
X153565000Y-115573333D01*
X153598333Y-115640000D01*
X153598333Y-115706666D01*
X153265000Y-115773333D01*
X153898333Y-116006666D02*
X153898333Y-115540000D01*
X153898333Y-115673333D02*
X153931666Y-115606666D01*
X153965000Y-115573333D01*
X154031666Y-115540000D01*
X154098333Y-115540000D01*
X154331666Y-116006666D02*
X154331666Y-115540000D01*
X154331666Y-115306666D02*
X154298333Y-115340000D01*
X154331666Y-115373333D01*
X154365000Y-115340000D01*
X154331666Y-115306666D01*
X154331666Y-115373333D01*
X154965000Y-116006666D02*
X154965000Y-115640000D01*
X154931666Y-115573333D01*
X154865000Y-115540000D01*
X154731666Y-115540000D01*
X154665000Y-115573333D01*
X154965000Y-115973333D02*
X154898333Y-116006666D01*
X154731666Y-116006666D01*
X154665000Y-115973333D01*
X154631666Y-115906666D01*
X154631666Y-115840000D01*
X154665000Y-115773333D01*
X154731666Y-115740000D01*
X154898333Y-115740000D01*
X154965000Y-115706666D01*
X155398333Y-116006666D02*
X155331666Y-115973333D01*
X155298333Y-115906666D01*
X155298333Y-115306666D01*
X156531666Y-116006666D02*
X156198333Y-116006666D01*
X156198333Y-115306666D01*
X157031666Y-115973333D02*
X156965000Y-116006666D01*
X156831666Y-116006666D01*
X156765000Y-115973333D01*
X156731666Y-115906666D01*
X156731666Y-115640000D01*
X156765000Y-115573333D01*
X156831666Y-115540000D01*
X156965000Y-115540000D01*
X157031666Y-115573333D01*
X157065000Y-115640000D01*
X157065000Y-115706666D01*
X156731666Y-115773333D01*
X157298333Y-115540000D02*
X157465000Y-116006666D01*
X157631666Y-115540000D01*
X158165000Y-115973333D02*
X158098333Y-116006666D01*
X157965000Y-116006666D01*
X157898333Y-115973333D01*
X157865000Y-115906666D01*
X157865000Y-115640000D01*
X157898333Y-115573333D01*
X157965000Y-115540000D01*
X158098333Y-115540000D01*
X158165000Y-115573333D01*
X158198333Y-115640000D01*
X158198333Y-115706666D01*
X157865000Y-115773333D01*
X158598333Y-116006666D02*
X158531666Y-115973333D01*
X158498333Y-115906666D01*
X158498333Y-115306666D01*
X152598333Y-117123333D02*
X152698333Y-117156666D01*
X152865000Y-117156666D01*
X152931666Y-117123333D01*
X152965000Y-117090000D01*
X152998333Y-117023333D01*
X152998333Y-116956666D01*
X152965000Y-116890000D01*
X152931666Y-116856666D01*
X152865000Y-116823333D01*
X152731666Y-116790000D01*
X152665000Y-116756666D01*
X152631666Y-116723333D01*
X152598333Y-116656666D01*
X152598333Y-116590000D01*
X152631666Y-116523333D01*
X152665000Y-116490000D01*
X152731666Y-116456666D01*
X152898333Y-116456666D01*
X152998333Y-116490000D01*
X153298333Y-117156666D02*
X153298333Y-116456666D01*
X153598333Y-117156666D02*
X153598333Y-116790000D01*
X153565000Y-116723333D01*
X153498333Y-116690000D01*
X153398333Y-116690000D01*
X153331666Y-116723333D01*
X153298333Y-116756666D01*
X153931666Y-117156666D02*
X153931666Y-116690000D01*
X153931666Y-116456666D02*
X153898333Y-116490000D01*
X153931666Y-116523333D01*
X153965000Y-116490000D01*
X153931666Y-116456666D01*
X153931666Y-116523333D01*
X154165000Y-116690000D02*
X154431666Y-116690000D01*
X154265000Y-117156666D02*
X154265000Y-116556666D01*
X154298333Y-116490000D01*
X154365000Y-116456666D01*
X154431666Y-116456666D01*
X154565000Y-116690000D02*
X154831666Y-116690000D01*
X154665000Y-116456666D02*
X154665000Y-117056666D01*
X154698333Y-117123333D01*
X154765000Y-117156666D01*
X154831666Y-117156666D01*
X155331666Y-117123333D02*
X155265000Y-117156666D01*
X155131666Y-117156666D01*
X155065000Y-117123333D01*
X155031666Y-117056666D01*
X155031666Y-116790000D01*
X155065000Y-116723333D01*
X155131666Y-116690000D01*
X155265000Y-116690000D01*
X155331666Y-116723333D01*
X155365000Y-116790000D01*
X155365000Y-116856666D01*
X155031666Y-116923333D01*
X155665000Y-117156666D02*
X155665000Y-116690000D01*
X155665000Y-116823333D02*
X155698333Y-116756666D01*
X155731666Y-116723333D01*
X155798333Y-116690000D01*
X155865000Y-116690000D01*
X156531666Y-116456666D02*
X156765000Y-117156666D01*
X156998333Y-116456666D01*
X157198333Y-116523333D02*
X157231666Y-116490000D01*
X157298333Y-116456666D01*
X157465000Y-116456666D01*
X157531666Y-116490000D01*
X157565000Y-116523333D01*
X157598333Y-116590000D01*
X157598333Y-116656666D01*
X157565000Y-116756666D01*
X157165000Y-117156666D01*
X157598333Y-117156666D01*
X157898333Y-117090000D02*
X157931666Y-117123333D01*
X157898333Y-117156666D01*
X157865000Y-117123333D01*
X157898333Y-117090000D01*
X157898333Y-117156666D01*
X158365000Y-116456666D02*
X158431666Y-116456666D01*
X158498333Y-116490000D01*
X158531666Y-116523333D01*
X158565000Y-116590000D01*
X158598333Y-116723333D01*
X158598333Y-116890000D01*
X158565000Y-117023333D01*
X158531666Y-117090000D01*
X158498333Y-117123333D01*
X158431666Y-117156666D01*
X158365000Y-117156666D01*
X158298333Y-117123333D01*
X158265000Y-117090000D01*
X158231666Y-117023333D01*
X158198333Y-116890000D01*
X158198333Y-116723333D01*
X158231666Y-116590000D01*
X158265000Y-116523333D01*
X158298333Y-116490000D01*
X158365000Y-116456666D01*
X152631666Y-118306666D02*
X152631666Y-117606666D01*
X152931666Y-118306666D02*
X152931666Y-117940000D01*
X152898333Y-117873333D01*
X152831666Y-117840000D01*
X152731666Y-117840000D01*
X152665000Y-117873333D01*
X152631666Y-117906666D01*
X153165000Y-117840000D02*
X153431666Y-117840000D01*
X153265000Y-117606666D02*
X153265000Y-118206666D01*
X153298333Y-118273333D01*
X153365000Y-118306666D01*
X153431666Y-118306666D01*
X153565000Y-117840000D02*
X153831666Y-117840000D01*
X153665000Y-117606666D02*
X153665000Y-118206666D01*
X153698333Y-118273333D01*
X153765000Y-118306666D01*
X153831666Y-118306666D01*
X154065000Y-117840000D02*
X154065000Y-118540000D01*
X154065000Y-117873333D02*
X154131666Y-117840000D01*
X154265000Y-117840000D01*
X154331666Y-117873333D01*
X154365000Y-117906666D01*
X154398333Y-117973333D01*
X154398333Y-118173333D01*
X154365000Y-118240000D01*
X154331666Y-118273333D01*
X154265000Y-118306666D01*
X154131666Y-118306666D01*
X154065000Y-118273333D01*
X154665000Y-118273333D02*
X154731666Y-118306666D01*
X154865000Y-118306666D01*
X154931666Y-118273333D01*
X154965000Y-118206666D01*
X154965000Y-118173333D01*
X154931666Y-118106666D01*
X154865000Y-118073333D01*
X154765000Y-118073333D01*
X154698333Y-118040000D01*
X154665000Y-117973333D01*
X154665000Y-117940000D01*
X154698333Y-117873333D01*
X154765000Y-117840000D01*
X154865000Y-117840000D01*
X154931666Y-117873333D01*
X155265000Y-118240000D02*
X155298333Y-118273333D01*
X155265000Y-118306666D01*
X155231666Y-118273333D01*
X155265000Y-118240000D01*
X155265000Y-118306666D01*
X155265000Y-117873333D02*
X155298333Y-117906666D01*
X155265000Y-117940000D01*
X155231666Y-117906666D01*
X155265000Y-117873333D01*
X155265000Y-117940000D01*
X156098333Y-117573333D02*
X155498333Y-118473333D01*
X156831666Y-117573333D02*
X156231666Y-118473333D01*
X157065000Y-118306666D02*
X157065000Y-117606666D01*
X157065000Y-117873333D02*
X157131666Y-117840000D01*
X157265000Y-117840000D01*
X157331666Y-117873333D01*
X157365000Y-117906666D01*
X157398333Y-117973333D01*
X157398333Y-118173333D01*
X157365000Y-118240000D01*
X157331666Y-118273333D01*
X157265000Y-118306666D01*
X157131666Y-118306666D01*
X157065000Y-118273333D01*
X157698333Y-118306666D02*
X157698333Y-117840000D01*
X157698333Y-117606666D02*
X157665000Y-117640000D01*
X157698333Y-117673333D01*
X157731666Y-117640000D01*
X157698333Y-117606666D01*
X157698333Y-117673333D01*
X157931666Y-117840000D02*
X158198333Y-117840000D01*
X158031666Y-117606666D02*
X158031666Y-118206666D01*
X158065000Y-118273333D01*
X158131666Y-118306666D01*
X158198333Y-118306666D01*
X158431666Y-118240000D02*
X158465000Y-118273333D01*
X158431666Y-118306666D01*
X158398333Y-118273333D01*
X158431666Y-118240000D01*
X158431666Y-118306666D01*
X158865000Y-118306666D02*
X158798333Y-118273333D01*
X158765000Y-118206666D01*
X158765000Y-117606666D01*
X159065000Y-117840000D02*
X159231666Y-118306666D01*
X159398333Y-117840000D02*
X159231666Y-118306666D01*
X159165000Y-118473333D01*
X159131666Y-118506666D01*
X159065000Y-118540000D01*
X160165000Y-117573333D02*
X159565000Y-118473333D01*
X160365000Y-118273333D02*
X160431666Y-118306666D01*
X160565000Y-118306666D01*
X160631666Y-118273333D01*
X160665000Y-118206666D01*
X160665000Y-118173333D01*
X160631666Y-118106666D01*
X160565000Y-118073333D01*
X160465000Y-118073333D01*
X160398333Y-118040000D01*
X160365000Y-117973333D01*
X160365000Y-117940000D01*
X160398333Y-117873333D01*
X160465000Y-117840000D01*
X160565000Y-117840000D01*
X160631666Y-117873333D01*
X160965000Y-117840000D02*
X160965000Y-118540000D01*
X160965000Y-117873333D02*
X161031666Y-117840000D01*
X161165000Y-117840000D01*
X161231666Y-117873333D01*
X161265000Y-117906666D01*
X161298333Y-117973333D01*
X161298333Y-118173333D01*
X161265000Y-118240000D01*
X161231666Y-118273333D01*
X161165000Y-118306666D01*
X161031666Y-118306666D01*
X160965000Y-118273333D01*
X161865000Y-118273333D02*
X161798333Y-118306666D01*
X161665000Y-118306666D01*
X161598333Y-118273333D01*
X161565000Y-118206666D01*
X161565000Y-117940000D01*
X161598333Y-117873333D01*
X161665000Y-117840000D01*
X161798333Y-117840000D01*
X161865000Y-117873333D01*
X161898333Y-117940000D01*
X161898333Y-118006666D01*
X161565000Y-118073333D01*
X162498333Y-118273333D02*
X162431666Y-118306666D01*
X162298333Y-118306666D01*
X162231666Y-118273333D01*
X162198333Y-118240000D01*
X162165000Y-118173333D01*
X162165000Y-117973333D01*
X162198333Y-117906666D01*
X162231666Y-117873333D01*
X162298333Y-117840000D01*
X162431666Y-117840000D01*
X162498333Y-117873333D01*
X163098333Y-117840000D02*
X163098333Y-118306666D01*
X162798333Y-117840000D02*
X162798333Y-118206666D01*
X162831666Y-118273333D01*
X162898333Y-118306666D01*
X162998333Y-118306666D01*
X163065000Y-118273333D01*
X163098333Y-118240000D01*
X163531666Y-118306666D02*
X163465000Y-118273333D01*
X163431666Y-118206666D01*
X163431666Y-117606666D01*
X164098333Y-118306666D02*
X164098333Y-117940000D01*
X164065000Y-117873333D01*
X163998333Y-117840000D01*
X163865000Y-117840000D01*
X163798333Y-117873333D01*
X164098333Y-118273333D02*
X164031666Y-118306666D01*
X163865000Y-118306666D01*
X163798333Y-118273333D01*
X163765000Y-118206666D01*
X163765000Y-118140000D01*
X163798333Y-118073333D01*
X163865000Y-118040000D01*
X164031666Y-118040000D01*
X164098333Y-118006666D01*
X164331666Y-117840000D02*
X164598333Y-117840000D01*
X164431666Y-117606666D02*
X164431666Y-118206666D01*
X164465000Y-118273333D01*
X164531666Y-118306666D01*
X164598333Y-118306666D01*
X164831666Y-118306666D02*
X164831666Y-117840000D01*
X164831666Y-117973333D02*
X164865000Y-117906666D01*
X164898333Y-117873333D01*
X164965000Y-117840000D01*
X165031666Y-117840000D01*
X165265000Y-118306666D02*
X165265000Y-117840000D01*
X165265000Y-117606666D02*
X165231666Y-117640000D01*
X165265000Y-117673333D01*
X165298333Y-117640000D01*
X165265000Y-117606666D01*
X165265000Y-117673333D01*
X165531666Y-118306666D02*
X165898333Y-117840000D01*
X165531666Y-117840000D02*
X165898333Y-118306666D01*
D11*
X179702285Y-99856857D02*
X179302285Y-99285428D01*
X179016571Y-99856857D02*
X179016571Y-98656857D01*
X179473714Y-98656857D01*
X179588000Y-98714000D01*
X179645142Y-98771142D01*
X179702285Y-98885428D01*
X179702285Y-99056857D01*
X179645142Y-99171142D01*
X179588000Y-99228285D01*
X179473714Y-99285428D01*
X179016571Y-99285428D01*
X180045142Y-98656857D02*
X180730857Y-98656857D01*
X180388000Y-99856857D02*
X180388000Y-98656857D01*
X181073714Y-99799714D02*
X181245142Y-99856857D01*
X181530857Y-99856857D01*
X181645142Y-99799714D01*
X181702285Y-99742571D01*
X181759428Y-99628285D01*
X181759428Y-99514000D01*
X181702285Y-99399714D01*
X181645142Y-99342571D01*
X181530857Y-99285428D01*
X181302285Y-99228285D01*
X181188000Y-99171142D01*
X181130857Y-99114000D01*
X181073714Y-98999714D01*
X181073714Y-98885428D01*
X181130857Y-98771142D01*
X181188000Y-98714000D01*
X181302285Y-98656857D01*
X181588000Y-98656857D01*
X181759428Y-98714000D01*
D10*
X172339047Y-94051428D02*
X173100952Y-94051428D01*
X172720000Y-94432380D02*
X172720000Y-93670476D01*
X181229047Y-113863428D02*
X181990952Y-113863428D01*
X181610000Y-114244380D02*
X181610000Y-113482476D01*
D11*
X156822857Y-99602857D02*
X156422857Y-99031428D01*
X156137142Y-99602857D02*
X156137142Y-98402857D01*
X156594285Y-98402857D01*
X156708571Y-98460000D01*
X156765714Y-98517142D01*
X156822857Y-98631428D01*
X156822857Y-98802857D01*
X156765714Y-98917142D01*
X156708571Y-98974285D01*
X156594285Y-99031428D01*
X156137142Y-99031428D01*
X157165714Y-98402857D02*
X157851428Y-98402857D01*
X157508571Y-99602857D02*
X157508571Y-98402857D01*
X158194285Y-99545714D02*
X158365714Y-99602857D01*
X158651428Y-99602857D01*
X158765714Y-99545714D01*
X158822857Y-99488571D01*
X158880000Y-99374285D01*
X158880000Y-99260000D01*
X158822857Y-99145714D01*
X158765714Y-99088571D01*
X158651428Y-99031428D01*
X158422857Y-98974285D01*
X158308571Y-98917142D01*
X158251428Y-98860000D01*
X158194285Y-98745714D01*
X158194285Y-98631428D01*
X158251428Y-98517142D01*
X158308571Y-98460000D01*
X158422857Y-98402857D01*
X158708571Y-98402857D01*
X158880000Y-98460000D01*
X156772000Y-102142857D02*
X156372000Y-101571428D01*
X156086285Y-102142857D02*
X156086285Y-100942857D01*
X156543428Y-100942857D01*
X156657714Y-101000000D01*
X156714857Y-101057142D01*
X156772000Y-101171428D01*
X156772000Y-101342857D01*
X156714857Y-101457142D01*
X156657714Y-101514285D01*
X156543428Y-101571428D01*
X156086285Y-101571428D01*
X157172000Y-100942857D02*
X157972000Y-102142857D01*
X157972000Y-100942857D02*
X157172000Y-102142857D01*
X180362571Y-102396857D02*
X179962571Y-101825428D01*
X179676857Y-102396857D02*
X179676857Y-101196857D01*
X180134000Y-101196857D01*
X180248285Y-101254000D01*
X180305428Y-101311142D01*
X180362571Y-101425428D01*
X180362571Y-101596857D01*
X180305428Y-101711142D01*
X180248285Y-101768285D01*
X180134000Y-101825428D01*
X179676857Y-101825428D01*
X180762571Y-101196857D02*
X181562571Y-102396857D01*
X181562571Y-101196857D02*
X180762571Y-102396857D01*
X179791142Y-103736857D02*
X180476857Y-103736857D01*
X180134000Y-104936857D02*
X180134000Y-103736857D01*
X180762571Y-103736857D02*
X181562571Y-104936857D01*
X181562571Y-103736857D02*
X180762571Y-104936857D01*
X178362571Y-107019714D02*
X179276857Y-107019714D01*
X178819714Y-107476857D02*
X178819714Y-106562571D01*
X180419714Y-106276857D02*
X179848285Y-106276857D01*
X179791142Y-106848285D01*
X179848285Y-106791142D01*
X179962571Y-106734000D01*
X180248285Y-106734000D01*
X180362571Y-106791142D01*
X180419714Y-106848285D01*
X180476857Y-106962571D01*
X180476857Y-107248285D01*
X180419714Y-107362571D01*
X180362571Y-107419714D01*
X180248285Y-107476857D01*
X179962571Y-107476857D01*
X179848285Y-107419714D01*
X179791142Y-107362571D01*
X180819714Y-106276857D02*
X181219714Y-107476857D01*
X181619714Y-106276857D01*
X179448285Y-109902571D02*
X179391142Y-109959714D01*
X179219714Y-110016857D01*
X179105428Y-110016857D01*
X178934000Y-109959714D01*
X178819714Y-109845428D01*
X178762571Y-109731142D01*
X178705428Y-109502571D01*
X178705428Y-109331142D01*
X178762571Y-109102571D01*
X178819714Y-108988285D01*
X178934000Y-108874000D01*
X179105428Y-108816857D01*
X179219714Y-108816857D01*
X179391142Y-108874000D01*
X179448285Y-108931142D01*
X179791142Y-108816857D02*
X180476857Y-108816857D01*
X180134000Y-110016857D02*
X180134000Y-108816857D01*
X180819714Y-109959714D02*
X180991142Y-110016857D01*
X181276857Y-110016857D01*
X181391142Y-109959714D01*
X181448285Y-109902571D01*
X181505428Y-109788285D01*
X181505428Y-109674000D01*
X181448285Y-109559714D01*
X181391142Y-109502571D01*
X181276857Y-109445428D01*
X181048285Y-109388285D01*
X180934000Y-109331142D01*
X180876857Y-109274000D01*
X180819714Y-109159714D01*
X180819714Y-109045428D01*
X180876857Y-108931142D01*
X180934000Y-108874000D01*
X181048285Y-108816857D01*
X181334000Y-108816857D01*
X181505428Y-108874000D01*
X179245142Y-111414000D02*
X179130857Y-111356857D01*
X178959428Y-111356857D01*
X178788000Y-111414000D01*
X178673714Y-111528285D01*
X178616571Y-111642571D01*
X178559428Y-111871142D01*
X178559428Y-112042571D01*
X178616571Y-112271142D01*
X178673714Y-112385428D01*
X178788000Y-112499714D01*
X178959428Y-112556857D01*
X179073714Y-112556857D01*
X179245142Y-112499714D01*
X179302285Y-112442571D01*
X179302285Y-112042571D01*
X179073714Y-112042571D01*
X179816571Y-112556857D02*
X179816571Y-111356857D01*
X180502285Y-112556857D01*
X180502285Y-111356857D01*
X181073714Y-112556857D02*
X181073714Y-111356857D01*
X181359428Y-111356857D01*
X181530857Y-111414000D01*
X181645142Y-111528285D01*
X181702285Y-111642571D01*
X181759428Y-111871142D01*
X181759428Y-112042571D01*
X181702285Y-112271142D01*
X181645142Y-112385428D01*
X181530857Y-112499714D01*
X181359428Y-112556857D01*
X181073714Y-112556857D01*
X156819714Y-111160000D02*
X156705428Y-111102857D01*
X156534000Y-111102857D01*
X156362571Y-111160000D01*
X156248285Y-111274285D01*
X156191142Y-111388571D01*
X156134000Y-111617142D01*
X156134000Y-111788571D01*
X156191142Y-112017142D01*
X156248285Y-112131428D01*
X156362571Y-112245714D01*
X156534000Y-112302857D01*
X156648285Y-112302857D01*
X156819714Y-112245714D01*
X156876857Y-112188571D01*
X156876857Y-111788571D01*
X156648285Y-111788571D01*
X157391142Y-112302857D02*
X157391142Y-111102857D01*
X158076857Y-112302857D01*
X158076857Y-111102857D01*
X158648285Y-112302857D02*
X158648285Y-111102857D01*
X158934000Y-111102857D01*
X159105428Y-111160000D01*
X159219714Y-111274285D01*
X159276857Y-111388571D01*
X159334000Y-111617142D01*
X159334000Y-111788571D01*
X159276857Y-112017142D01*
X159219714Y-112131428D01*
X159105428Y-112245714D01*
X158934000Y-112302857D01*
X158648285Y-112302857D01*
X156822857Y-109648571D02*
X156765714Y-109705714D01*
X156594285Y-109762857D01*
X156480000Y-109762857D01*
X156308571Y-109705714D01*
X156194285Y-109591428D01*
X156137142Y-109477142D01*
X156080000Y-109248571D01*
X156080000Y-109077142D01*
X156137142Y-108848571D01*
X156194285Y-108734285D01*
X156308571Y-108620000D01*
X156480000Y-108562857D01*
X156594285Y-108562857D01*
X156765714Y-108620000D01*
X156822857Y-108677142D01*
X157165714Y-108562857D02*
X157851428Y-108562857D01*
X157508571Y-109762857D02*
X157508571Y-108562857D01*
X158194285Y-109705714D02*
X158365714Y-109762857D01*
X158651428Y-109762857D01*
X158765714Y-109705714D01*
X158822857Y-109648571D01*
X158880000Y-109534285D01*
X158880000Y-109420000D01*
X158822857Y-109305714D01*
X158765714Y-109248571D01*
X158651428Y-109191428D01*
X158422857Y-109134285D01*
X158308571Y-109077142D01*
X158251428Y-109020000D01*
X158194285Y-108905714D01*
X158194285Y-108791428D01*
X158251428Y-108677142D01*
X158308571Y-108620000D01*
X158422857Y-108562857D01*
X158708571Y-108562857D01*
X158880000Y-108620000D01*
X156006857Y-106765714D02*
X156921142Y-106765714D01*
X156057714Y-103482857D02*
X156743428Y-103482857D01*
X156400571Y-104682857D02*
X156400571Y-103482857D01*
X157029142Y-103482857D02*
X157829142Y-104682857D01*
X157829142Y-103482857D02*
X157029142Y-104682857D01*
D12*
X165100000Y-114300000D02*
G75*
G03X165100000Y-114300000I-2540000J0D01*
G01*
X163830000Y-95758000D02*
G75*
G03X163830000Y-95758000I-2540000J0D01*
G01*
X169942000Y-110177000D02*
X171942000Y-110177000D01*
X171942000Y-112327000D02*
X169942000Y-112327000D01*
X162043000Y-101362000D02*
X162043000Y-103362000D01*
X164093000Y-103362000D02*
X164093000Y-101362000D01*
X177276000Y-100829000D02*
X175276000Y-100829000D01*
X175276000Y-102879000D02*
X177276000Y-102879000D01*
X165354000Y-99441000D02*
X165354000Y-102489000D01*
X165354000Y-102489000D02*
X172466000Y-102489000D01*
X172466000Y-102489000D02*
X172466000Y-99441000D01*
X165354000Y-96393000D02*
X165354000Y-95631000D01*
X165354000Y-95631000D02*
X166878000Y-93345000D01*
X166878000Y-93345000D02*
X170942000Y-93345000D01*
X170942000Y-93345000D02*
X172466000Y-95631000D01*
X172466000Y-95631000D02*
X172466000Y-96393000D01*
X152654000Y-110490000D02*
X152654000Y-97790000D01*
X152654000Y-97790000D02*
X155194000Y-97790000D01*
X155194000Y-97790000D02*
X155194000Y-110490000D01*
X152374000Y-113310000D02*
X152374000Y-111760000D01*
X152654000Y-110490000D02*
X155194000Y-110490000D01*
X155474000Y-111760000D02*
X155474000Y-113310000D01*
X155474000Y-113310000D02*
X152374000Y-113310000D01*
X185166000Y-100584000D02*
X185166000Y-113284000D01*
X185166000Y-113284000D02*
X182626000Y-113284000D01*
X182626000Y-113284000D02*
X182626000Y-100584000D01*
X185446000Y-97764000D02*
X185446000Y-99314000D01*
X185166000Y-100584000D02*
X182626000Y-100584000D01*
X182346000Y-99314000D02*
X182346000Y-97764000D01*
X182346000Y-97764000D02*
X185446000Y-97764000D01*
X170747000Y-114824000D02*
X170747000Y-116824000D01*
X168597000Y-116824000D02*
X168597000Y-114824000D01*
X177859000Y-114824000D02*
X177859000Y-116824000D01*
X175709000Y-116824000D02*
X175709000Y-114824000D01*
X175802000Y-98057860D02*
X175802000Y-94457860D01*
X173702000Y-98057860D02*
X173702000Y-94457860D01*
X174452000Y-96007860D02*
X175052000Y-96007860D01*
X175052000Y-96007860D02*
X174752000Y-96307860D01*
X174752000Y-96307860D02*
X174552000Y-96107860D01*
X174552000Y-96107860D02*
X174802000Y-96107860D01*
X174802000Y-96107860D02*
X174752000Y-96157860D01*
X174252000Y-96407860D02*
X175252000Y-96407860D01*
X174752000Y-95907860D02*
X174752000Y-95407860D01*
X174752000Y-96407860D02*
X174252000Y-95907860D01*
X174252000Y-95907860D02*
X175252000Y-95907860D01*
X175252000Y-95907860D02*
X174752000Y-96407860D01*
X173770000Y-117869860D02*
X173770000Y-114269860D01*
X171670000Y-117869860D02*
X171670000Y-114269860D01*
X172420000Y-115819860D02*
X173020000Y-115819860D01*
X173020000Y-115819860D02*
X172720000Y-116119860D01*
X172720000Y-116119860D02*
X172520000Y-115919860D01*
X172520000Y-115919860D02*
X172770000Y-115919860D01*
X172770000Y-115919860D02*
X172720000Y-115969860D01*
X172220000Y-116219860D02*
X173220000Y-116219860D01*
X172720000Y-115719860D02*
X172720000Y-115219860D01*
X172720000Y-116219860D02*
X172220000Y-115719860D01*
X172220000Y-115719860D02*
X173220000Y-115719860D01*
X173220000Y-115719860D02*
X172720000Y-116219860D01*
X180882000Y-117869860D02*
X180882000Y-114269860D01*
X178782000Y-117869860D02*
X178782000Y-114269860D01*
X179532000Y-115819860D02*
X180132000Y-115819860D01*
X180132000Y-115819860D02*
X179832000Y-116119860D01*
X179832000Y-116119860D02*
X179632000Y-115919860D01*
X179632000Y-115919860D02*
X179882000Y-115919860D01*
X179882000Y-115919860D02*
X179832000Y-115969860D01*
X179332000Y-116219860D02*
X180332000Y-116219860D01*
X179832000Y-115719860D02*
X179832000Y-115219860D01*
X179832000Y-116219860D02*
X179332000Y-115719860D01*
X179332000Y-115719860D02*
X180332000Y-115719860D01*
X180332000Y-115719860D02*
X179832000Y-116219860D01*
X168253210Y-105156000D02*
G75*
G03X168253210Y-105156000I-359210J0D01*
G01*
X166839000Y-104055000D02*
X166839000Y-104180000D01*
X171489000Y-104055000D02*
X171489000Y-104280000D01*
X171489000Y-109305000D02*
X171489000Y-109080000D01*
X166839000Y-109305000D02*
X166839000Y-109080000D01*
X166839000Y-104055000D02*
X171489000Y-104055000D01*
X166839000Y-109305000D02*
X171489000Y-109305000D01*
X166839000Y-104180000D02*
X165489000Y-104180000D01*
X179383000Y-94938000D02*
X179383000Y-96938000D01*
X177233000Y-96938000D02*
X177233000Y-94938000D01*
D10*
X170825333Y-111568666D02*
X170592000Y-111235333D01*
X170425333Y-111568666D02*
X170425333Y-110868666D01*
X170692000Y-110868666D01*
X170758666Y-110902000D01*
X170792000Y-110935333D01*
X170825333Y-111002000D01*
X170825333Y-111102000D01*
X170792000Y-111168666D01*
X170758666Y-111202000D01*
X170692000Y-111235333D01*
X170425333Y-111235333D01*
X171492000Y-111568666D02*
X171092000Y-111568666D01*
X171292000Y-111568666D02*
X171292000Y-110868666D01*
X171225333Y-110968666D01*
X171158666Y-111035333D01*
X171092000Y-111068666D01*
X174232666Y-111335333D02*
X174232666Y-111735333D01*
X174232666Y-111535333D02*
X173532666Y-111535333D01*
X173632666Y-111602000D01*
X173699333Y-111668666D01*
X173732666Y-111735333D01*
X174232666Y-111035333D02*
X173532666Y-111035333D01*
X173966000Y-110968666D02*
X174232666Y-110768666D01*
X173766000Y-110768666D02*
X174032666Y-111035333D01*
X162951333Y-99818000D02*
X162918000Y-99851333D01*
X162818000Y-99884666D01*
X162751333Y-99884666D01*
X162651333Y-99851333D01*
X162584666Y-99784666D01*
X162551333Y-99718000D01*
X162518000Y-99584666D01*
X162518000Y-99484666D01*
X162551333Y-99351333D01*
X162584666Y-99284666D01*
X162651333Y-99218000D01*
X162751333Y-99184666D01*
X162818000Y-99184666D01*
X162918000Y-99218000D01*
X162951333Y-99251333D01*
X163618000Y-99884666D02*
X163218000Y-99884666D01*
X163418000Y-99884666D02*
X163418000Y-99184666D01*
X163351333Y-99284666D01*
X163284666Y-99351333D01*
X163218000Y-99384666D01*
X160652666Y-103308000D02*
X160652666Y-103241333D01*
X160686000Y-103174666D01*
X160719333Y-103141333D01*
X160786000Y-103108000D01*
X160919333Y-103074666D01*
X161086000Y-103074666D01*
X161219333Y-103108000D01*
X161286000Y-103141333D01*
X161319333Y-103174666D01*
X161352666Y-103241333D01*
X161352666Y-103308000D01*
X161319333Y-103374666D01*
X161286000Y-103408000D01*
X161219333Y-103441333D01*
X161086000Y-103474666D01*
X160919333Y-103474666D01*
X160786000Y-103441333D01*
X160719333Y-103408000D01*
X160686000Y-103374666D01*
X160652666Y-103308000D01*
X161286000Y-102774666D02*
X161319333Y-102741333D01*
X161352666Y-102774666D01*
X161319333Y-102808000D01*
X161286000Y-102774666D01*
X161352666Y-102774666D01*
X161352666Y-102074666D02*
X161352666Y-102474666D01*
X161352666Y-102274666D02*
X160652666Y-102274666D01*
X160752666Y-102341333D01*
X160819333Y-102408000D01*
X160852666Y-102474666D01*
X160886000Y-101774666D02*
X161586000Y-101774666D01*
X161252666Y-101441333D02*
X161319333Y-101408000D01*
X161352666Y-101341333D01*
X161252666Y-101774666D02*
X161319333Y-101741333D01*
X161352666Y-101674666D01*
X161352666Y-101541333D01*
X161319333Y-101474666D01*
X161252666Y-101441333D01*
X160886000Y-101441333D01*
X160986000Y-100808000D02*
X160986000Y-101041333D01*
X161352666Y-101041333D02*
X160652666Y-101041333D01*
X160652666Y-100708000D01*
X174254333Y-104009000D02*
X174221000Y-104042333D01*
X174121000Y-104075666D01*
X174054333Y-104075666D01*
X173954333Y-104042333D01*
X173887666Y-103975666D01*
X173854333Y-103909000D01*
X173821000Y-103775666D01*
X173821000Y-103675666D01*
X173854333Y-103542333D01*
X173887666Y-103475666D01*
X173954333Y-103409000D01*
X174054333Y-103375666D01*
X174121000Y-103375666D01*
X174221000Y-103409000D01*
X174254333Y-103442333D01*
X174521000Y-103442333D02*
X174554333Y-103409000D01*
X174621000Y-103375666D01*
X174787666Y-103375666D01*
X174854333Y-103409000D01*
X174887666Y-103442333D01*
X174921000Y-103509000D01*
X174921000Y-103575666D01*
X174887666Y-103675666D01*
X174487666Y-104075666D01*
X174921000Y-104075666D01*
X175965000Y-103375666D02*
X176031666Y-103375666D01*
X176098333Y-103409000D01*
X176131666Y-103442333D01*
X176165000Y-103509000D01*
X176198333Y-103642333D01*
X176198333Y-103809000D01*
X176165000Y-103942333D01*
X176131666Y-104009000D01*
X176098333Y-104042333D01*
X176031666Y-104075666D01*
X175965000Y-104075666D01*
X175898333Y-104042333D01*
X175865000Y-104009000D01*
X175831666Y-103942333D01*
X175798333Y-103809000D01*
X175798333Y-103642333D01*
X175831666Y-103509000D01*
X175865000Y-103442333D01*
X175898333Y-103409000D01*
X175965000Y-103375666D01*
X176498333Y-104009000D02*
X176531666Y-104042333D01*
X176498333Y-104075666D01*
X176465000Y-104042333D01*
X176498333Y-104009000D01*
X176498333Y-104075666D01*
X177198333Y-104075666D02*
X176798333Y-104075666D01*
X176998333Y-104075666D02*
X176998333Y-103375666D01*
X176931666Y-103475666D01*
X176865000Y-103542333D01*
X176798333Y-103575666D01*
X177498333Y-103609000D02*
X177498333Y-104309000D01*
X177831666Y-103975666D02*
X177865000Y-104042333D01*
X177931666Y-104075666D01*
X177498333Y-103975666D02*
X177531666Y-104042333D01*
X177598333Y-104075666D01*
X177731666Y-104075666D01*
X177798333Y-104042333D01*
X177831666Y-103975666D01*
X177831666Y-103609000D01*
X178465000Y-103709000D02*
X178231666Y-103709000D01*
X178231666Y-104075666D02*
X178231666Y-103375666D01*
X178565000Y-103375666D01*
D12*
X166743333Y-99131380D02*
X166267142Y-99131380D01*
X166267142Y-98131380D01*
X167076666Y-99131380D02*
X167076666Y-98131380D01*
X167410000Y-98845666D01*
X167743333Y-98131380D01*
X167743333Y-99131380D01*
X168743333Y-99131380D02*
X168171904Y-99131380D01*
X168457619Y-99131380D02*
X168457619Y-98131380D01*
X168362380Y-98274238D01*
X168267142Y-98369476D01*
X168171904Y-98417095D01*
X169695714Y-99131380D02*
X169124285Y-99131380D01*
X169410000Y-99131380D02*
X169410000Y-98131380D01*
X169314761Y-98274238D01*
X169219523Y-98369476D01*
X169124285Y-98417095D01*
X170648095Y-99131380D02*
X170076666Y-99131380D01*
X170362380Y-99131380D02*
X170362380Y-98131380D01*
X170267142Y-98274238D01*
X170171904Y-98369476D01*
X170076666Y-98417095D01*
X170981428Y-98131380D02*
X171648095Y-98131380D01*
X171219523Y-99131380D01*
X152209809Y-94916761D02*
X153447904Y-94916761D01*
X152781238Y-95678666D01*
X153066952Y-95678666D01*
X153257428Y-95773904D01*
X153352666Y-95869142D01*
X153447904Y-96059619D01*
X153447904Y-96535809D01*
X153352666Y-96726285D01*
X153257428Y-96821523D01*
X153066952Y-96916761D01*
X152495523Y-96916761D01*
X152305047Y-96821523D01*
X152209809Y-96726285D01*
X154019333Y-94916761D02*
X154686000Y-96916761D01*
X155352666Y-94916761D01*
X155828857Y-94916761D02*
X157066952Y-94916761D01*
X156400285Y-95678666D01*
X156686000Y-95678666D01*
X156876476Y-95773904D01*
X156971714Y-95869142D01*
X157066952Y-96059619D01*
X157066952Y-96535809D01*
X156971714Y-96726285D01*
X156876476Y-96821523D01*
X156686000Y-96916761D01*
X156114571Y-96916761D01*
X155924095Y-96821523D01*
X155828857Y-96726285D01*
X183769047Y-95170761D02*
X182816666Y-95170761D01*
X182721428Y-96123142D01*
X182816666Y-96027904D01*
X183007142Y-95932666D01*
X183483333Y-95932666D01*
X183673809Y-96027904D01*
X183769047Y-96123142D01*
X183864285Y-96313619D01*
X183864285Y-96789809D01*
X183769047Y-96980285D01*
X183673809Y-97075523D01*
X183483333Y-97170761D01*
X183007142Y-97170761D01*
X182816666Y-97075523D01*
X182721428Y-96980285D01*
X184435714Y-95170761D02*
X185102380Y-97170761D01*
X185769047Y-95170761D01*
D10*
X169988666Y-115940666D02*
X169655333Y-116174000D01*
X169988666Y-116340666D02*
X169288666Y-116340666D01*
X169288666Y-116074000D01*
X169322000Y-116007333D01*
X169355333Y-115974000D01*
X169422000Y-115940666D01*
X169522000Y-115940666D01*
X169588666Y-115974000D01*
X169622000Y-116007333D01*
X169655333Y-116074000D01*
X169655333Y-116340666D01*
X169288666Y-115707333D02*
X169288666Y-115274000D01*
X169555333Y-115507333D01*
X169555333Y-115407333D01*
X169588666Y-115340666D01*
X169622000Y-115307333D01*
X169688666Y-115274000D01*
X169855333Y-115274000D01*
X169922000Y-115307333D01*
X169955333Y-115340666D01*
X169988666Y-115407333D01*
X169988666Y-115607333D01*
X169955333Y-115674000D01*
X169922000Y-115707333D01*
X177100666Y-115940666D02*
X176767333Y-116174000D01*
X177100666Y-116340666D02*
X176400666Y-116340666D01*
X176400666Y-116074000D01*
X176434000Y-116007333D01*
X176467333Y-115974000D01*
X176534000Y-115940666D01*
X176634000Y-115940666D01*
X176700666Y-115974000D01*
X176734000Y-116007333D01*
X176767333Y-116074000D01*
X176767333Y-116340666D01*
X176634000Y-115340666D02*
X177100666Y-115340666D01*
X176367333Y-115507333D02*
X176867333Y-115674000D01*
X176867333Y-115240666D01*
X173418666Y-99766380D02*
X173418666Y-98766380D01*
X173799619Y-98766380D01*
X173894857Y-98814000D01*
X173942476Y-98861619D01*
X173990095Y-98956857D01*
X173990095Y-99099714D01*
X173942476Y-99194952D01*
X173894857Y-99242571D01*
X173799619Y-99290190D01*
X173418666Y-99290190D01*
X174323428Y-98766380D02*
X174561523Y-99766380D01*
X174752000Y-99052095D01*
X174942476Y-99766380D01*
X175180571Y-98766380D01*
X176132952Y-99766380D02*
X175799619Y-99290190D01*
X175561523Y-99766380D02*
X175561523Y-98766380D01*
X175942476Y-98766380D01*
X176037714Y-98814000D01*
X176085333Y-98861619D01*
X176132952Y-98956857D01*
X176132952Y-99099714D01*
X176085333Y-99194952D01*
X176037714Y-99242571D01*
X175942476Y-99290190D01*
X175561523Y-99290190D01*
D12*
X175172380Y-115886526D02*
X174696190Y-116219860D01*
X175172380Y-116457955D02*
X174172380Y-116457955D01*
X174172380Y-116077002D01*
X174220000Y-115981764D01*
X174267619Y-115934145D01*
X174362857Y-115886526D01*
X174505714Y-115886526D01*
X174600952Y-115934145D01*
X174648571Y-115981764D01*
X174696190Y-116077002D01*
X174696190Y-116457955D01*
X174172380Y-115553193D02*
X175172380Y-114886526D01*
X174172380Y-114886526D02*
X175172380Y-115553193D01*
X181284380Y-116481764D02*
X181284380Y-115910336D01*
X182284380Y-116196050D02*
X181284380Y-116196050D01*
X181284380Y-115672240D02*
X182284380Y-115005574D01*
X181284380Y-115005574D02*
X182284380Y-115672240D01*
D10*
X169034666Y-108896666D02*
X169034666Y-108496666D01*
X169734666Y-108696666D02*
X169034666Y-108696666D01*
X169034666Y-108330000D02*
X169734666Y-107863333D01*
X169034666Y-107863333D02*
X169734666Y-108330000D01*
X169368000Y-107363333D02*
X169401333Y-107263333D01*
X169434666Y-107230000D01*
X169501333Y-107196666D01*
X169601333Y-107196666D01*
X169668000Y-107230000D01*
X169701333Y-107263333D01*
X169734666Y-107330000D01*
X169734666Y-107596666D01*
X169034666Y-107596666D01*
X169034666Y-107363333D01*
X169068000Y-107296666D01*
X169101333Y-107263333D01*
X169168000Y-107230000D01*
X169234666Y-107230000D01*
X169301333Y-107263333D01*
X169334666Y-107296666D01*
X169368000Y-107363333D01*
X169368000Y-107596666D01*
X169034666Y-106763333D02*
X169034666Y-106696666D01*
X169068000Y-106630000D01*
X169101333Y-106596666D01*
X169168000Y-106563333D01*
X169301333Y-106530000D01*
X169468000Y-106530000D01*
X169601333Y-106563333D01*
X169668000Y-106596666D01*
X169701333Y-106630000D01*
X169734666Y-106696666D01*
X169734666Y-106763333D01*
X169701333Y-106830000D01*
X169668000Y-106863333D01*
X169601333Y-106896666D01*
X169468000Y-106930000D01*
X169301333Y-106930000D01*
X169168000Y-106896666D01*
X169101333Y-106863333D01*
X169068000Y-106830000D01*
X169034666Y-106763333D01*
X169734666Y-105863333D02*
X169734666Y-106263333D01*
X169734666Y-106063333D02*
X169034666Y-106063333D01*
X169134666Y-106130000D01*
X169201333Y-106196666D01*
X169234666Y-106263333D01*
X169034666Y-105430000D02*
X169034666Y-105363333D01*
X169068000Y-105296666D01*
X169101333Y-105263333D01*
X169168000Y-105230000D01*
X169301333Y-105196666D01*
X169468000Y-105196666D01*
X169601333Y-105230000D01*
X169668000Y-105263333D01*
X169701333Y-105296666D01*
X169734666Y-105363333D01*
X169734666Y-105430000D01*
X169701333Y-105496666D01*
X169668000Y-105530000D01*
X169601333Y-105563333D01*
X169468000Y-105596666D01*
X169301333Y-105596666D01*
X169168000Y-105563333D01*
X169101333Y-105530000D01*
X169068000Y-105496666D01*
X169034666Y-105430000D01*
X169268000Y-104596666D02*
X169734666Y-104596666D01*
X169001333Y-104763333D02*
X169501333Y-104930000D01*
X169501333Y-104496666D01*
X178191333Y-96328666D02*
X177958000Y-95995333D01*
X177791333Y-96328666D02*
X177791333Y-95628666D01*
X178058000Y-95628666D01*
X178124666Y-95662000D01*
X178158000Y-95695333D01*
X178191333Y-95762000D01*
X178191333Y-95862000D01*
X178158000Y-95928666D01*
X178124666Y-95962000D01*
X178058000Y-95995333D01*
X177791333Y-95995333D01*
X178458000Y-95695333D02*
X178491333Y-95662000D01*
X178558000Y-95628666D01*
X178724666Y-95628666D01*
X178791333Y-95662000D01*
X178824666Y-95695333D01*
X178858000Y-95762000D01*
X178858000Y-95828666D01*
X178824666Y-95928666D01*
X178424666Y-96328666D01*
X178858000Y-96328666D01*
X180190000Y-96471333D02*
X180656666Y-96471333D01*
X179923333Y-96638000D02*
X180423333Y-96804666D01*
X180423333Y-96371333D01*
X179956666Y-96171333D02*
X179956666Y-95704666D01*
X180656666Y-96004666D01*
X179956666Y-95304666D02*
X179956666Y-95238000D01*
X179990000Y-95171333D01*
X180023333Y-95138000D01*
X180090000Y-95104666D01*
X180223333Y-95071333D01*
X180390000Y-95071333D01*
X180523333Y-95104666D01*
X180590000Y-95138000D01*
X180623333Y-95171333D01*
X180656666Y-95238000D01*
X180656666Y-95304666D01*
X180623333Y-95371333D01*
X180590000Y-95404666D01*
X180523333Y-95438000D01*
X180390000Y-95471333D01*
X180223333Y-95471333D01*
X180090000Y-95438000D01*
X180023333Y-95404666D01*
X179990000Y-95371333D01*
X179956666Y-95304666D01*
M02*
