M48
;DRILL file {KiCad 4.0.2-stable} date Sunday, 27 May 2018 'pmt' 21:04:31
;FORMAT={-:-/ absolute / metric / decimal}
FMAT,2
METRIC,TZ
T1C0.381
T2C0.400
T3C1.016
%
G90
G05
M71
T1
X170.688Y-113.284
X177.292Y-115.824
X177.8Y-106.045
X177.8Y-108.204
X179.832Y-112.776
X181.864Y-106.68
T2
X163.068Y-114.3
X165.1Y-101.6
X167.005Y-97.79
X168.91Y-109.22
X177.165Y-104.14
X179.705Y-100.33
X181.61Y-104.14
X181.864Y-94.488
T3
X153.67Y-99.06
X153.67Y-101.6
X153.67Y-104.14
X153.67Y-106.68
X153.67Y-109.22
X153.67Y-111.76
X184.15Y-99.06
X184.15Y-101.6
X184.15Y-104.14
X184.15Y-106.68
X184.15Y-109.22
X184.15Y-111.76
T0
M30
