G04 #@! TF.GenerationSoftware,KiCad,Pcbnew,(5.1.2-1)-1*
G04 #@! TF.CreationDate,2019-06-06T15:18:08+02:00*
G04 #@! TF.ProjectId,Level Shifter,4c657665-6c20-4536-9869-667465722e6b,rev?*
G04 #@! TF.SameCoordinates,Original*
G04 #@! TF.FileFunction,Copper,L1,Top*
G04 #@! TF.FilePolarity,Positive*
%FSLAX46Y46*%
G04 Gerber Fmt 4.6, Leading zero omitted, Abs format (unit mm)*
G04 Created by KiCad (PCBNEW (5.1.2-1)-1) date 2019-06-06 15:18:08*
%MOMM*%
%LPD*%
G04 APERTURE LIST*
%ADD10C,5.000000*%
%ADD11R,0.900000X1.700000*%
%ADD12R,1.600000X1.000000*%
%ADD13R,1.000000X1.600000*%
%ADD14R,3.657600X2.032000*%
%ADD15R,1.016000X2.032000*%
%ADD16R,2.032000X1.727200*%
%ADD17O,2.032000X1.727200*%
%ADD18R,1.700000X0.900000*%
%ADD19R,1.800860X1.597660*%
%ADD20R,1.450000X0.350000*%
%ADD21C,0.635000*%
%ADD22C,0.381000*%
%ADD23C,0.254000*%
%ADD24C,0.350000*%
G04 APERTURE END LIST*
D10*
X162560000Y-114300000D03*
X161290000Y-95758000D03*
D11*
X172392000Y-111252000D03*
X169492000Y-111252000D03*
D12*
X162814000Y-102846000D03*
X162814000Y-99846000D03*
D13*
X174395000Y-100965000D03*
X177395000Y-100965000D03*
D14*
X168910000Y-94615000D03*
D15*
X168910000Y-101219000D03*
X171196000Y-101219000D03*
X166624000Y-101219000D03*
D16*
X153924000Y-111760000D03*
D17*
X153924000Y-109220000D03*
X153924000Y-106680000D03*
X153924000Y-104140000D03*
X153924000Y-101600000D03*
X153924000Y-99060000D03*
D16*
X183896000Y-99314000D03*
D17*
X183896000Y-101854000D03*
X183896000Y-104394000D03*
X183896000Y-106934000D03*
X183896000Y-109474000D03*
X183896000Y-112014000D03*
D18*
X169672000Y-117274000D03*
X169672000Y-114374000D03*
X176784000Y-117274000D03*
X176784000Y-114374000D03*
D19*
X174752000Y-94488000D03*
X174752000Y-97327720D03*
X172720000Y-114300000D03*
X172720000Y-117139720D03*
X179832000Y-114300000D03*
X179832000Y-117139720D03*
D20*
X166214000Y-104730000D03*
X166214000Y-105380000D03*
X166214000Y-106030000D03*
X166214000Y-106680000D03*
X166214000Y-107330000D03*
X166214000Y-107980000D03*
X166214000Y-108630000D03*
X172114000Y-108630000D03*
X172114000Y-107980000D03*
X172114000Y-107330000D03*
X172114000Y-106680000D03*
X172114000Y-106030000D03*
X172114000Y-105380000D03*
X172114000Y-104730000D03*
D18*
X178308000Y-97388000D03*
X178308000Y-94488000D03*
D21*
X167005000Y-97790000D03*
X180340000Y-94488000D03*
X164338000Y-108712000D03*
X167386000Y-114300000D03*
X177292000Y-113030000D03*
X178816000Y-99822000D03*
X164592000Y-98552000D03*
X173990000Y-105156000D03*
X174498000Y-105991003D03*
X175006000Y-107324500D03*
X174498000Y-114046000D03*
X176530000Y-110490000D03*
X175768000Y-106680000D03*
X179832000Y-108458000D03*
X173990000Y-107442000D03*
D22*
X168910000Y-103140000D02*
X168910000Y-102616000D01*
X167320000Y-104730000D02*
X168910000Y-103140000D01*
X166214000Y-104730000D02*
X167320000Y-104730000D01*
X168910000Y-102616000D02*
X168910000Y-101219000D01*
X166214000Y-104174000D02*
X166214000Y-104730000D01*
X164886000Y-102846000D02*
X166214000Y-104174000D01*
X162814000Y-102846000D02*
X164886000Y-102846000D01*
X168910000Y-101727000D02*
X168910000Y-101219000D01*
X168402000Y-102870000D02*
X168910000Y-101727000D01*
X162814000Y-102846000D02*
X168402000Y-102870000D01*
X166624000Y-101219000D02*
X166624000Y-98171000D01*
X166624000Y-98171000D02*
X167005000Y-97790000D01*
D23*
X183997600Y-111760000D02*
X184150000Y-111760000D01*
D22*
X178308000Y-94488000D02*
X180340000Y-94488000D01*
X164420000Y-108630000D02*
X164338000Y-108712000D01*
X166214000Y-108630000D02*
X164420000Y-108630000D01*
X167460000Y-114374000D02*
X167386000Y-114300000D01*
X169672000Y-114374000D02*
X167460000Y-114374000D01*
X176784000Y-113538000D02*
X177292000Y-113030000D01*
X176784000Y-114374000D02*
X176784000Y-113538000D01*
X177484437Y-100137563D02*
X177395000Y-100965000D01*
X178816000Y-99822000D02*
X177484437Y-100137563D01*
X162814000Y-99846000D02*
X164592000Y-98552000D01*
X177120000Y-104095000D02*
X177165000Y-104140000D01*
X172114000Y-104730000D02*
X170098000Y-104730000D01*
X170098000Y-104730000D02*
X171196000Y-103632000D01*
X171196000Y-103632000D02*
X171196000Y-101219000D01*
X174395000Y-102146000D02*
X174395000Y-100965000D01*
X173220000Y-104730000D02*
X174395000Y-103555000D01*
X174395000Y-103555000D02*
X174395000Y-102146000D01*
X172114000Y-104730000D02*
X173220000Y-104730000D01*
D23*
X178247720Y-97327720D02*
X178308000Y-97388000D01*
D24*
X174752000Y-97327720D02*
X178247720Y-97327720D01*
D23*
X165235000Y-107330000D02*
X166214000Y-107330000D01*
X159116000Y-107330000D02*
X165235000Y-107330000D01*
X154076400Y-109220000D02*
X159116000Y-107330000D01*
X153924000Y-109220000D02*
X154076400Y-109220000D01*
X159258000Y-106680000D02*
X165235000Y-106680000D01*
X165235000Y-106680000D02*
X166214000Y-106680000D01*
X154076400Y-104140000D02*
X159258000Y-106680000D01*
X153924000Y-104140000D02*
X154076400Y-104140000D01*
X165235000Y-106030000D02*
X166214000Y-106030000D01*
X155194000Y-101600000D02*
X159624000Y-106030000D01*
X159624000Y-106030000D02*
X165235000Y-106030000D01*
X153924000Y-101600000D02*
X155194000Y-101600000D01*
X165235000Y-105380000D02*
X166214000Y-105380000D01*
X160396400Y-105380000D02*
X165235000Y-105380000D01*
X154076400Y-99060000D02*
X160396400Y-105380000D01*
X153924000Y-99060000D02*
X154076400Y-99060000D01*
X172114000Y-108630000D02*
X169492000Y-111252000D01*
X173766000Y-105380000D02*
X173990000Y-105156000D01*
X172114000Y-105380000D02*
X173766000Y-105380000D01*
X182880000Y-101600000D02*
X184150000Y-101600000D01*
X173951003Y-106030000D02*
X172114000Y-106030000D01*
X174498000Y-105991003D02*
X173951003Y-106030000D01*
X174244000Y-114300000D02*
X174498000Y-114046000D01*
X172720000Y-114300000D02*
X174244000Y-114300000D01*
X176530000Y-108848500D02*
X175006000Y-107324500D01*
X176530000Y-110490000D02*
X176530000Y-108848500D01*
X172114000Y-106680000D02*
X175768000Y-106680000D01*
X179832000Y-114300000D02*
X179832000Y-108458000D01*
X173878000Y-107330000D02*
X173990000Y-107442000D01*
X172114000Y-107330000D02*
X173878000Y-107330000D01*
X169806280Y-117139720D02*
X169672000Y-117274000D01*
X172720000Y-117139720D02*
X169806280Y-117139720D01*
X176918280Y-117139720D02*
X176784000Y-117274000D01*
X179832000Y-117139720D02*
X176918280Y-117139720D01*
G36*
X160375554Y-92743476D02*
G01*
X159805021Y-92979799D01*
X159291554Y-93322886D01*
X158854886Y-93759554D01*
X158511799Y-94273021D01*
X158275476Y-94843554D01*
X158155000Y-95449229D01*
X158155000Y-96066771D01*
X158275476Y-96672446D01*
X158511799Y-97242979D01*
X158854886Y-97756446D01*
X159291554Y-98193114D01*
X159805021Y-98536201D01*
X160375554Y-98772524D01*
X160981229Y-98893000D01*
X161565027Y-98893000D01*
X161562815Y-98894815D01*
X161483463Y-98991506D01*
X161424498Y-99101820D01*
X161388188Y-99221518D01*
X161375928Y-99346000D01*
X161375928Y-100346000D01*
X161388188Y-100470482D01*
X161424498Y-100590180D01*
X161483463Y-100700494D01*
X161562815Y-100797185D01*
X161659506Y-100876537D01*
X161769820Y-100935502D01*
X161889518Y-100971812D01*
X162014000Y-100984072D01*
X163614000Y-100984072D01*
X163738482Y-100971812D01*
X163858180Y-100935502D01*
X163968494Y-100876537D01*
X164065185Y-100797185D01*
X164144537Y-100700494D01*
X164203502Y-100590180D01*
X164239812Y-100470482D01*
X164252072Y-100346000D01*
X164252072Y-99820371D01*
X164686194Y-99504424D01*
X164869834Y-99467896D01*
X165043178Y-99396095D01*
X165199184Y-99291855D01*
X165331855Y-99159184D01*
X165436095Y-99003178D01*
X165507896Y-98829834D01*
X165544500Y-98645813D01*
X165544500Y-98458187D01*
X165507896Y-98274166D01*
X165436095Y-98100822D01*
X165331855Y-97944816D01*
X165199184Y-97812145D01*
X165043178Y-97707905D01*
X164869834Y-97636104D01*
X164685813Y-97599500D01*
X164498187Y-97599500D01*
X164314166Y-97636104D01*
X164140822Y-97707905D01*
X163984816Y-97812145D01*
X163852145Y-97944816D01*
X163747905Y-98100822D01*
X163721506Y-98164555D01*
X162974893Y-98707928D01*
X162360394Y-98707928D01*
X162774979Y-98536201D01*
X163288446Y-98193114D01*
X163725114Y-97756446D01*
X164068201Y-97242979D01*
X164304524Y-96672446D01*
X164425000Y-96066771D01*
X164425000Y-95449229D01*
X164304524Y-94843554D01*
X164068201Y-94273021D01*
X163725114Y-93759554D01*
X163564560Y-93599000D01*
X166443128Y-93599000D01*
X166443128Y-95631000D01*
X166455388Y-95755482D01*
X166491698Y-95875180D01*
X166550663Y-95985494D01*
X166630015Y-96082185D01*
X166726706Y-96161537D01*
X166837020Y-96220502D01*
X166956718Y-96256812D01*
X167081200Y-96269072D01*
X170738800Y-96269072D01*
X170863282Y-96256812D01*
X170982980Y-96220502D01*
X171093294Y-96161537D01*
X171189985Y-96082185D01*
X171269337Y-95985494D01*
X171328302Y-95875180D01*
X171364612Y-95755482D01*
X171376872Y-95631000D01*
X171376872Y-95286830D01*
X173213498Y-95286830D01*
X173225758Y-95411312D01*
X173262068Y-95531010D01*
X173321033Y-95641324D01*
X173400385Y-95738015D01*
X173497076Y-95817367D01*
X173607390Y-95876332D01*
X173711324Y-95907860D01*
X173607390Y-95939388D01*
X173497076Y-95998353D01*
X173400385Y-96077705D01*
X173321033Y-96174396D01*
X173262068Y-96284710D01*
X173225758Y-96404408D01*
X173213498Y-96528890D01*
X173213498Y-98126550D01*
X173225758Y-98251032D01*
X173262068Y-98370730D01*
X173321033Y-98481044D01*
X173400385Y-98577735D01*
X173497076Y-98657087D01*
X173607390Y-98716052D01*
X173727088Y-98752362D01*
X173851570Y-98764622D01*
X175652430Y-98764622D01*
X175776912Y-98752362D01*
X175896610Y-98716052D01*
X176006924Y-98657087D01*
X176103615Y-98577735D01*
X176182967Y-98481044D01*
X176241932Y-98370730D01*
X176278242Y-98251032D01*
X176289402Y-98137720D01*
X176898185Y-98137720D01*
X176927463Y-98192494D01*
X177006815Y-98289185D01*
X177103506Y-98368537D01*
X177213820Y-98427502D01*
X177333518Y-98463812D01*
X177458000Y-98476072D01*
X179158000Y-98476072D01*
X179282482Y-98463812D01*
X179402180Y-98427502D01*
X179512494Y-98368537D01*
X179609185Y-98289185D01*
X179688537Y-98192494D01*
X179747502Y-98082180D01*
X179783812Y-97962482D01*
X179796072Y-97838000D01*
X179796072Y-96938000D01*
X179783812Y-96813518D01*
X179747502Y-96693820D01*
X179688537Y-96583506D01*
X179609185Y-96486815D01*
X179512494Y-96407463D01*
X179402180Y-96348498D01*
X179282482Y-96312188D01*
X179158000Y-96299928D01*
X177458000Y-96299928D01*
X177333518Y-96312188D01*
X177213820Y-96348498D01*
X177103506Y-96407463D01*
X177006815Y-96486815D01*
X176981452Y-96517720D01*
X176289402Y-96517720D01*
X176278242Y-96404408D01*
X176241932Y-96284710D01*
X176182967Y-96174396D01*
X176103615Y-96077705D01*
X176006924Y-95998353D01*
X175896610Y-95939388D01*
X175792676Y-95907860D01*
X175896610Y-95876332D01*
X176006924Y-95817367D01*
X176103615Y-95738015D01*
X176182967Y-95641324D01*
X176241932Y-95531010D01*
X176278242Y-95411312D01*
X176290502Y-95286830D01*
X176287430Y-94773750D01*
X176128680Y-94615000D01*
X174879000Y-94615000D01*
X174879000Y-94635000D01*
X174625000Y-94635000D01*
X174625000Y-94615000D01*
X173375320Y-94615000D01*
X173216570Y-94773750D01*
X173213498Y-95286830D01*
X171376872Y-95286830D01*
X171376872Y-93689170D01*
X173213498Y-93689170D01*
X173216570Y-94202250D01*
X173375320Y-94361000D01*
X174625000Y-94361000D01*
X174625000Y-93212920D01*
X174879000Y-93212920D01*
X174879000Y-94361000D01*
X176128680Y-94361000D01*
X176287430Y-94202250D01*
X176288413Y-94038000D01*
X176819928Y-94038000D01*
X176819928Y-94938000D01*
X176832188Y-95062482D01*
X176868498Y-95182180D01*
X176927463Y-95292494D01*
X177006815Y-95389185D01*
X177103506Y-95468537D01*
X177213820Y-95527502D01*
X177333518Y-95563812D01*
X177458000Y-95576072D01*
X179158000Y-95576072D01*
X179282482Y-95563812D01*
X179402180Y-95527502D01*
X179512494Y-95468537D01*
X179609185Y-95389185D01*
X179671298Y-95313500D01*
X179860993Y-95313500D01*
X179888822Y-95332095D01*
X180062166Y-95403896D01*
X180246187Y-95440500D01*
X180433813Y-95440500D01*
X180617834Y-95403896D01*
X180791178Y-95332095D01*
X180947184Y-95227855D01*
X181079855Y-95095184D01*
X181184095Y-94939178D01*
X181255896Y-94765834D01*
X181292500Y-94581813D01*
X181292500Y-94394187D01*
X181255896Y-94210166D01*
X181184095Y-94036822D01*
X181079855Y-93880816D01*
X180947184Y-93748145D01*
X180791178Y-93643905D01*
X180617834Y-93572104D01*
X180433813Y-93535500D01*
X180246187Y-93535500D01*
X180062166Y-93572104D01*
X179888822Y-93643905D01*
X179860993Y-93662500D01*
X179671298Y-93662500D01*
X179609185Y-93586815D01*
X179512494Y-93507463D01*
X179402180Y-93448498D01*
X179282482Y-93412188D01*
X179158000Y-93399928D01*
X177458000Y-93399928D01*
X177333518Y-93412188D01*
X177213820Y-93448498D01*
X177103506Y-93507463D01*
X177006815Y-93586815D01*
X176927463Y-93683506D01*
X176868498Y-93793820D01*
X176832188Y-93913518D01*
X176819928Y-94038000D01*
X176288413Y-94038000D01*
X176290502Y-93689170D01*
X176278242Y-93564688D01*
X176241932Y-93444990D01*
X176182967Y-93334676D01*
X176103615Y-93237985D01*
X176006924Y-93158633D01*
X175896610Y-93099668D01*
X175776912Y-93063358D01*
X175652430Y-93051098D01*
X175037750Y-93054170D01*
X174879000Y-93212920D01*
X174625000Y-93212920D01*
X174466250Y-93054170D01*
X173851570Y-93051098D01*
X173727088Y-93063358D01*
X173607390Y-93099668D01*
X173497076Y-93158633D01*
X173400385Y-93237985D01*
X173321033Y-93334676D01*
X173262068Y-93444990D01*
X173225758Y-93564688D01*
X173213498Y-93689170D01*
X171376872Y-93689170D01*
X171376872Y-93599000D01*
X171364612Y-93474518D01*
X171328302Y-93354820D01*
X171269337Y-93244506D01*
X171189985Y-93147815D01*
X171093294Y-93068463D01*
X170982980Y-93009498D01*
X170863282Y-92973188D01*
X170738800Y-92960928D01*
X167081200Y-92960928D01*
X166956718Y-92973188D01*
X166837020Y-93009498D01*
X166726706Y-93068463D01*
X166630015Y-93147815D01*
X166550663Y-93244506D01*
X166491698Y-93354820D01*
X166455388Y-93474518D01*
X166443128Y-93599000D01*
X163564560Y-93599000D01*
X163288446Y-93322886D01*
X162774979Y-92979799D01*
X162204446Y-92743476D01*
X161774728Y-92658000D01*
X186563000Y-92658000D01*
X186563000Y-118999917D01*
X161987505Y-119178000D01*
X151765000Y-119178000D01*
X151765000Y-113991229D01*
X159425000Y-113991229D01*
X159425000Y-114608771D01*
X159545476Y-115214446D01*
X159781799Y-115784979D01*
X160124886Y-116298446D01*
X160561554Y-116735114D01*
X161075021Y-117078201D01*
X161645554Y-117314524D01*
X162251229Y-117435000D01*
X162868771Y-117435000D01*
X163474446Y-117314524D01*
X164044979Y-117078201D01*
X164425418Y-116824000D01*
X168183928Y-116824000D01*
X168183928Y-117724000D01*
X168196188Y-117848482D01*
X168232498Y-117968180D01*
X168291463Y-118078494D01*
X168370815Y-118175185D01*
X168467506Y-118254537D01*
X168577820Y-118313502D01*
X168697518Y-118349812D01*
X168822000Y-118362072D01*
X170522000Y-118362072D01*
X170646482Y-118349812D01*
X170766180Y-118313502D01*
X170876494Y-118254537D01*
X170973185Y-118175185D01*
X171052537Y-118078494D01*
X171111502Y-117968180D01*
X171131662Y-117901720D01*
X171181498Y-117901720D01*
X171181498Y-117938550D01*
X171193758Y-118063032D01*
X171230068Y-118182730D01*
X171289033Y-118293044D01*
X171368385Y-118389735D01*
X171465076Y-118469087D01*
X171575390Y-118528052D01*
X171695088Y-118564362D01*
X171819570Y-118576622D01*
X173620430Y-118576622D01*
X173744912Y-118564362D01*
X173864610Y-118528052D01*
X173974924Y-118469087D01*
X174071615Y-118389735D01*
X174150967Y-118293044D01*
X174209932Y-118182730D01*
X174246242Y-118063032D01*
X174258502Y-117938550D01*
X174258502Y-116824000D01*
X175295928Y-116824000D01*
X175295928Y-117724000D01*
X175308188Y-117848482D01*
X175344498Y-117968180D01*
X175403463Y-118078494D01*
X175482815Y-118175185D01*
X175579506Y-118254537D01*
X175689820Y-118313502D01*
X175809518Y-118349812D01*
X175934000Y-118362072D01*
X177634000Y-118362072D01*
X177758482Y-118349812D01*
X177878180Y-118313502D01*
X177988494Y-118254537D01*
X178085185Y-118175185D01*
X178164537Y-118078494D01*
X178223502Y-117968180D01*
X178243662Y-117901720D01*
X178293498Y-117901720D01*
X178293498Y-117938550D01*
X178305758Y-118063032D01*
X178342068Y-118182730D01*
X178401033Y-118293044D01*
X178480385Y-118389735D01*
X178577076Y-118469087D01*
X178687390Y-118528052D01*
X178807088Y-118564362D01*
X178931570Y-118576622D01*
X180732430Y-118576622D01*
X180856912Y-118564362D01*
X180976610Y-118528052D01*
X181086924Y-118469087D01*
X181183615Y-118389735D01*
X181262967Y-118293044D01*
X181321932Y-118182730D01*
X181358242Y-118063032D01*
X181370502Y-117938550D01*
X181370502Y-116340890D01*
X181358242Y-116216408D01*
X181321932Y-116096710D01*
X181262967Y-115986396D01*
X181183615Y-115889705D01*
X181086924Y-115810353D01*
X180976610Y-115751388D01*
X180872676Y-115719860D01*
X180976610Y-115688332D01*
X181086924Y-115629367D01*
X181183615Y-115550015D01*
X181262967Y-115453324D01*
X181321932Y-115343010D01*
X181358242Y-115223312D01*
X181370502Y-115098830D01*
X181370502Y-113501170D01*
X181358242Y-113376688D01*
X181321932Y-113256990D01*
X181262967Y-113146676D01*
X181183615Y-113049985D01*
X181086924Y-112970633D01*
X180976610Y-112911668D01*
X180856912Y-112875358D01*
X180732430Y-112863098D01*
X180594000Y-112863098D01*
X180594000Y-109474000D01*
X182237749Y-109474000D01*
X182266684Y-109767777D01*
X182352375Y-110050264D01*
X182491531Y-110310606D01*
X182678803Y-110538797D01*
X182906994Y-110726069D01*
X182940540Y-110744000D01*
X182906994Y-110761931D01*
X182678803Y-110949203D01*
X182491531Y-111177394D01*
X182352375Y-111437736D01*
X182266684Y-111720223D01*
X182237749Y-112014000D01*
X182266684Y-112307777D01*
X182352375Y-112590264D01*
X182491531Y-112850606D01*
X182678803Y-113078797D01*
X182906994Y-113266069D01*
X183167336Y-113405225D01*
X183449823Y-113490916D01*
X183669981Y-113512600D01*
X184122019Y-113512600D01*
X184342177Y-113490916D01*
X184624664Y-113405225D01*
X184885006Y-113266069D01*
X185113197Y-113078797D01*
X185300469Y-112850606D01*
X185439625Y-112590264D01*
X185525316Y-112307777D01*
X185554251Y-112014000D01*
X185525316Y-111720223D01*
X185439625Y-111437736D01*
X185300469Y-111177394D01*
X185113197Y-110949203D01*
X184885006Y-110761931D01*
X184851460Y-110744000D01*
X184885006Y-110726069D01*
X185113197Y-110538797D01*
X185300469Y-110310606D01*
X185439625Y-110050264D01*
X185525316Y-109767777D01*
X185554251Y-109474000D01*
X185525316Y-109180223D01*
X185439625Y-108897736D01*
X185300469Y-108637394D01*
X185113197Y-108409203D01*
X184885006Y-108221931D01*
X184845053Y-108200576D01*
X185047729Y-108052486D01*
X185246733Y-107836035D01*
X185399686Y-107584919D01*
X185500709Y-107308789D01*
X185503358Y-107293026D01*
X185382217Y-107061000D01*
X184023000Y-107061000D01*
X184023000Y-107081000D01*
X183769000Y-107081000D01*
X183769000Y-107061000D01*
X182409783Y-107061000D01*
X182288642Y-107293026D01*
X182291291Y-107308789D01*
X182392314Y-107584919D01*
X182545267Y-107836035D01*
X182744271Y-108052486D01*
X182946947Y-108200576D01*
X182906994Y-108221931D01*
X182678803Y-108409203D01*
X182491531Y-108637394D01*
X182352375Y-108897736D01*
X182266684Y-109180223D01*
X182237749Y-109474000D01*
X180594000Y-109474000D01*
X180594000Y-109032042D01*
X180676095Y-108909178D01*
X180747896Y-108735834D01*
X180784500Y-108551813D01*
X180784500Y-108364187D01*
X180747896Y-108180166D01*
X180676095Y-108006822D01*
X180571855Y-107850816D01*
X180439184Y-107718145D01*
X180283178Y-107613905D01*
X180109834Y-107542104D01*
X179925813Y-107505500D01*
X179738187Y-107505500D01*
X179554166Y-107542104D01*
X179380822Y-107613905D01*
X179224816Y-107718145D01*
X179092145Y-107850816D01*
X178987905Y-108006822D01*
X178916104Y-108180166D01*
X178879500Y-108364187D01*
X178879500Y-108551813D01*
X178916104Y-108735834D01*
X178987905Y-108909178D01*
X179070001Y-109032043D01*
X179070000Y-112863098D01*
X178931570Y-112863098D01*
X178807088Y-112875358D01*
X178687390Y-112911668D01*
X178577076Y-112970633D01*
X178480385Y-113049985D01*
X178401033Y-113146676D01*
X178342068Y-113256990D01*
X178305758Y-113376688D01*
X178293498Y-113501170D01*
X178293498Y-115098830D01*
X178305758Y-115223312D01*
X178342068Y-115343010D01*
X178401033Y-115453324D01*
X178480385Y-115550015D01*
X178577076Y-115629367D01*
X178687390Y-115688332D01*
X178791324Y-115719860D01*
X178687390Y-115751388D01*
X178577076Y-115810353D01*
X178480385Y-115889705D01*
X178401033Y-115986396D01*
X178342068Y-116096710D01*
X178305758Y-116216408D01*
X178293498Y-116340890D01*
X178293498Y-116377720D01*
X178089210Y-116377720D01*
X178085185Y-116372815D01*
X177988494Y-116293463D01*
X177878180Y-116234498D01*
X177758482Y-116198188D01*
X177634000Y-116185928D01*
X175934000Y-116185928D01*
X175809518Y-116198188D01*
X175689820Y-116234498D01*
X175579506Y-116293463D01*
X175482815Y-116372815D01*
X175403463Y-116469506D01*
X175344498Y-116579820D01*
X175308188Y-116699518D01*
X175295928Y-116824000D01*
X174258502Y-116824000D01*
X174258502Y-116340890D01*
X174246242Y-116216408D01*
X174209932Y-116096710D01*
X174150967Y-115986396D01*
X174071615Y-115889705D01*
X173974924Y-115810353D01*
X173864610Y-115751388D01*
X173760676Y-115719860D01*
X173864610Y-115688332D01*
X173974924Y-115629367D01*
X174071615Y-115550015D01*
X174150967Y-115453324D01*
X174209932Y-115343010D01*
X174246242Y-115223312D01*
X174258502Y-115098830D01*
X174258502Y-115064258D01*
X174281423Y-115062000D01*
X174281426Y-115062000D01*
X174393378Y-115050974D01*
X174537015Y-115007402D01*
X174553669Y-114998500D01*
X174591813Y-114998500D01*
X174775834Y-114961896D01*
X174949178Y-114890095D01*
X175105184Y-114785855D01*
X175237855Y-114653184D01*
X175295928Y-114566272D01*
X175295928Y-114824000D01*
X175308188Y-114948482D01*
X175344498Y-115068180D01*
X175403463Y-115178494D01*
X175482815Y-115275185D01*
X175579506Y-115354537D01*
X175689820Y-115413502D01*
X175809518Y-115449812D01*
X175934000Y-115462072D01*
X177634000Y-115462072D01*
X177758482Y-115449812D01*
X177878180Y-115413502D01*
X177988494Y-115354537D01*
X178085185Y-115275185D01*
X178164537Y-115178494D01*
X178223502Y-115068180D01*
X178259812Y-114948482D01*
X178272072Y-114824000D01*
X178272072Y-113924000D01*
X178259812Y-113799518D01*
X178223502Y-113679820D01*
X178164537Y-113569506D01*
X178116327Y-113510762D01*
X178136095Y-113481178D01*
X178207896Y-113307834D01*
X178244500Y-113123813D01*
X178244500Y-112936187D01*
X178207896Y-112752166D01*
X178136095Y-112578822D01*
X178031855Y-112422816D01*
X177899184Y-112290145D01*
X177743178Y-112185905D01*
X177569834Y-112114104D01*
X177385813Y-112077500D01*
X177198187Y-112077500D01*
X177014166Y-112114104D01*
X176840822Y-112185905D01*
X176684816Y-112290145D01*
X176552145Y-112422816D01*
X176447905Y-112578822D01*
X176376104Y-112752166D01*
X176369574Y-112784994D01*
X176228961Y-112925607D01*
X176197460Y-112951459D01*
X176171609Y-112982959D01*
X176094301Y-113077158D01*
X176017647Y-113220567D01*
X175997820Y-113285928D01*
X175934000Y-113285928D01*
X175809518Y-113298188D01*
X175689820Y-113334498D01*
X175579506Y-113393463D01*
X175482815Y-113472815D01*
X175403463Y-113569506D01*
X175362980Y-113645243D01*
X175342095Y-113594822D01*
X175237855Y-113438816D01*
X175105184Y-113306145D01*
X174949178Y-113201905D01*
X174775834Y-113130104D01*
X174591813Y-113093500D01*
X174404187Y-113093500D01*
X174220166Y-113130104D01*
X174156258Y-113156575D01*
X174150967Y-113146676D01*
X174071615Y-113049985D01*
X173974924Y-112970633D01*
X173864610Y-112911668D01*
X173744912Y-112875358D01*
X173620430Y-112863098D01*
X171819570Y-112863098D01*
X171695088Y-112875358D01*
X171575390Y-112911668D01*
X171465076Y-112970633D01*
X171368385Y-113049985D01*
X171289033Y-113146676D01*
X171230068Y-113256990D01*
X171193758Y-113376688D01*
X171181498Y-113501170D01*
X171181498Y-115098830D01*
X171193758Y-115223312D01*
X171230068Y-115343010D01*
X171289033Y-115453324D01*
X171368385Y-115550015D01*
X171465076Y-115629367D01*
X171575390Y-115688332D01*
X171679324Y-115719860D01*
X171575390Y-115751388D01*
X171465076Y-115810353D01*
X171368385Y-115889705D01*
X171289033Y-115986396D01*
X171230068Y-116096710D01*
X171193758Y-116216408D01*
X171181498Y-116340890D01*
X171181498Y-116377720D01*
X170977210Y-116377720D01*
X170973185Y-116372815D01*
X170876494Y-116293463D01*
X170766180Y-116234498D01*
X170646482Y-116198188D01*
X170522000Y-116185928D01*
X168822000Y-116185928D01*
X168697518Y-116198188D01*
X168577820Y-116234498D01*
X168467506Y-116293463D01*
X168370815Y-116372815D01*
X168291463Y-116469506D01*
X168232498Y-116579820D01*
X168196188Y-116699518D01*
X168183928Y-116824000D01*
X164425418Y-116824000D01*
X164558446Y-116735114D01*
X164995114Y-116298446D01*
X165338201Y-115784979D01*
X165574524Y-115214446D01*
X165695000Y-114608771D01*
X165695000Y-114206187D01*
X166433500Y-114206187D01*
X166433500Y-114393813D01*
X166470104Y-114577834D01*
X166541905Y-114751178D01*
X166646145Y-114907184D01*
X166778816Y-115039855D01*
X166934822Y-115144095D01*
X167108166Y-115215896D01*
X167292187Y-115252500D01*
X167479813Y-115252500D01*
X167663834Y-115215896D01*
X167703418Y-115199500D01*
X168308702Y-115199500D01*
X168370815Y-115275185D01*
X168467506Y-115354537D01*
X168577820Y-115413502D01*
X168697518Y-115449812D01*
X168822000Y-115462072D01*
X170522000Y-115462072D01*
X170646482Y-115449812D01*
X170766180Y-115413502D01*
X170876494Y-115354537D01*
X170973185Y-115275185D01*
X171052537Y-115178494D01*
X171111502Y-115068180D01*
X171147812Y-114948482D01*
X171160072Y-114824000D01*
X171160072Y-113924000D01*
X171147812Y-113799518D01*
X171111502Y-113679820D01*
X171052537Y-113569506D01*
X170973185Y-113472815D01*
X170876494Y-113393463D01*
X170766180Y-113334498D01*
X170646482Y-113298188D01*
X170522000Y-113285928D01*
X168822000Y-113285928D01*
X168697518Y-113298188D01*
X168577820Y-113334498D01*
X168467506Y-113393463D01*
X168370815Y-113472815D01*
X168308702Y-113548500D01*
X167975756Y-113548500D01*
X167837178Y-113455905D01*
X167663834Y-113384104D01*
X167479813Y-113347500D01*
X167292187Y-113347500D01*
X167108166Y-113384104D01*
X166934822Y-113455905D01*
X166778816Y-113560145D01*
X166646145Y-113692816D01*
X166541905Y-113848822D01*
X166470104Y-114022166D01*
X166433500Y-114206187D01*
X165695000Y-114206187D01*
X165695000Y-113991229D01*
X165574524Y-113385554D01*
X165338201Y-112815021D01*
X164995114Y-112301554D01*
X164558446Y-111864886D01*
X164044979Y-111521799D01*
X163474446Y-111285476D01*
X162868771Y-111165000D01*
X162251229Y-111165000D01*
X161645554Y-111285476D01*
X161075021Y-111521799D01*
X160561554Y-111864886D01*
X160124886Y-112301554D01*
X159781799Y-112815021D01*
X159545476Y-113385554D01*
X159425000Y-113991229D01*
X151765000Y-113991229D01*
X151765000Y-99060000D01*
X152265749Y-99060000D01*
X152294684Y-99353777D01*
X152380375Y-99636264D01*
X152519531Y-99896606D01*
X152706803Y-100124797D01*
X152934994Y-100312069D01*
X152968540Y-100330000D01*
X152934994Y-100347931D01*
X152706803Y-100535203D01*
X152519531Y-100763394D01*
X152380375Y-101023736D01*
X152294684Y-101306223D01*
X152265749Y-101600000D01*
X152294684Y-101893777D01*
X152380375Y-102176264D01*
X152519531Y-102436606D01*
X152706803Y-102664797D01*
X152934994Y-102852069D01*
X152968540Y-102870000D01*
X152934994Y-102887931D01*
X152706803Y-103075203D01*
X152519531Y-103303394D01*
X152380375Y-103563736D01*
X152294684Y-103846223D01*
X152265749Y-104140000D01*
X152294684Y-104433777D01*
X152380375Y-104716264D01*
X152519531Y-104976606D01*
X152706803Y-105204797D01*
X152934994Y-105392069D01*
X152968540Y-105410000D01*
X152934994Y-105427931D01*
X152706803Y-105615203D01*
X152519531Y-105843394D01*
X152380375Y-106103736D01*
X152294684Y-106386223D01*
X152265749Y-106680000D01*
X152294684Y-106973777D01*
X152380375Y-107256264D01*
X152519531Y-107516606D01*
X152706803Y-107744797D01*
X152934994Y-107932069D01*
X152968540Y-107950000D01*
X152934994Y-107967931D01*
X152706803Y-108155203D01*
X152519531Y-108383394D01*
X152380375Y-108643736D01*
X152294684Y-108926223D01*
X152265749Y-109220000D01*
X152294684Y-109513777D01*
X152380375Y-109796264D01*
X152519531Y-110056606D01*
X152706803Y-110284797D01*
X152714865Y-110291414D01*
X152663820Y-110306898D01*
X152553506Y-110365863D01*
X152456815Y-110445215D01*
X152377463Y-110541906D01*
X152318498Y-110652220D01*
X152282188Y-110771918D01*
X152269928Y-110896400D01*
X152269928Y-112623600D01*
X152282188Y-112748082D01*
X152318498Y-112867780D01*
X152377463Y-112978094D01*
X152456815Y-113074785D01*
X152553506Y-113154137D01*
X152663820Y-113213102D01*
X152783518Y-113249412D01*
X152908000Y-113261672D01*
X154940000Y-113261672D01*
X155064482Y-113249412D01*
X155184180Y-113213102D01*
X155294494Y-113154137D01*
X155391185Y-113074785D01*
X155470537Y-112978094D01*
X155529502Y-112867780D01*
X155565812Y-112748082D01*
X155578072Y-112623600D01*
X155578072Y-110896400D01*
X155565812Y-110771918D01*
X155529502Y-110652220D01*
X155470537Y-110541906D01*
X155391185Y-110445215D01*
X155338528Y-110402000D01*
X168403928Y-110402000D01*
X168403928Y-112102000D01*
X168416188Y-112226482D01*
X168452498Y-112346180D01*
X168511463Y-112456494D01*
X168590815Y-112553185D01*
X168687506Y-112632537D01*
X168797820Y-112691502D01*
X168917518Y-112727812D01*
X169042000Y-112740072D01*
X169942000Y-112740072D01*
X170066482Y-112727812D01*
X170186180Y-112691502D01*
X170296494Y-112632537D01*
X170393185Y-112553185D01*
X170472537Y-112456494D01*
X170531502Y-112346180D01*
X170567812Y-112226482D01*
X170580072Y-112102000D01*
X171303928Y-112102000D01*
X171316188Y-112226482D01*
X171352498Y-112346180D01*
X171411463Y-112456494D01*
X171490815Y-112553185D01*
X171587506Y-112632537D01*
X171697820Y-112691502D01*
X171817518Y-112727812D01*
X171942000Y-112740072D01*
X172106250Y-112737000D01*
X172265000Y-112578250D01*
X172265000Y-111379000D01*
X172519000Y-111379000D01*
X172519000Y-112578250D01*
X172677750Y-112737000D01*
X172842000Y-112740072D01*
X172966482Y-112727812D01*
X173086180Y-112691502D01*
X173196494Y-112632537D01*
X173293185Y-112553185D01*
X173372537Y-112456494D01*
X173431502Y-112346180D01*
X173467812Y-112226482D01*
X173480072Y-112102000D01*
X173477000Y-111537750D01*
X173318250Y-111379000D01*
X172519000Y-111379000D01*
X172265000Y-111379000D01*
X171465750Y-111379000D01*
X171307000Y-111537750D01*
X171303928Y-112102000D01*
X170580072Y-112102000D01*
X170580072Y-111241558D01*
X171304555Y-110517076D01*
X171307000Y-110966250D01*
X171465750Y-111125000D01*
X172265000Y-111125000D01*
X172265000Y-109925750D01*
X172519000Y-109925750D01*
X172519000Y-111125000D01*
X173318250Y-111125000D01*
X173477000Y-110966250D01*
X173480072Y-110402000D01*
X173467812Y-110277518D01*
X173431502Y-110157820D01*
X173372537Y-110047506D01*
X173293185Y-109950815D01*
X173196494Y-109871463D01*
X173086180Y-109812498D01*
X172966482Y-109776188D01*
X172842000Y-109763928D01*
X172677750Y-109767000D01*
X172519000Y-109925750D01*
X172265000Y-109925750D01*
X172106250Y-109767000D01*
X172055578Y-109766052D01*
X172378559Y-109443072D01*
X172839000Y-109443072D01*
X172963482Y-109430812D01*
X173083180Y-109394502D01*
X173193494Y-109335537D01*
X173290185Y-109256185D01*
X173369537Y-109159494D01*
X173428502Y-109049180D01*
X173464812Y-108929482D01*
X173477072Y-108805000D01*
X173477072Y-108455000D01*
X173464812Y-108330518D01*
X173457071Y-108305000D01*
X173464812Y-108279482D01*
X173468771Y-108239288D01*
X173538822Y-108286095D01*
X173712166Y-108357896D01*
X173896187Y-108394500D01*
X174083813Y-108394500D01*
X174267834Y-108357896D01*
X174441178Y-108286095D01*
X174593223Y-108184501D01*
X174728166Y-108240396D01*
X174873094Y-108269224D01*
X175768001Y-109164132D01*
X175768000Y-109915958D01*
X175685905Y-110038822D01*
X175614104Y-110212166D01*
X175577500Y-110396187D01*
X175577500Y-110583813D01*
X175614104Y-110767834D01*
X175685905Y-110941178D01*
X175790145Y-111097184D01*
X175922816Y-111229855D01*
X176078822Y-111334095D01*
X176252166Y-111405896D01*
X176436187Y-111442500D01*
X176623813Y-111442500D01*
X176807834Y-111405896D01*
X176981178Y-111334095D01*
X177137184Y-111229855D01*
X177269855Y-111097184D01*
X177374095Y-110941178D01*
X177445896Y-110767834D01*
X177482500Y-110583813D01*
X177482500Y-110396187D01*
X177445896Y-110212166D01*
X177374095Y-110038822D01*
X177292000Y-109915958D01*
X177292000Y-108885922D01*
X177295686Y-108848499D01*
X177290104Y-108791825D01*
X177280974Y-108699122D01*
X177237402Y-108555485D01*
X177166645Y-108423108D01*
X177071422Y-108307078D01*
X177042352Y-108283221D01*
X176257572Y-107498441D01*
X176375184Y-107419855D01*
X176507855Y-107287184D01*
X176612095Y-107131178D01*
X176683896Y-106957834D01*
X176720500Y-106773813D01*
X176720500Y-106586187D01*
X176683896Y-106402166D01*
X176612095Y-106228822D01*
X176507855Y-106072816D01*
X176375184Y-105940145D01*
X176219178Y-105835905D01*
X176045834Y-105764104D01*
X175861813Y-105727500D01*
X175674187Y-105727500D01*
X175490166Y-105764104D01*
X175429062Y-105789414D01*
X175413896Y-105713169D01*
X175342095Y-105539825D01*
X175237855Y-105383819D01*
X175105184Y-105251148D01*
X174949178Y-105146908D01*
X174942500Y-105144142D01*
X174942500Y-105062187D01*
X174905896Y-104878166D01*
X174834095Y-104704822D01*
X174729855Y-104548816D01*
X174597184Y-104416145D01*
X174441178Y-104311905D01*
X174267834Y-104240104D01*
X174083813Y-104203500D01*
X173896187Y-104203500D01*
X173712166Y-104240104D01*
X173538822Y-104311905D01*
X173447464Y-104372949D01*
X173424715Y-104301873D01*
X173364078Y-104192469D01*
X173283263Y-104096997D01*
X173185375Y-104019126D01*
X173074175Y-103961849D01*
X172953939Y-103927366D01*
X172829285Y-103917002D01*
X172399750Y-103920000D01*
X172241000Y-104078750D01*
X172241000Y-104566928D01*
X171987000Y-104566928D01*
X171987000Y-104078750D01*
X171828250Y-103920000D01*
X171398715Y-103917002D01*
X171274061Y-103927366D01*
X171153825Y-103961849D01*
X171042625Y-104019126D01*
X170944737Y-104096997D01*
X170863922Y-104192469D01*
X170803285Y-104301873D01*
X170765156Y-104421004D01*
X170754000Y-104523250D01*
X170912750Y-104682000D01*
X171025322Y-104682000D01*
X170937815Y-104753815D01*
X170917967Y-104778000D01*
X170912750Y-104778000D01*
X170754000Y-104936750D01*
X170765156Y-105038996D01*
X170770612Y-105056044D01*
X170763188Y-105080518D01*
X170750928Y-105205000D01*
X170750928Y-105555000D01*
X170763188Y-105679482D01*
X170770929Y-105705000D01*
X170763188Y-105730518D01*
X170750928Y-105855000D01*
X170750928Y-106205000D01*
X170763188Y-106329482D01*
X170770929Y-106355000D01*
X170763188Y-106380518D01*
X170750928Y-106505000D01*
X170750928Y-106855000D01*
X170763188Y-106979482D01*
X170770929Y-107005000D01*
X170763188Y-107030518D01*
X170750928Y-107155000D01*
X170750928Y-107505000D01*
X170763188Y-107629482D01*
X170770929Y-107655000D01*
X170763188Y-107680518D01*
X170750928Y-107805000D01*
X170750928Y-108155000D01*
X170763188Y-108279482D01*
X170770929Y-108305000D01*
X170763188Y-108330518D01*
X170750928Y-108455000D01*
X170750928Y-108805000D01*
X170760830Y-108905539D01*
X169902442Y-109763928D01*
X169042000Y-109763928D01*
X168917518Y-109776188D01*
X168797820Y-109812498D01*
X168687506Y-109871463D01*
X168590815Y-109950815D01*
X168511463Y-110047506D01*
X168452498Y-110157820D01*
X168416188Y-110277518D01*
X168403928Y-110402000D01*
X155338528Y-110402000D01*
X155294494Y-110365863D01*
X155184180Y-110306898D01*
X155133135Y-110291414D01*
X155141197Y-110284797D01*
X155328469Y-110056606D01*
X155467625Y-109796264D01*
X155553316Y-109513777D01*
X155556777Y-109478638D01*
X159254187Y-108092000D01*
X163610961Y-108092000D01*
X163598145Y-108104816D01*
X163493905Y-108260822D01*
X163422104Y-108434166D01*
X163385500Y-108618187D01*
X163385500Y-108805813D01*
X163422104Y-108989834D01*
X163493905Y-109163178D01*
X163598145Y-109319184D01*
X163730816Y-109451855D01*
X163886822Y-109556095D01*
X164060166Y-109627896D01*
X164244187Y-109664500D01*
X164431813Y-109664500D01*
X164615834Y-109627896D01*
X164789178Y-109556095D01*
X164939729Y-109455500D01*
X166254553Y-109455500D01*
X166375826Y-109443556D01*
X166377422Y-109443072D01*
X166939000Y-109443072D01*
X167063482Y-109430812D01*
X167183180Y-109394502D01*
X167293494Y-109335537D01*
X167390185Y-109256185D01*
X167469537Y-109159494D01*
X167528502Y-109049180D01*
X167564812Y-108929482D01*
X167577072Y-108805000D01*
X167577072Y-108455000D01*
X167564812Y-108330518D01*
X167557071Y-108305000D01*
X167564812Y-108279482D01*
X167577072Y-108155000D01*
X167577072Y-107805000D01*
X167564812Y-107680518D01*
X167557071Y-107655000D01*
X167564812Y-107629482D01*
X167577072Y-107505000D01*
X167577072Y-107155000D01*
X167564812Y-107030518D01*
X167557071Y-107005000D01*
X167564812Y-106979482D01*
X167577072Y-106855000D01*
X167577072Y-106505000D01*
X167564812Y-106380518D01*
X167557071Y-106355000D01*
X167564812Y-106329482D01*
X167577072Y-106205000D01*
X167577072Y-105855000D01*
X167564812Y-105730518D01*
X167557071Y-105705000D01*
X167564812Y-105679482D01*
X167577072Y-105555000D01*
X167577072Y-105514664D01*
X167637434Y-105496353D01*
X167780842Y-105419699D01*
X167906541Y-105316541D01*
X167932398Y-105285034D01*
X169465046Y-103752388D01*
X169496541Y-103726541D01*
X169522389Y-103695045D01*
X169522392Y-103695042D01*
X169599699Y-103600843D01*
X169676353Y-103457434D01*
X169684810Y-103429556D01*
X169723556Y-103301826D01*
X169735500Y-103180553D01*
X169735500Y-103180551D01*
X169739494Y-103140000D01*
X169735500Y-103099450D01*
X169735500Y-102785311D01*
X169772494Y-102765537D01*
X169869185Y-102686185D01*
X169948537Y-102589494D01*
X170007502Y-102479180D01*
X170043812Y-102359482D01*
X170053000Y-102266192D01*
X170062188Y-102359482D01*
X170098498Y-102479180D01*
X170157463Y-102589494D01*
X170236815Y-102686185D01*
X170333506Y-102765537D01*
X170443820Y-102824502D01*
X170563518Y-102860812D01*
X170688000Y-102873072D01*
X170910250Y-102870000D01*
X171069000Y-102711250D01*
X171069000Y-101346000D01*
X171323000Y-101346000D01*
X171323000Y-102711250D01*
X171481750Y-102870000D01*
X171704000Y-102873072D01*
X171828482Y-102860812D01*
X171948180Y-102824502D01*
X172058494Y-102765537D01*
X172155185Y-102686185D01*
X172234537Y-102589494D01*
X172293502Y-102479180D01*
X172329812Y-102359482D01*
X172342072Y-102235000D01*
X172340095Y-101765000D01*
X173256928Y-101765000D01*
X173269188Y-101889482D01*
X173305498Y-102009180D01*
X173364463Y-102119494D01*
X173443815Y-102216185D01*
X173540506Y-102295537D01*
X173650820Y-102354502D01*
X173770518Y-102390812D01*
X173895000Y-102403072D01*
X174109250Y-102400000D01*
X174268000Y-102241250D01*
X174268000Y-101092000D01*
X174522000Y-101092000D01*
X174522000Y-102241250D01*
X174680750Y-102400000D01*
X174895000Y-102403072D01*
X175019482Y-102390812D01*
X175139180Y-102354502D01*
X175249494Y-102295537D01*
X175346185Y-102216185D01*
X175425537Y-102119494D01*
X175484502Y-102009180D01*
X175520812Y-101889482D01*
X175533072Y-101765000D01*
X175530000Y-101250750D01*
X175371250Y-101092000D01*
X174522000Y-101092000D01*
X174268000Y-101092000D01*
X173418750Y-101092000D01*
X173260000Y-101250750D01*
X173256928Y-101765000D01*
X172340095Y-101765000D01*
X172339000Y-101504750D01*
X172180250Y-101346000D01*
X171323000Y-101346000D01*
X171069000Y-101346000D01*
X171049000Y-101346000D01*
X171049000Y-101092000D01*
X171069000Y-101092000D01*
X171069000Y-99726750D01*
X171323000Y-99726750D01*
X171323000Y-101092000D01*
X172180250Y-101092000D01*
X172339000Y-100933250D01*
X172342072Y-100203000D01*
X172338330Y-100165000D01*
X173256928Y-100165000D01*
X173260000Y-100679250D01*
X173418750Y-100838000D01*
X174268000Y-100838000D01*
X174268000Y-99688750D01*
X174522000Y-99688750D01*
X174522000Y-100838000D01*
X175371250Y-100838000D01*
X175530000Y-100679250D01*
X175533072Y-100165000D01*
X176256928Y-100165000D01*
X176256928Y-101765000D01*
X176269188Y-101889482D01*
X176305498Y-102009180D01*
X176364463Y-102119494D01*
X176443815Y-102216185D01*
X176540506Y-102295537D01*
X176650820Y-102354502D01*
X176770518Y-102390812D01*
X176895000Y-102403072D01*
X177895000Y-102403072D01*
X178019482Y-102390812D01*
X178139180Y-102354502D01*
X178249494Y-102295537D01*
X178346185Y-102216185D01*
X178425537Y-102119494D01*
X178484502Y-102009180D01*
X178520812Y-101889482D01*
X178533072Y-101765000D01*
X178533072Y-101600000D01*
X182114314Y-101600000D01*
X182129026Y-101749378D01*
X182172598Y-101893015D01*
X182243355Y-102025392D01*
X182256168Y-102041004D01*
X182266684Y-102147777D01*
X182352375Y-102430264D01*
X182491531Y-102690606D01*
X182678803Y-102918797D01*
X182906994Y-103106069D01*
X182940540Y-103124000D01*
X182906994Y-103141931D01*
X182678803Y-103329203D01*
X182491531Y-103557394D01*
X182352375Y-103817736D01*
X182266684Y-104100223D01*
X182237749Y-104394000D01*
X182266684Y-104687777D01*
X182352375Y-104970264D01*
X182491531Y-105230606D01*
X182678803Y-105458797D01*
X182906994Y-105646069D01*
X182946947Y-105667424D01*
X182744271Y-105815514D01*
X182545267Y-106031965D01*
X182392314Y-106283081D01*
X182291291Y-106559211D01*
X182288642Y-106574974D01*
X182409783Y-106807000D01*
X183769000Y-106807000D01*
X183769000Y-106787000D01*
X184023000Y-106787000D01*
X184023000Y-106807000D01*
X185382217Y-106807000D01*
X185503358Y-106574974D01*
X185500709Y-106559211D01*
X185399686Y-106283081D01*
X185246733Y-106031965D01*
X185047729Y-105815514D01*
X184845053Y-105667424D01*
X184885006Y-105646069D01*
X185113197Y-105458797D01*
X185300469Y-105230606D01*
X185439625Y-104970264D01*
X185525316Y-104687777D01*
X185554251Y-104394000D01*
X185525316Y-104100223D01*
X185439625Y-103817736D01*
X185300469Y-103557394D01*
X185113197Y-103329203D01*
X184885006Y-103141931D01*
X184851460Y-103124000D01*
X184885006Y-103106069D01*
X185113197Y-102918797D01*
X185300469Y-102690606D01*
X185439625Y-102430264D01*
X185525316Y-102147777D01*
X185554251Y-101854000D01*
X185525316Y-101560223D01*
X185439625Y-101277736D01*
X185300469Y-101017394D01*
X185113197Y-100789203D01*
X185105135Y-100782586D01*
X185156180Y-100767102D01*
X185266494Y-100708137D01*
X185363185Y-100628785D01*
X185442537Y-100532094D01*
X185501502Y-100421780D01*
X185537812Y-100302082D01*
X185550072Y-100177600D01*
X185550072Y-98450400D01*
X185537812Y-98325918D01*
X185501502Y-98206220D01*
X185442537Y-98095906D01*
X185363185Y-97999215D01*
X185266494Y-97919863D01*
X185156180Y-97860898D01*
X185036482Y-97824588D01*
X184912000Y-97812328D01*
X182880000Y-97812328D01*
X182755518Y-97824588D01*
X182635820Y-97860898D01*
X182525506Y-97919863D01*
X182428815Y-97999215D01*
X182349463Y-98095906D01*
X182290498Y-98206220D01*
X182254188Y-98325918D01*
X182241928Y-98450400D01*
X182241928Y-100177600D01*
X182254188Y-100302082D01*
X182290498Y-100421780D01*
X182349463Y-100532094D01*
X182428815Y-100628785D01*
X182525506Y-100708137D01*
X182635820Y-100767102D01*
X182686865Y-100782586D01*
X182678803Y-100789203D01*
X182596257Y-100889785D01*
X182586985Y-100892598D01*
X182454608Y-100963355D01*
X182338578Y-101058578D01*
X182243355Y-101174608D01*
X182172598Y-101306985D01*
X182129026Y-101450622D01*
X182114314Y-101600000D01*
X178533072Y-101600000D01*
X178533072Y-100737414D01*
X178535573Y-100736822D01*
X178538166Y-100737896D01*
X178722187Y-100774500D01*
X178909813Y-100774500D01*
X179093834Y-100737896D01*
X179267178Y-100666095D01*
X179423184Y-100561855D01*
X179555855Y-100429184D01*
X179660095Y-100273178D01*
X179731896Y-100099834D01*
X179768500Y-99915813D01*
X179768500Y-99728187D01*
X179731896Y-99544166D01*
X179660095Y-99370822D01*
X179555855Y-99214816D01*
X179423184Y-99082145D01*
X179267178Y-98977905D01*
X179093834Y-98906104D01*
X178909813Y-98869500D01*
X178722187Y-98869500D01*
X178538166Y-98906104D01*
X178364822Y-98977905D01*
X178208816Y-99082145D01*
X178162440Y-99128521D01*
X177312504Y-99329945D01*
X177251197Y-99341535D01*
X177195818Y-99363860D01*
X177139367Y-99383251D01*
X177120564Y-99394198D01*
X177100382Y-99402334D01*
X177050431Y-99435028D01*
X176998838Y-99465065D01*
X176982531Y-99479471D01*
X176964325Y-99491387D01*
X176928102Y-99526928D01*
X176895000Y-99526928D01*
X176770518Y-99539188D01*
X176650820Y-99575498D01*
X176540506Y-99634463D01*
X176443815Y-99713815D01*
X176364463Y-99810506D01*
X176305498Y-99920820D01*
X176269188Y-100040518D01*
X176256928Y-100165000D01*
X175533072Y-100165000D01*
X175520812Y-100040518D01*
X175484502Y-99920820D01*
X175425537Y-99810506D01*
X175346185Y-99713815D01*
X175249494Y-99634463D01*
X175139180Y-99575498D01*
X175019482Y-99539188D01*
X174895000Y-99526928D01*
X174680750Y-99530000D01*
X174522000Y-99688750D01*
X174268000Y-99688750D01*
X174109250Y-99530000D01*
X173895000Y-99526928D01*
X173770518Y-99539188D01*
X173650820Y-99575498D01*
X173540506Y-99634463D01*
X173443815Y-99713815D01*
X173364463Y-99810506D01*
X173305498Y-99920820D01*
X173269188Y-100040518D01*
X173256928Y-100165000D01*
X172338330Y-100165000D01*
X172329812Y-100078518D01*
X172293502Y-99958820D01*
X172234537Y-99848506D01*
X172155185Y-99751815D01*
X172058494Y-99672463D01*
X171948180Y-99613498D01*
X171828482Y-99577188D01*
X171704000Y-99564928D01*
X171481750Y-99568000D01*
X171323000Y-99726750D01*
X171069000Y-99726750D01*
X170910250Y-99568000D01*
X170688000Y-99564928D01*
X170563518Y-99577188D01*
X170443820Y-99613498D01*
X170333506Y-99672463D01*
X170236815Y-99751815D01*
X170157463Y-99848506D01*
X170098498Y-99958820D01*
X170062188Y-100078518D01*
X170053000Y-100171808D01*
X170043812Y-100078518D01*
X170007502Y-99958820D01*
X169948537Y-99848506D01*
X169869185Y-99751815D01*
X169772494Y-99672463D01*
X169662180Y-99613498D01*
X169542482Y-99577188D01*
X169418000Y-99564928D01*
X168402000Y-99564928D01*
X168277518Y-99577188D01*
X168157820Y-99613498D01*
X168047506Y-99672463D01*
X167950815Y-99751815D01*
X167871463Y-99848506D01*
X167812498Y-99958820D01*
X167776188Y-100078518D01*
X167767000Y-100171808D01*
X167757812Y-100078518D01*
X167721502Y-99958820D01*
X167662537Y-99848506D01*
X167583185Y-99751815D01*
X167486494Y-99672463D01*
X167449500Y-99652689D01*
X167449500Y-98636861D01*
X167456178Y-98634095D01*
X167612184Y-98529855D01*
X167744855Y-98397184D01*
X167849095Y-98241178D01*
X167920896Y-98067834D01*
X167957500Y-97883813D01*
X167957500Y-97696187D01*
X167920896Y-97512166D01*
X167849095Y-97338822D01*
X167744855Y-97182816D01*
X167612184Y-97050145D01*
X167456178Y-96945905D01*
X167282834Y-96874104D01*
X167098813Y-96837500D01*
X166911187Y-96837500D01*
X166727166Y-96874104D01*
X166553822Y-96945905D01*
X166397816Y-97050145D01*
X166265145Y-97182816D01*
X166160905Y-97338822D01*
X166089104Y-97512166D01*
X166082574Y-97544994D01*
X166068961Y-97558607D01*
X166037460Y-97584459D01*
X166011609Y-97615959D01*
X165934301Y-97710158D01*
X165857647Y-97853567D01*
X165810445Y-98009174D01*
X165794506Y-98171000D01*
X165798501Y-98211560D01*
X165798501Y-99652689D01*
X165761506Y-99672463D01*
X165664815Y-99751815D01*
X165585463Y-99848506D01*
X165526498Y-99958820D01*
X165490188Y-100078518D01*
X165477928Y-100203000D01*
X165477928Y-102031934D01*
X165022802Y-102029979D01*
X164926553Y-102020500D01*
X164926550Y-102020500D01*
X164886000Y-102016506D01*
X164845450Y-102020500D01*
X164160035Y-102020500D01*
X164144537Y-101991506D01*
X164065185Y-101894815D01*
X163968494Y-101815463D01*
X163858180Y-101756498D01*
X163738482Y-101720188D01*
X163614000Y-101707928D01*
X162014000Y-101707928D01*
X161889518Y-101720188D01*
X161769820Y-101756498D01*
X161659506Y-101815463D01*
X161562815Y-101894815D01*
X161483463Y-101991506D01*
X161424498Y-102101820D01*
X161388188Y-102221518D01*
X161375928Y-102346000D01*
X161375928Y-103346000D01*
X161388188Y-103470482D01*
X161424498Y-103590180D01*
X161483463Y-103700494D01*
X161562815Y-103797185D01*
X161659506Y-103876537D01*
X161769820Y-103935502D01*
X161889518Y-103971812D01*
X162014000Y-103984072D01*
X163614000Y-103984072D01*
X163738482Y-103971812D01*
X163858180Y-103935502D01*
X163968494Y-103876537D01*
X164065185Y-103797185D01*
X164144537Y-103700494D01*
X164156948Y-103677275D01*
X164551537Y-103678970D01*
X165010124Y-104137557D01*
X164958463Y-104200506D01*
X164899498Y-104310820D01*
X164863188Y-104430518D01*
X164850928Y-104555000D01*
X164850928Y-104618000D01*
X160712030Y-104618000D01*
X155528759Y-99434729D01*
X155553316Y-99353777D01*
X155582251Y-99060000D01*
X155553316Y-98766223D01*
X155467625Y-98483736D01*
X155328469Y-98223394D01*
X155141197Y-97995203D01*
X154913006Y-97807931D01*
X154652664Y-97668775D01*
X154370177Y-97583084D01*
X154150019Y-97561400D01*
X153697981Y-97561400D01*
X153477823Y-97583084D01*
X153195336Y-97668775D01*
X152934994Y-97807931D01*
X152706803Y-97995203D01*
X152519531Y-98223394D01*
X152380375Y-98483736D01*
X152294684Y-98766223D01*
X152265749Y-99060000D01*
X151765000Y-99060000D01*
X151765000Y-92658000D01*
X160805272Y-92658000D01*
X160375554Y-92743476D01*
X160375554Y-92743476D01*
G37*
X160375554Y-92743476D02*
X159805021Y-92979799D01*
X159291554Y-93322886D01*
X158854886Y-93759554D01*
X158511799Y-94273021D01*
X158275476Y-94843554D01*
X158155000Y-95449229D01*
X158155000Y-96066771D01*
X158275476Y-96672446D01*
X158511799Y-97242979D01*
X158854886Y-97756446D01*
X159291554Y-98193114D01*
X159805021Y-98536201D01*
X160375554Y-98772524D01*
X160981229Y-98893000D01*
X161565027Y-98893000D01*
X161562815Y-98894815D01*
X161483463Y-98991506D01*
X161424498Y-99101820D01*
X161388188Y-99221518D01*
X161375928Y-99346000D01*
X161375928Y-100346000D01*
X161388188Y-100470482D01*
X161424498Y-100590180D01*
X161483463Y-100700494D01*
X161562815Y-100797185D01*
X161659506Y-100876537D01*
X161769820Y-100935502D01*
X161889518Y-100971812D01*
X162014000Y-100984072D01*
X163614000Y-100984072D01*
X163738482Y-100971812D01*
X163858180Y-100935502D01*
X163968494Y-100876537D01*
X164065185Y-100797185D01*
X164144537Y-100700494D01*
X164203502Y-100590180D01*
X164239812Y-100470482D01*
X164252072Y-100346000D01*
X164252072Y-99820371D01*
X164686194Y-99504424D01*
X164869834Y-99467896D01*
X165043178Y-99396095D01*
X165199184Y-99291855D01*
X165331855Y-99159184D01*
X165436095Y-99003178D01*
X165507896Y-98829834D01*
X165544500Y-98645813D01*
X165544500Y-98458187D01*
X165507896Y-98274166D01*
X165436095Y-98100822D01*
X165331855Y-97944816D01*
X165199184Y-97812145D01*
X165043178Y-97707905D01*
X164869834Y-97636104D01*
X164685813Y-97599500D01*
X164498187Y-97599500D01*
X164314166Y-97636104D01*
X164140822Y-97707905D01*
X163984816Y-97812145D01*
X163852145Y-97944816D01*
X163747905Y-98100822D01*
X163721506Y-98164555D01*
X162974893Y-98707928D01*
X162360394Y-98707928D01*
X162774979Y-98536201D01*
X163288446Y-98193114D01*
X163725114Y-97756446D01*
X164068201Y-97242979D01*
X164304524Y-96672446D01*
X164425000Y-96066771D01*
X164425000Y-95449229D01*
X164304524Y-94843554D01*
X164068201Y-94273021D01*
X163725114Y-93759554D01*
X163564560Y-93599000D01*
X166443128Y-93599000D01*
X166443128Y-95631000D01*
X166455388Y-95755482D01*
X166491698Y-95875180D01*
X166550663Y-95985494D01*
X166630015Y-96082185D01*
X166726706Y-96161537D01*
X166837020Y-96220502D01*
X166956718Y-96256812D01*
X167081200Y-96269072D01*
X170738800Y-96269072D01*
X170863282Y-96256812D01*
X170982980Y-96220502D01*
X171093294Y-96161537D01*
X171189985Y-96082185D01*
X171269337Y-95985494D01*
X171328302Y-95875180D01*
X171364612Y-95755482D01*
X171376872Y-95631000D01*
X171376872Y-95286830D01*
X173213498Y-95286830D01*
X173225758Y-95411312D01*
X173262068Y-95531010D01*
X173321033Y-95641324D01*
X173400385Y-95738015D01*
X173497076Y-95817367D01*
X173607390Y-95876332D01*
X173711324Y-95907860D01*
X173607390Y-95939388D01*
X173497076Y-95998353D01*
X173400385Y-96077705D01*
X173321033Y-96174396D01*
X173262068Y-96284710D01*
X173225758Y-96404408D01*
X173213498Y-96528890D01*
X173213498Y-98126550D01*
X173225758Y-98251032D01*
X173262068Y-98370730D01*
X173321033Y-98481044D01*
X173400385Y-98577735D01*
X173497076Y-98657087D01*
X173607390Y-98716052D01*
X173727088Y-98752362D01*
X173851570Y-98764622D01*
X175652430Y-98764622D01*
X175776912Y-98752362D01*
X175896610Y-98716052D01*
X176006924Y-98657087D01*
X176103615Y-98577735D01*
X176182967Y-98481044D01*
X176241932Y-98370730D01*
X176278242Y-98251032D01*
X176289402Y-98137720D01*
X176898185Y-98137720D01*
X176927463Y-98192494D01*
X177006815Y-98289185D01*
X177103506Y-98368537D01*
X177213820Y-98427502D01*
X177333518Y-98463812D01*
X177458000Y-98476072D01*
X179158000Y-98476072D01*
X179282482Y-98463812D01*
X179402180Y-98427502D01*
X179512494Y-98368537D01*
X179609185Y-98289185D01*
X179688537Y-98192494D01*
X179747502Y-98082180D01*
X179783812Y-97962482D01*
X179796072Y-97838000D01*
X179796072Y-96938000D01*
X179783812Y-96813518D01*
X179747502Y-96693820D01*
X179688537Y-96583506D01*
X179609185Y-96486815D01*
X179512494Y-96407463D01*
X179402180Y-96348498D01*
X179282482Y-96312188D01*
X179158000Y-96299928D01*
X177458000Y-96299928D01*
X177333518Y-96312188D01*
X177213820Y-96348498D01*
X177103506Y-96407463D01*
X177006815Y-96486815D01*
X176981452Y-96517720D01*
X176289402Y-96517720D01*
X176278242Y-96404408D01*
X176241932Y-96284710D01*
X176182967Y-96174396D01*
X176103615Y-96077705D01*
X176006924Y-95998353D01*
X175896610Y-95939388D01*
X175792676Y-95907860D01*
X175896610Y-95876332D01*
X176006924Y-95817367D01*
X176103615Y-95738015D01*
X176182967Y-95641324D01*
X176241932Y-95531010D01*
X176278242Y-95411312D01*
X176290502Y-95286830D01*
X176287430Y-94773750D01*
X176128680Y-94615000D01*
X174879000Y-94615000D01*
X174879000Y-94635000D01*
X174625000Y-94635000D01*
X174625000Y-94615000D01*
X173375320Y-94615000D01*
X173216570Y-94773750D01*
X173213498Y-95286830D01*
X171376872Y-95286830D01*
X171376872Y-93689170D01*
X173213498Y-93689170D01*
X173216570Y-94202250D01*
X173375320Y-94361000D01*
X174625000Y-94361000D01*
X174625000Y-93212920D01*
X174879000Y-93212920D01*
X174879000Y-94361000D01*
X176128680Y-94361000D01*
X176287430Y-94202250D01*
X176288413Y-94038000D01*
X176819928Y-94038000D01*
X176819928Y-94938000D01*
X176832188Y-95062482D01*
X176868498Y-95182180D01*
X176927463Y-95292494D01*
X177006815Y-95389185D01*
X177103506Y-95468537D01*
X177213820Y-95527502D01*
X177333518Y-95563812D01*
X177458000Y-95576072D01*
X179158000Y-95576072D01*
X179282482Y-95563812D01*
X179402180Y-95527502D01*
X179512494Y-95468537D01*
X179609185Y-95389185D01*
X179671298Y-95313500D01*
X179860993Y-95313500D01*
X179888822Y-95332095D01*
X180062166Y-95403896D01*
X180246187Y-95440500D01*
X180433813Y-95440500D01*
X180617834Y-95403896D01*
X180791178Y-95332095D01*
X180947184Y-95227855D01*
X181079855Y-95095184D01*
X181184095Y-94939178D01*
X181255896Y-94765834D01*
X181292500Y-94581813D01*
X181292500Y-94394187D01*
X181255896Y-94210166D01*
X181184095Y-94036822D01*
X181079855Y-93880816D01*
X180947184Y-93748145D01*
X180791178Y-93643905D01*
X180617834Y-93572104D01*
X180433813Y-93535500D01*
X180246187Y-93535500D01*
X180062166Y-93572104D01*
X179888822Y-93643905D01*
X179860993Y-93662500D01*
X179671298Y-93662500D01*
X179609185Y-93586815D01*
X179512494Y-93507463D01*
X179402180Y-93448498D01*
X179282482Y-93412188D01*
X179158000Y-93399928D01*
X177458000Y-93399928D01*
X177333518Y-93412188D01*
X177213820Y-93448498D01*
X177103506Y-93507463D01*
X177006815Y-93586815D01*
X176927463Y-93683506D01*
X176868498Y-93793820D01*
X176832188Y-93913518D01*
X176819928Y-94038000D01*
X176288413Y-94038000D01*
X176290502Y-93689170D01*
X176278242Y-93564688D01*
X176241932Y-93444990D01*
X176182967Y-93334676D01*
X176103615Y-93237985D01*
X176006924Y-93158633D01*
X175896610Y-93099668D01*
X175776912Y-93063358D01*
X175652430Y-93051098D01*
X175037750Y-93054170D01*
X174879000Y-93212920D01*
X174625000Y-93212920D01*
X174466250Y-93054170D01*
X173851570Y-93051098D01*
X173727088Y-93063358D01*
X173607390Y-93099668D01*
X173497076Y-93158633D01*
X173400385Y-93237985D01*
X173321033Y-93334676D01*
X173262068Y-93444990D01*
X173225758Y-93564688D01*
X173213498Y-93689170D01*
X171376872Y-93689170D01*
X171376872Y-93599000D01*
X171364612Y-93474518D01*
X171328302Y-93354820D01*
X171269337Y-93244506D01*
X171189985Y-93147815D01*
X171093294Y-93068463D01*
X170982980Y-93009498D01*
X170863282Y-92973188D01*
X170738800Y-92960928D01*
X167081200Y-92960928D01*
X166956718Y-92973188D01*
X166837020Y-93009498D01*
X166726706Y-93068463D01*
X166630015Y-93147815D01*
X166550663Y-93244506D01*
X166491698Y-93354820D01*
X166455388Y-93474518D01*
X166443128Y-93599000D01*
X163564560Y-93599000D01*
X163288446Y-93322886D01*
X162774979Y-92979799D01*
X162204446Y-92743476D01*
X161774728Y-92658000D01*
X186563000Y-92658000D01*
X186563000Y-118999917D01*
X161987505Y-119178000D01*
X151765000Y-119178000D01*
X151765000Y-113991229D01*
X159425000Y-113991229D01*
X159425000Y-114608771D01*
X159545476Y-115214446D01*
X159781799Y-115784979D01*
X160124886Y-116298446D01*
X160561554Y-116735114D01*
X161075021Y-117078201D01*
X161645554Y-117314524D01*
X162251229Y-117435000D01*
X162868771Y-117435000D01*
X163474446Y-117314524D01*
X164044979Y-117078201D01*
X164425418Y-116824000D01*
X168183928Y-116824000D01*
X168183928Y-117724000D01*
X168196188Y-117848482D01*
X168232498Y-117968180D01*
X168291463Y-118078494D01*
X168370815Y-118175185D01*
X168467506Y-118254537D01*
X168577820Y-118313502D01*
X168697518Y-118349812D01*
X168822000Y-118362072D01*
X170522000Y-118362072D01*
X170646482Y-118349812D01*
X170766180Y-118313502D01*
X170876494Y-118254537D01*
X170973185Y-118175185D01*
X171052537Y-118078494D01*
X171111502Y-117968180D01*
X171131662Y-117901720D01*
X171181498Y-117901720D01*
X171181498Y-117938550D01*
X171193758Y-118063032D01*
X171230068Y-118182730D01*
X171289033Y-118293044D01*
X171368385Y-118389735D01*
X171465076Y-118469087D01*
X171575390Y-118528052D01*
X171695088Y-118564362D01*
X171819570Y-118576622D01*
X173620430Y-118576622D01*
X173744912Y-118564362D01*
X173864610Y-118528052D01*
X173974924Y-118469087D01*
X174071615Y-118389735D01*
X174150967Y-118293044D01*
X174209932Y-118182730D01*
X174246242Y-118063032D01*
X174258502Y-117938550D01*
X174258502Y-116824000D01*
X175295928Y-116824000D01*
X175295928Y-117724000D01*
X175308188Y-117848482D01*
X175344498Y-117968180D01*
X175403463Y-118078494D01*
X175482815Y-118175185D01*
X175579506Y-118254537D01*
X175689820Y-118313502D01*
X175809518Y-118349812D01*
X175934000Y-118362072D01*
X177634000Y-118362072D01*
X177758482Y-118349812D01*
X177878180Y-118313502D01*
X177988494Y-118254537D01*
X178085185Y-118175185D01*
X178164537Y-118078494D01*
X178223502Y-117968180D01*
X178243662Y-117901720D01*
X178293498Y-117901720D01*
X178293498Y-117938550D01*
X178305758Y-118063032D01*
X178342068Y-118182730D01*
X178401033Y-118293044D01*
X178480385Y-118389735D01*
X178577076Y-118469087D01*
X178687390Y-118528052D01*
X178807088Y-118564362D01*
X178931570Y-118576622D01*
X180732430Y-118576622D01*
X180856912Y-118564362D01*
X180976610Y-118528052D01*
X181086924Y-118469087D01*
X181183615Y-118389735D01*
X181262967Y-118293044D01*
X181321932Y-118182730D01*
X181358242Y-118063032D01*
X181370502Y-117938550D01*
X181370502Y-116340890D01*
X181358242Y-116216408D01*
X181321932Y-116096710D01*
X181262967Y-115986396D01*
X181183615Y-115889705D01*
X181086924Y-115810353D01*
X180976610Y-115751388D01*
X180872676Y-115719860D01*
X180976610Y-115688332D01*
X181086924Y-115629367D01*
X181183615Y-115550015D01*
X181262967Y-115453324D01*
X181321932Y-115343010D01*
X181358242Y-115223312D01*
X181370502Y-115098830D01*
X181370502Y-113501170D01*
X181358242Y-113376688D01*
X181321932Y-113256990D01*
X181262967Y-113146676D01*
X181183615Y-113049985D01*
X181086924Y-112970633D01*
X180976610Y-112911668D01*
X180856912Y-112875358D01*
X180732430Y-112863098D01*
X180594000Y-112863098D01*
X180594000Y-109474000D01*
X182237749Y-109474000D01*
X182266684Y-109767777D01*
X182352375Y-110050264D01*
X182491531Y-110310606D01*
X182678803Y-110538797D01*
X182906994Y-110726069D01*
X182940540Y-110744000D01*
X182906994Y-110761931D01*
X182678803Y-110949203D01*
X182491531Y-111177394D01*
X182352375Y-111437736D01*
X182266684Y-111720223D01*
X182237749Y-112014000D01*
X182266684Y-112307777D01*
X182352375Y-112590264D01*
X182491531Y-112850606D01*
X182678803Y-113078797D01*
X182906994Y-113266069D01*
X183167336Y-113405225D01*
X183449823Y-113490916D01*
X183669981Y-113512600D01*
X184122019Y-113512600D01*
X184342177Y-113490916D01*
X184624664Y-113405225D01*
X184885006Y-113266069D01*
X185113197Y-113078797D01*
X185300469Y-112850606D01*
X185439625Y-112590264D01*
X185525316Y-112307777D01*
X185554251Y-112014000D01*
X185525316Y-111720223D01*
X185439625Y-111437736D01*
X185300469Y-111177394D01*
X185113197Y-110949203D01*
X184885006Y-110761931D01*
X184851460Y-110744000D01*
X184885006Y-110726069D01*
X185113197Y-110538797D01*
X185300469Y-110310606D01*
X185439625Y-110050264D01*
X185525316Y-109767777D01*
X185554251Y-109474000D01*
X185525316Y-109180223D01*
X185439625Y-108897736D01*
X185300469Y-108637394D01*
X185113197Y-108409203D01*
X184885006Y-108221931D01*
X184845053Y-108200576D01*
X185047729Y-108052486D01*
X185246733Y-107836035D01*
X185399686Y-107584919D01*
X185500709Y-107308789D01*
X185503358Y-107293026D01*
X185382217Y-107061000D01*
X184023000Y-107061000D01*
X184023000Y-107081000D01*
X183769000Y-107081000D01*
X183769000Y-107061000D01*
X182409783Y-107061000D01*
X182288642Y-107293026D01*
X182291291Y-107308789D01*
X182392314Y-107584919D01*
X182545267Y-107836035D01*
X182744271Y-108052486D01*
X182946947Y-108200576D01*
X182906994Y-108221931D01*
X182678803Y-108409203D01*
X182491531Y-108637394D01*
X182352375Y-108897736D01*
X182266684Y-109180223D01*
X182237749Y-109474000D01*
X180594000Y-109474000D01*
X180594000Y-109032042D01*
X180676095Y-108909178D01*
X180747896Y-108735834D01*
X180784500Y-108551813D01*
X180784500Y-108364187D01*
X180747896Y-108180166D01*
X180676095Y-108006822D01*
X180571855Y-107850816D01*
X180439184Y-107718145D01*
X180283178Y-107613905D01*
X180109834Y-107542104D01*
X179925813Y-107505500D01*
X179738187Y-107505500D01*
X179554166Y-107542104D01*
X179380822Y-107613905D01*
X179224816Y-107718145D01*
X179092145Y-107850816D01*
X178987905Y-108006822D01*
X178916104Y-108180166D01*
X178879500Y-108364187D01*
X178879500Y-108551813D01*
X178916104Y-108735834D01*
X178987905Y-108909178D01*
X179070001Y-109032043D01*
X179070000Y-112863098D01*
X178931570Y-112863098D01*
X178807088Y-112875358D01*
X178687390Y-112911668D01*
X178577076Y-112970633D01*
X178480385Y-113049985D01*
X178401033Y-113146676D01*
X178342068Y-113256990D01*
X178305758Y-113376688D01*
X178293498Y-113501170D01*
X178293498Y-115098830D01*
X178305758Y-115223312D01*
X178342068Y-115343010D01*
X178401033Y-115453324D01*
X178480385Y-115550015D01*
X178577076Y-115629367D01*
X178687390Y-115688332D01*
X178791324Y-115719860D01*
X178687390Y-115751388D01*
X178577076Y-115810353D01*
X178480385Y-115889705D01*
X178401033Y-115986396D01*
X178342068Y-116096710D01*
X178305758Y-116216408D01*
X178293498Y-116340890D01*
X178293498Y-116377720D01*
X178089210Y-116377720D01*
X178085185Y-116372815D01*
X177988494Y-116293463D01*
X177878180Y-116234498D01*
X177758482Y-116198188D01*
X177634000Y-116185928D01*
X175934000Y-116185928D01*
X175809518Y-116198188D01*
X175689820Y-116234498D01*
X175579506Y-116293463D01*
X175482815Y-116372815D01*
X175403463Y-116469506D01*
X175344498Y-116579820D01*
X175308188Y-116699518D01*
X175295928Y-116824000D01*
X174258502Y-116824000D01*
X174258502Y-116340890D01*
X174246242Y-116216408D01*
X174209932Y-116096710D01*
X174150967Y-115986396D01*
X174071615Y-115889705D01*
X173974924Y-115810353D01*
X173864610Y-115751388D01*
X173760676Y-115719860D01*
X173864610Y-115688332D01*
X173974924Y-115629367D01*
X174071615Y-115550015D01*
X174150967Y-115453324D01*
X174209932Y-115343010D01*
X174246242Y-115223312D01*
X174258502Y-115098830D01*
X174258502Y-115064258D01*
X174281423Y-115062000D01*
X174281426Y-115062000D01*
X174393378Y-115050974D01*
X174537015Y-115007402D01*
X174553669Y-114998500D01*
X174591813Y-114998500D01*
X174775834Y-114961896D01*
X174949178Y-114890095D01*
X175105184Y-114785855D01*
X175237855Y-114653184D01*
X175295928Y-114566272D01*
X175295928Y-114824000D01*
X175308188Y-114948482D01*
X175344498Y-115068180D01*
X175403463Y-115178494D01*
X175482815Y-115275185D01*
X175579506Y-115354537D01*
X175689820Y-115413502D01*
X175809518Y-115449812D01*
X175934000Y-115462072D01*
X177634000Y-115462072D01*
X177758482Y-115449812D01*
X177878180Y-115413502D01*
X177988494Y-115354537D01*
X178085185Y-115275185D01*
X178164537Y-115178494D01*
X178223502Y-115068180D01*
X178259812Y-114948482D01*
X178272072Y-114824000D01*
X178272072Y-113924000D01*
X178259812Y-113799518D01*
X178223502Y-113679820D01*
X178164537Y-113569506D01*
X178116327Y-113510762D01*
X178136095Y-113481178D01*
X178207896Y-113307834D01*
X178244500Y-113123813D01*
X178244500Y-112936187D01*
X178207896Y-112752166D01*
X178136095Y-112578822D01*
X178031855Y-112422816D01*
X177899184Y-112290145D01*
X177743178Y-112185905D01*
X177569834Y-112114104D01*
X177385813Y-112077500D01*
X177198187Y-112077500D01*
X177014166Y-112114104D01*
X176840822Y-112185905D01*
X176684816Y-112290145D01*
X176552145Y-112422816D01*
X176447905Y-112578822D01*
X176376104Y-112752166D01*
X176369574Y-112784994D01*
X176228961Y-112925607D01*
X176197460Y-112951459D01*
X176171609Y-112982959D01*
X176094301Y-113077158D01*
X176017647Y-113220567D01*
X175997820Y-113285928D01*
X175934000Y-113285928D01*
X175809518Y-113298188D01*
X175689820Y-113334498D01*
X175579506Y-113393463D01*
X175482815Y-113472815D01*
X175403463Y-113569506D01*
X175362980Y-113645243D01*
X175342095Y-113594822D01*
X175237855Y-113438816D01*
X175105184Y-113306145D01*
X174949178Y-113201905D01*
X174775834Y-113130104D01*
X174591813Y-113093500D01*
X174404187Y-113093500D01*
X174220166Y-113130104D01*
X174156258Y-113156575D01*
X174150967Y-113146676D01*
X174071615Y-113049985D01*
X173974924Y-112970633D01*
X173864610Y-112911668D01*
X173744912Y-112875358D01*
X173620430Y-112863098D01*
X171819570Y-112863098D01*
X171695088Y-112875358D01*
X171575390Y-112911668D01*
X171465076Y-112970633D01*
X171368385Y-113049985D01*
X171289033Y-113146676D01*
X171230068Y-113256990D01*
X171193758Y-113376688D01*
X171181498Y-113501170D01*
X171181498Y-115098830D01*
X171193758Y-115223312D01*
X171230068Y-115343010D01*
X171289033Y-115453324D01*
X171368385Y-115550015D01*
X171465076Y-115629367D01*
X171575390Y-115688332D01*
X171679324Y-115719860D01*
X171575390Y-115751388D01*
X171465076Y-115810353D01*
X171368385Y-115889705D01*
X171289033Y-115986396D01*
X171230068Y-116096710D01*
X171193758Y-116216408D01*
X171181498Y-116340890D01*
X171181498Y-116377720D01*
X170977210Y-116377720D01*
X170973185Y-116372815D01*
X170876494Y-116293463D01*
X170766180Y-116234498D01*
X170646482Y-116198188D01*
X170522000Y-116185928D01*
X168822000Y-116185928D01*
X168697518Y-116198188D01*
X168577820Y-116234498D01*
X168467506Y-116293463D01*
X168370815Y-116372815D01*
X168291463Y-116469506D01*
X168232498Y-116579820D01*
X168196188Y-116699518D01*
X168183928Y-116824000D01*
X164425418Y-116824000D01*
X164558446Y-116735114D01*
X164995114Y-116298446D01*
X165338201Y-115784979D01*
X165574524Y-115214446D01*
X165695000Y-114608771D01*
X165695000Y-114206187D01*
X166433500Y-114206187D01*
X166433500Y-114393813D01*
X166470104Y-114577834D01*
X166541905Y-114751178D01*
X166646145Y-114907184D01*
X166778816Y-115039855D01*
X166934822Y-115144095D01*
X167108166Y-115215896D01*
X167292187Y-115252500D01*
X167479813Y-115252500D01*
X167663834Y-115215896D01*
X167703418Y-115199500D01*
X168308702Y-115199500D01*
X168370815Y-115275185D01*
X168467506Y-115354537D01*
X168577820Y-115413502D01*
X168697518Y-115449812D01*
X168822000Y-115462072D01*
X170522000Y-115462072D01*
X170646482Y-115449812D01*
X170766180Y-115413502D01*
X170876494Y-115354537D01*
X170973185Y-115275185D01*
X171052537Y-115178494D01*
X171111502Y-115068180D01*
X171147812Y-114948482D01*
X171160072Y-114824000D01*
X171160072Y-113924000D01*
X171147812Y-113799518D01*
X171111502Y-113679820D01*
X171052537Y-113569506D01*
X170973185Y-113472815D01*
X170876494Y-113393463D01*
X170766180Y-113334498D01*
X170646482Y-113298188D01*
X170522000Y-113285928D01*
X168822000Y-113285928D01*
X168697518Y-113298188D01*
X168577820Y-113334498D01*
X168467506Y-113393463D01*
X168370815Y-113472815D01*
X168308702Y-113548500D01*
X167975756Y-113548500D01*
X167837178Y-113455905D01*
X167663834Y-113384104D01*
X167479813Y-113347500D01*
X167292187Y-113347500D01*
X167108166Y-113384104D01*
X166934822Y-113455905D01*
X166778816Y-113560145D01*
X166646145Y-113692816D01*
X166541905Y-113848822D01*
X166470104Y-114022166D01*
X166433500Y-114206187D01*
X165695000Y-114206187D01*
X165695000Y-113991229D01*
X165574524Y-113385554D01*
X165338201Y-112815021D01*
X164995114Y-112301554D01*
X164558446Y-111864886D01*
X164044979Y-111521799D01*
X163474446Y-111285476D01*
X162868771Y-111165000D01*
X162251229Y-111165000D01*
X161645554Y-111285476D01*
X161075021Y-111521799D01*
X160561554Y-111864886D01*
X160124886Y-112301554D01*
X159781799Y-112815021D01*
X159545476Y-113385554D01*
X159425000Y-113991229D01*
X151765000Y-113991229D01*
X151765000Y-99060000D01*
X152265749Y-99060000D01*
X152294684Y-99353777D01*
X152380375Y-99636264D01*
X152519531Y-99896606D01*
X152706803Y-100124797D01*
X152934994Y-100312069D01*
X152968540Y-100330000D01*
X152934994Y-100347931D01*
X152706803Y-100535203D01*
X152519531Y-100763394D01*
X152380375Y-101023736D01*
X152294684Y-101306223D01*
X152265749Y-101600000D01*
X152294684Y-101893777D01*
X152380375Y-102176264D01*
X152519531Y-102436606D01*
X152706803Y-102664797D01*
X152934994Y-102852069D01*
X152968540Y-102870000D01*
X152934994Y-102887931D01*
X152706803Y-103075203D01*
X152519531Y-103303394D01*
X152380375Y-103563736D01*
X152294684Y-103846223D01*
X152265749Y-104140000D01*
X152294684Y-104433777D01*
X152380375Y-104716264D01*
X152519531Y-104976606D01*
X152706803Y-105204797D01*
X152934994Y-105392069D01*
X152968540Y-105410000D01*
X152934994Y-105427931D01*
X152706803Y-105615203D01*
X152519531Y-105843394D01*
X152380375Y-106103736D01*
X152294684Y-106386223D01*
X152265749Y-106680000D01*
X152294684Y-106973777D01*
X152380375Y-107256264D01*
X152519531Y-107516606D01*
X152706803Y-107744797D01*
X152934994Y-107932069D01*
X152968540Y-107950000D01*
X152934994Y-107967931D01*
X152706803Y-108155203D01*
X152519531Y-108383394D01*
X152380375Y-108643736D01*
X152294684Y-108926223D01*
X152265749Y-109220000D01*
X152294684Y-109513777D01*
X152380375Y-109796264D01*
X152519531Y-110056606D01*
X152706803Y-110284797D01*
X152714865Y-110291414D01*
X152663820Y-110306898D01*
X152553506Y-110365863D01*
X152456815Y-110445215D01*
X152377463Y-110541906D01*
X152318498Y-110652220D01*
X152282188Y-110771918D01*
X152269928Y-110896400D01*
X152269928Y-112623600D01*
X152282188Y-112748082D01*
X152318498Y-112867780D01*
X152377463Y-112978094D01*
X152456815Y-113074785D01*
X152553506Y-113154137D01*
X152663820Y-113213102D01*
X152783518Y-113249412D01*
X152908000Y-113261672D01*
X154940000Y-113261672D01*
X155064482Y-113249412D01*
X155184180Y-113213102D01*
X155294494Y-113154137D01*
X155391185Y-113074785D01*
X155470537Y-112978094D01*
X155529502Y-112867780D01*
X155565812Y-112748082D01*
X155578072Y-112623600D01*
X155578072Y-110896400D01*
X155565812Y-110771918D01*
X155529502Y-110652220D01*
X155470537Y-110541906D01*
X155391185Y-110445215D01*
X155338528Y-110402000D01*
X168403928Y-110402000D01*
X168403928Y-112102000D01*
X168416188Y-112226482D01*
X168452498Y-112346180D01*
X168511463Y-112456494D01*
X168590815Y-112553185D01*
X168687506Y-112632537D01*
X168797820Y-112691502D01*
X168917518Y-112727812D01*
X169042000Y-112740072D01*
X169942000Y-112740072D01*
X170066482Y-112727812D01*
X170186180Y-112691502D01*
X170296494Y-112632537D01*
X170393185Y-112553185D01*
X170472537Y-112456494D01*
X170531502Y-112346180D01*
X170567812Y-112226482D01*
X170580072Y-112102000D01*
X171303928Y-112102000D01*
X171316188Y-112226482D01*
X171352498Y-112346180D01*
X171411463Y-112456494D01*
X171490815Y-112553185D01*
X171587506Y-112632537D01*
X171697820Y-112691502D01*
X171817518Y-112727812D01*
X171942000Y-112740072D01*
X172106250Y-112737000D01*
X172265000Y-112578250D01*
X172265000Y-111379000D01*
X172519000Y-111379000D01*
X172519000Y-112578250D01*
X172677750Y-112737000D01*
X172842000Y-112740072D01*
X172966482Y-112727812D01*
X173086180Y-112691502D01*
X173196494Y-112632537D01*
X173293185Y-112553185D01*
X173372537Y-112456494D01*
X173431502Y-112346180D01*
X173467812Y-112226482D01*
X173480072Y-112102000D01*
X173477000Y-111537750D01*
X173318250Y-111379000D01*
X172519000Y-111379000D01*
X172265000Y-111379000D01*
X171465750Y-111379000D01*
X171307000Y-111537750D01*
X171303928Y-112102000D01*
X170580072Y-112102000D01*
X170580072Y-111241558D01*
X171304555Y-110517076D01*
X171307000Y-110966250D01*
X171465750Y-111125000D01*
X172265000Y-111125000D01*
X172265000Y-109925750D01*
X172519000Y-109925750D01*
X172519000Y-111125000D01*
X173318250Y-111125000D01*
X173477000Y-110966250D01*
X173480072Y-110402000D01*
X173467812Y-110277518D01*
X173431502Y-110157820D01*
X173372537Y-110047506D01*
X173293185Y-109950815D01*
X173196494Y-109871463D01*
X173086180Y-109812498D01*
X172966482Y-109776188D01*
X172842000Y-109763928D01*
X172677750Y-109767000D01*
X172519000Y-109925750D01*
X172265000Y-109925750D01*
X172106250Y-109767000D01*
X172055578Y-109766052D01*
X172378559Y-109443072D01*
X172839000Y-109443072D01*
X172963482Y-109430812D01*
X173083180Y-109394502D01*
X173193494Y-109335537D01*
X173290185Y-109256185D01*
X173369537Y-109159494D01*
X173428502Y-109049180D01*
X173464812Y-108929482D01*
X173477072Y-108805000D01*
X173477072Y-108455000D01*
X173464812Y-108330518D01*
X173457071Y-108305000D01*
X173464812Y-108279482D01*
X173468771Y-108239288D01*
X173538822Y-108286095D01*
X173712166Y-108357896D01*
X173896187Y-108394500D01*
X174083813Y-108394500D01*
X174267834Y-108357896D01*
X174441178Y-108286095D01*
X174593223Y-108184501D01*
X174728166Y-108240396D01*
X174873094Y-108269224D01*
X175768001Y-109164132D01*
X175768000Y-109915958D01*
X175685905Y-110038822D01*
X175614104Y-110212166D01*
X175577500Y-110396187D01*
X175577500Y-110583813D01*
X175614104Y-110767834D01*
X175685905Y-110941178D01*
X175790145Y-111097184D01*
X175922816Y-111229855D01*
X176078822Y-111334095D01*
X176252166Y-111405896D01*
X176436187Y-111442500D01*
X176623813Y-111442500D01*
X176807834Y-111405896D01*
X176981178Y-111334095D01*
X177137184Y-111229855D01*
X177269855Y-111097184D01*
X177374095Y-110941178D01*
X177445896Y-110767834D01*
X177482500Y-110583813D01*
X177482500Y-110396187D01*
X177445896Y-110212166D01*
X177374095Y-110038822D01*
X177292000Y-109915958D01*
X177292000Y-108885922D01*
X177295686Y-108848499D01*
X177290104Y-108791825D01*
X177280974Y-108699122D01*
X177237402Y-108555485D01*
X177166645Y-108423108D01*
X177071422Y-108307078D01*
X177042352Y-108283221D01*
X176257572Y-107498441D01*
X176375184Y-107419855D01*
X176507855Y-107287184D01*
X176612095Y-107131178D01*
X176683896Y-106957834D01*
X176720500Y-106773813D01*
X176720500Y-106586187D01*
X176683896Y-106402166D01*
X176612095Y-106228822D01*
X176507855Y-106072816D01*
X176375184Y-105940145D01*
X176219178Y-105835905D01*
X176045834Y-105764104D01*
X175861813Y-105727500D01*
X175674187Y-105727500D01*
X175490166Y-105764104D01*
X175429062Y-105789414D01*
X175413896Y-105713169D01*
X175342095Y-105539825D01*
X175237855Y-105383819D01*
X175105184Y-105251148D01*
X174949178Y-105146908D01*
X174942500Y-105144142D01*
X174942500Y-105062187D01*
X174905896Y-104878166D01*
X174834095Y-104704822D01*
X174729855Y-104548816D01*
X174597184Y-104416145D01*
X174441178Y-104311905D01*
X174267834Y-104240104D01*
X174083813Y-104203500D01*
X173896187Y-104203500D01*
X173712166Y-104240104D01*
X173538822Y-104311905D01*
X173447464Y-104372949D01*
X173424715Y-104301873D01*
X173364078Y-104192469D01*
X173283263Y-104096997D01*
X173185375Y-104019126D01*
X173074175Y-103961849D01*
X172953939Y-103927366D01*
X172829285Y-103917002D01*
X172399750Y-103920000D01*
X172241000Y-104078750D01*
X172241000Y-104566928D01*
X171987000Y-104566928D01*
X171987000Y-104078750D01*
X171828250Y-103920000D01*
X171398715Y-103917002D01*
X171274061Y-103927366D01*
X171153825Y-103961849D01*
X171042625Y-104019126D01*
X170944737Y-104096997D01*
X170863922Y-104192469D01*
X170803285Y-104301873D01*
X170765156Y-104421004D01*
X170754000Y-104523250D01*
X170912750Y-104682000D01*
X171025322Y-104682000D01*
X170937815Y-104753815D01*
X170917967Y-104778000D01*
X170912750Y-104778000D01*
X170754000Y-104936750D01*
X170765156Y-105038996D01*
X170770612Y-105056044D01*
X170763188Y-105080518D01*
X170750928Y-105205000D01*
X170750928Y-105555000D01*
X170763188Y-105679482D01*
X170770929Y-105705000D01*
X170763188Y-105730518D01*
X170750928Y-105855000D01*
X170750928Y-106205000D01*
X170763188Y-106329482D01*
X170770929Y-106355000D01*
X170763188Y-106380518D01*
X170750928Y-106505000D01*
X170750928Y-106855000D01*
X170763188Y-106979482D01*
X170770929Y-107005000D01*
X170763188Y-107030518D01*
X170750928Y-107155000D01*
X170750928Y-107505000D01*
X170763188Y-107629482D01*
X170770929Y-107655000D01*
X170763188Y-107680518D01*
X170750928Y-107805000D01*
X170750928Y-108155000D01*
X170763188Y-108279482D01*
X170770929Y-108305000D01*
X170763188Y-108330518D01*
X170750928Y-108455000D01*
X170750928Y-108805000D01*
X170760830Y-108905539D01*
X169902442Y-109763928D01*
X169042000Y-109763928D01*
X168917518Y-109776188D01*
X168797820Y-109812498D01*
X168687506Y-109871463D01*
X168590815Y-109950815D01*
X168511463Y-110047506D01*
X168452498Y-110157820D01*
X168416188Y-110277518D01*
X168403928Y-110402000D01*
X155338528Y-110402000D01*
X155294494Y-110365863D01*
X155184180Y-110306898D01*
X155133135Y-110291414D01*
X155141197Y-110284797D01*
X155328469Y-110056606D01*
X155467625Y-109796264D01*
X155553316Y-109513777D01*
X155556777Y-109478638D01*
X159254187Y-108092000D01*
X163610961Y-108092000D01*
X163598145Y-108104816D01*
X163493905Y-108260822D01*
X163422104Y-108434166D01*
X163385500Y-108618187D01*
X163385500Y-108805813D01*
X163422104Y-108989834D01*
X163493905Y-109163178D01*
X163598145Y-109319184D01*
X163730816Y-109451855D01*
X163886822Y-109556095D01*
X164060166Y-109627896D01*
X164244187Y-109664500D01*
X164431813Y-109664500D01*
X164615834Y-109627896D01*
X164789178Y-109556095D01*
X164939729Y-109455500D01*
X166254553Y-109455500D01*
X166375826Y-109443556D01*
X166377422Y-109443072D01*
X166939000Y-109443072D01*
X167063482Y-109430812D01*
X167183180Y-109394502D01*
X167293494Y-109335537D01*
X167390185Y-109256185D01*
X167469537Y-109159494D01*
X167528502Y-109049180D01*
X167564812Y-108929482D01*
X167577072Y-108805000D01*
X167577072Y-108455000D01*
X167564812Y-108330518D01*
X167557071Y-108305000D01*
X167564812Y-108279482D01*
X167577072Y-108155000D01*
X167577072Y-107805000D01*
X167564812Y-107680518D01*
X167557071Y-107655000D01*
X167564812Y-107629482D01*
X167577072Y-107505000D01*
X167577072Y-107155000D01*
X167564812Y-107030518D01*
X167557071Y-107005000D01*
X167564812Y-106979482D01*
X167577072Y-106855000D01*
X167577072Y-106505000D01*
X167564812Y-106380518D01*
X167557071Y-106355000D01*
X167564812Y-106329482D01*
X167577072Y-106205000D01*
X167577072Y-105855000D01*
X167564812Y-105730518D01*
X167557071Y-105705000D01*
X167564812Y-105679482D01*
X167577072Y-105555000D01*
X167577072Y-105514664D01*
X167637434Y-105496353D01*
X167780842Y-105419699D01*
X167906541Y-105316541D01*
X167932398Y-105285034D01*
X169465046Y-103752388D01*
X169496541Y-103726541D01*
X169522389Y-103695045D01*
X169522392Y-103695042D01*
X169599699Y-103600843D01*
X169676353Y-103457434D01*
X169684810Y-103429556D01*
X169723556Y-103301826D01*
X169735500Y-103180553D01*
X169735500Y-103180551D01*
X169739494Y-103140000D01*
X169735500Y-103099450D01*
X169735500Y-102785311D01*
X169772494Y-102765537D01*
X169869185Y-102686185D01*
X169948537Y-102589494D01*
X170007502Y-102479180D01*
X170043812Y-102359482D01*
X170053000Y-102266192D01*
X170062188Y-102359482D01*
X170098498Y-102479180D01*
X170157463Y-102589494D01*
X170236815Y-102686185D01*
X170333506Y-102765537D01*
X170443820Y-102824502D01*
X170563518Y-102860812D01*
X170688000Y-102873072D01*
X170910250Y-102870000D01*
X171069000Y-102711250D01*
X171069000Y-101346000D01*
X171323000Y-101346000D01*
X171323000Y-102711250D01*
X171481750Y-102870000D01*
X171704000Y-102873072D01*
X171828482Y-102860812D01*
X171948180Y-102824502D01*
X172058494Y-102765537D01*
X172155185Y-102686185D01*
X172234537Y-102589494D01*
X172293502Y-102479180D01*
X172329812Y-102359482D01*
X172342072Y-102235000D01*
X172340095Y-101765000D01*
X173256928Y-101765000D01*
X173269188Y-101889482D01*
X173305498Y-102009180D01*
X173364463Y-102119494D01*
X173443815Y-102216185D01*
X173540506Y-102295537D01*
X173650820Y-102354502D01*
X173770518Y-102390812D01*
X173895000Y-102403072D01*
X174109250Y-102400000D01*
X174268000Y-102241250D01*
X174268000Y-101092000D01*
X174522000Y-101092000D01*
X174522000Y-102241250D01*
X174680750Y-102400000D01*
X174895000Y-102403072D01*
X175019482Y-102390812D01*
X175139180Y-102354502D01*
X175249494Y-102295537D01*
X175346185Y-102216185D01*
X175425537Y-102119494D01*
X175484502Y-102009180D01*
X175520812Y-101889482D01*
X175533072Y-101765000D01*
X175530000Y-101250750D01*
X175371250Y-101092000D01*
X174522000Y-101092000D01*
X174268000Y-101092000D01*
X173418750Y-101092000D01*
X173260000Y-101250750D01*
X173256928Y-101765000D01*
X172340095Y-101765000D01*
X172339000Y-101504750D01*
X172180250Y-101346000D01*
X171323000Y-101346000D01*
X171069000Y-101346000D01*
X171049000Y-101346000D01*
X171049000Y-101092000D01*
X171069000Y-101092000D01*
X171069000Y-99726750D01*
X171323000Y-99726750D01*
X171323000Y-101092000D01*
X172180250Y-101092000D01*
X172339000Y-100933250D01*
X172342072Y-100203000D01*
X172338330Y-100165000D01*
X173256928Y-100165000D01*
X173260000Y-100679250D01*
X173418750Y-100838000D01*
X174268000Y-100838000D01*
X174268000Y-99688750D01*
X174522000Y-99688750D01*
X174522000Y-100838000D01*
X175371250Y-100838000D01*
X175530000Y-100679250D01*
X175533072Y-100165000D01*
X176256928Y-100165000D01*
X176256928Y-101765000D01*
X176269188Y-101889482D01*
X176305498Y-102009180D01*
X176364463Y-102119494D01*
X176443815Y-102216185D01*
X176540506Y-102295537D01*
X176650820Y-102354502D01*
X176770518Y-102390812D01*
X176895000Y-102403072D01*
X177895000Y-102403072D01*
X178019482Y-102390812D01*
X178139180Y-102354502D01*
X178249494Y-102295537D01*
X178346185Y-102216185D01*
X178425537Y-102119494D01*
X178484502Y-102009180D01*
X178520812Y-101889482D01*
X178533072Y-101765000D01*
X178533072Y-101600000D01*
X182114314Y-101600000D01*
X182129026Y-101749378D01*
X182172598Y-101893015D01*
X182243355Y-102025392D01*
X182256168Y-102041004D01*
X182266684Y-102147777D01*
X182352375Y-102430264D01*
X182491531Y-102690606D01*
X182678803Y-102918797D01*
X182906994Y-103106069D01*
X182940540Y-103124000D01*
X182906994Y-103141931D01*
X182678803Y-103329203D01*
X182491531Y-103557394D01*
X182352375Y-103817736D01*
X182266684Y-104100223D01*
X182237749Y-104394000D01*
X182266684Y-104687777D01*
X182352375Y-104970264D01*
X182491531Y-105230606D01*
X182678803Y-105458797D01*
X182906994Y-105646069D01*
X182946947Y-105667424D01*
X182744271Y-105815514D01*
X182545267Y-106031965D01*
X182392314Y-106283081D01*
X182291291Y-106559211D01*
X182288642Y-106574974D01*
X182409783Y-106807000D01*
X183769000Y-106807000D01*
X183769000Y-106787000D01*
X184023000Y-106787000D01*
X184023000Y-106807000D01*
X185382217Y-106807000D01*
X185503358Y-106574974D01*
X185500709Y-106559211D01*
X185399686Y-106283081D01*
X185246733Y-106031965D01*
X185047729Y-105815514D01*
X184845053Y-105667424D01*
X184885006Y-105646069D01*
X185113197Y-105458797D01*
X185300469Y-105230606D01*
X185439625Y-104970264D01*
X185525316Y-104687777D01*
X185554251Y-104394000D01*
X185525316Y-104100223D01*
X185439625Y-103817736D01*
X185300469Y-103557394D01*
X185113197Y-103329203D01*
X184885006Y-103141931D01*
X184851460Y-103124000D01*
X184885006Y-103106069D01*
X185113197Y-102918797D01*
X185300469Y-102690606D01*
X185439625Y-102430264D01*
X185525316Y-102147777D01*
X185554251Y-101854000D01*
X185525316Y-101560223D01*
X185439625Y-101277736D01*
X185300469Y-101017394D01*
X185113197Y-100789203D01*
X185105135Y-100782586D01*
X185156180Y-100767102D01*
X185266494Y-100708137D01*
X185363185Y-100628785D01*
X185442537Y-100532094D01*
X185501502Y-100421780D01*
X185537812Y-100302082D01*
X185550072Y-100177600D01*
X185550072Y-98450400D01*
X185537812Y-98325918D01*
X185501502Y-98206220D01*
X185442537Y-98095906D01*
X185363185Y-97999215D01*
X185266494Y-97919863D01*
X185156180Y-97860898D01*
X185036482Y-97824588D01*
X184912000Y-97812328D01*
X182880000Y-97812328D01*
X182755518Y-97824588D01*
X182635820Y-97860898D01*
X182525506Y-97919863D01*
X182428815Y-97999215D01*
X182349463Y-98095906D01*
X182290498Y-98206220D01*
X182254188Y-98325918D01*
X182241928Y-98450400D01*
X182241928Y-100177600D01*
X182254188Y-100302082D01*
X182290498Y-100421780D01*
X182349463Y-100532094D01*
X182428815Y-100628785D01*
X182525506Y-100708137D01*
X182635820Y-100767102D01*
X182686865Y-100782586D01*
X182678803Y-100789203D01*
X182596257Y-100889785D01*
X182586985Y-100892598D01*
X182454608Y-100963355D01*
X182338578Y-101058578D01*
X182243355Y-101174608D01*
X182172598Y-101306985D01*
X182129026Y-101450622D01*
X182114314Y-101600000D01*
X178533072Y-101600000D01*
X178533072Y-100737414D01*
X178535573Y-100736822D01*
X178538166Y-100737896D01*
X178722187Y-100774500D01*
X178909813Y-100774500D01*
X179093834Y-100737896D01*
X179267178Y-100666095D01*
X179423184Y-100561855D01*
X179555855Y-100429184D01*
X179660095Y-100273178D01*
X179731896Y-100099834D01*
X179768500Y-99915813D01*
X179768500Y-99728187D01*
X179731896Y-99544166D01*
X179660095Y-99370822D01*
X179555855Y-99214816D01*
X179423184Y-99082145D01*
X179267178Y-98977905D01*
X179093834Y-98906104D01*
X178909813Y-98869500D01*
X178722187Y-98869500D01*
X178538166Y-98906104D01*
X178364822Y-98977905D01*
X178208816Y-99082145D01*
X178162440Y-99128521D01*
X177312504Y-99329945D01*
X177251197Y-99341535D01*
X177195818Y-99363860D01*
X177139367Y-99383251D01*
X177120564Y-99394198D01*
X177100382Y-99402334D01*
X177050431Y-99435028D01*
X176998838Y-99465065D01*
X176982531Y-99479471D01*
X176964325Y-99491387D01*
X176928102Y-99526928D01*
X176895000Y-99526928D01*
X176770518Y-99539188D01*
X176650820Y-99575498D01*
X176540506Y-99634463D01*
X176443815Y-99713815D01*
X176364463Y-99810506D01*
X176305498Y-99920820D01*
X176269188Y-100040518D01*
X176256928Y-100165000D01*
X175533072Y-100165000D01*
X175520812Y-100040518D01*
X175484502Y-99920820D01*
X175425537Y-99810506D01*
X175346185Y-99713815D01*
X175249494Y-99634463D01*
X175139180Y-99575498D01*
X175019482Y-99539188D01*
X174895000Y-99526928D01*
X174680750Y-99530000D01*
X174522000Y-99688750D01*
X174268000Y-99688750D01*
X174109250Y-99530000D01*
X173895000Y-99526928D01*
X173770518Y-99539188D01*
X173650820Y-99575498D01*
X173540506Y-99634463D01*
X173443815Y-99713815D01*
X173364463Y-99810506D01*
X173305498Y-99920820D01*
X173269188Y-100040518D01*
X173256928Y-100165000D01*
X172338330Y-100165000D01*
X172329812Y-100078518D01*
X172293502Y-99958820D01*
X172234537Y-99848506D01*
X172155185Y-99751815D01*
X172058494Y-99672463D01*
X171948180Y-99613498D01*
X171828482Y-99577188D01*
X171704000Y-99564928D01*
X171481750Y-99568000D01*
X171323000Y-99726750D01*
X171069000Y-99726750D01*
X170910250Y-99568000D01*
X170688000Y-99564928D01*
X170563518Y-99577188D01*
X170443820Y-99613498D01*
X170333506Y-99672463D01*
X170236815Y-99751815D01*
X170157463Y-99848506D01*
X170098498Y-99958820D01*
X170062188Y-100078518D01*
X170053000Y-100171808D01*
X170043812Y-100078518D01*
X170007502Y-99958820D01*
X169948537Y-99848506D01*
X169869185Y-99751815D01*
X169772494Y-99672463D01*
X169662180Y-99613498D01*
X169542482Y-99577188D01*
X169418000Y-99564928D01*
X168402000Y-99564928D01*
X168277518Y-99577188D01*
X168157820Y-99613498D01*
X168047506Y-99672463D01*
X167950815Y-99751815D01*
X167871463Y-99848506D01*
X167812498Y-99958820D01*
X167776188Y-100078518D01*
X167767000Y-100171808D01*
X167757812Y-100078518D01*
X167721502Y-99958820D01*
X167662537Y-99848506D01*
X167583185Y-99751815D01*
X167486494Y-99672463D01*
X167449500Y-99652689D01*
X167449500Y-98636861D01*
X167456178Y-98634095D01*
X167612184Y-98529855D01*
X167744855Y-98397184D01*
X167849095Y-98241178D01*
X167920896Y-98067834D01*
X167957500Y-97883813D01*
X167957500Y-97696187D01*
X167920896Y-97512166D01*
X167849095Y-97338822D01*
X167744855Y-97182816D01*
X167612184Y-97050145D01*
X167456178Y-96945905D01*
X167282834Y-96874104D01*
X167098813Y-96837500D01*
X166911187Y-96837500D01*
X166727166Y-96874104D01*
X166553822Y-96945905D01*
X166397816Y-97050145D01*
X166265145Y-97182816D01*
X166160905Y-97338822D01*
X166089104Y-97512166D01*
X166082574Y-97544994D01*
X166068961Y-97558607D01*
X166037460Y-97584459D01*
X166011609Y-97615959D01*
X165934301Y-97710158D01*
X165857647Y-97853567D01*
X165810445Y-98009174D01*
X165794506Y-98171000D01*
X165798501Y-98211560D01*
X165798501Y-99652689D01*
X165761506Y-99672463D01*
X165664815Y-99751815D01*
X165585463Y-99848506D01*
X165526498Y-99958820D01*
X165490188Y-100078518D01*
X165477928Y-100203000D01*
X165477928Y-102031934D01*
X165022802Y-102029979D01*
X164926553Y-102020500D01*
X164926550Y-102020500D01*
X164886000Y-102016506D01*
X164845450Y-102020500D01*
X164160035Y-102020500D01*
X164144537Y-101991506D01*
X164065185Y-101894815D01*
X163968494Y-101815463D01*
X163858180Y-101756498D01*
X163738482Y-101720188D01*
X163614000Y-101707928D01*
X162014000Y-101707928D01*
X161889518Y-101720188D01*
X161769820Y-101756498D01*
X161659506Y-101815463D01*
X161562815Y-101894815D01*
X161483463Y-101991506D01*
X161424498Y-102101820D01*
X161388188Y-102221518D01*
X161375928Y-102346000D01*
X161375928Y-103346000D01*
X161388188Y-103470482D01*
X161424498Y-103590180D01*
X161483463Y-103700494D01*
X161562815Y-103797185D01*
X161659506Y-103876537D01*
X161769820Y-103935502D01*
X161889518Y-103971812D01*
X162014000Y-103984072D01*
X163614000Y-103984072D01*
X163738482Y-103971812D01*
X163858180Y-103935502D01*
X163968494Y-103876537D01*
X164065185Y-103797185D01*
X164144537Y-103700494D01*
X164156948Y-103677275D01*
X164551537Y-103678970D01*
X165010124Y-104137557D01*
X164958463Y-104200506D01*
X164899498Y-104310820D01*
X164863188Y-104430518D01*
X164850928Y-104555000D01*
X164850928Y-104618000D01*
X160712030Y-104618000D01*
X155528759Y-99434729D01*
X155553316Y-99353777D01*
X155582251Y-99060000D01*
X155553316Y-98766223D01*
X155467625Y-98483736D01*
X155328469Y-98223394D01*
X155141197Y-97995203D01*
X154913006Y-97807931D01*
X154652664Y-97668775D01*
X154370177Y-97583084D01*
X154150019Y-97561400D01*
X153697981Y-97561400D01*
X153477823Y-97583084D01*
X153195336Y-97668775D01*
X152934994Y-97807931D01*
X152706803Y-97995203D01*
X152519531Y-98223394D01*
X152380375Y-98483736D01*
X152294684Y-98766223D01*
X152265749Y-99060000D01*
X151765000Y-99060000D01*
X151765000Y-92658000D01*
X160805272Y-92658000D01*
X160375554Y-92743476D01*
M02*
