M48
; DRILL file {KiCad (5.1.2-1)-1} date Sunday, 09 June 2019 at 09:00:09
; FORMAT={-:-/ absolute / metric / decimal}
; #@! TF.CreationDate,2019-06-09T09:00:09+02:00
; #@! TF.GenerationSoftware,Kicad,Pcbnew,(5.1.2-1)-1
; #@! TF.FileFunction,Plated,1,2,PTH
FMAT,2
METRIC
T1C0.381
T2C0.400
T3C1.016
T4C3.200
%
G90
G05
T1
X173.99Y-105.156
X173.99Y-107.442
X174.498Y-105.991
X174.498Y-114.046
X175.006Y-107.325
X175.768Y-106.68
X176.53Y-110.49
X179.832Y-108.458
T2
X164.338Y-99.314
X164.338Y-108.712
X167.005Y-97.79
X167.386Y-114.3
X177.292Y-113.03
X177.8Y-99.822
X180.34Y-94.488
T3
X153.924Y-99.06
X153.924Y-101.6
X153.924Y-104.14
X153.924Y-106.68
X153.924Y-109.22
X153.924Y-111.76
X183.896Y-99.314
X183.896Y-101.854
X183.896Y-104.394
X183.896Y-106.934
X183.896Y-109.474
X183.896Y-112.014
T4
X161.29Y-95.758
X162.56Y-114.3
T0
M30
