G04 #@! TF.FileFunction,Legend,Bot*
%FSLAX46Y46*%
G04 Gerber Fmt 4.6, Leading zero omitted, Abs format (unit mm)*
G04 Created by KiCad (PCBNEW 4.0.2-stable) date Sunday, 27 May 2018 'pmt' 21:04:44*
%MOMM*%
G01*
G04 APERTURE LIST*
%ADD10C,0.100000*%
G04 APERTURE END LIST*
D10*
X156356762Y-116553810D02*
X156471048Y-116591905D01*
X156661524Y-116591905D01*
X156737714Y-116553810D01*
X156775810Y-116515714D01*
X156813905Y-116439524D01*
X156813905Y-116363333D01*
X156775810Y-116287143D01*
X156737714Y-116249048D01*
X156661524Y-116210952D01*
X156509143Y-116172857D01*
X156432952Y-116134762D01*
X156394857Y-116096667D01*
X156356762Y-116020476D01*
X156356762Y-115944286D01*
X156394857Y-115868095D01*
X156432952Y-115830000D01*
X156509143Y-115791905D01*
X156699619Y-115791905D01*
X156813905Y-115830000D01*
X157461524Y-116553810D02*
X157385334Y-116591905D01*
X157232953Y-116591905D01*
X157156762Y-116553810D01*
X157118667Y-116477619D01*
X157118667Y-116172857D01*
X157156762Y-116096667D01*
X157232953Y-116058571D01*
X157385334Y-116058571D01*
X157461524Y-116096667D01*
X157499619Y-116172857D01*
X157499619Y-116249048D01*
X157118667Y-116325238D01*
X157842476Y-116591905D02*
X157842476Y-116058571D01*
X157842476Y-116210952D02*
X157880571Y-116134762D01*
X157918667Y-116096667D01*
X157994857Y-116058571D01*
X158071048Y-116058571D01*
X158337714Y-116591905D02*
X158337714Y-116058571D01*
X158337714Y-115791905D02*
X158299619Y-115830000D01*
X158337714Y-115868095D01*
X158375809Y-115830000D01*
X158337714Y-115791905D01*
X158337714Y-115868095D01*
X159061523Y-116591905D02*
X159061523Y-116172857D01*
X159023428Y-116096667D01*
X158947238Y-116058571D01*
X158794857Y-116058571D01*
X158718666Y-116096667D01*
X159061523Y-116553810D02*
X158985333Y-116591905D01*
X158794857Y-116591905D01*
X158718666Y-116553810D01*
X158680571Y-116477619D01*
X158680571Y-116401429D01*
X158718666Y-116325238D01*
X158794857Y-116287143D01*
X158985333Y-116287143D01*
X159061523Y-116249048D01*
X159556762Y-116591905D02*
X159480571Y-116553810D01*
X159442476Y-116477619D01*
X159442476Y-115791905D01*
X160852001Y-116591905D02*
X160471048Y-116591905D01*
X160471048Y-115791905D01*
X161423429Y-116553810D02*
X161347239Y-116591905D01*
X161194858Y-116591905D01*
X161118667Y-116553810D01*
X161080572Y-116477619D01*
X161080572Y-116172857D01*
X161118667Y-116096667D01*
X161194858Y-116058571D01*
X161347239Y-116058571D01*
X161423429Y-116096667D01*
X161461524Y-116172857D01*
X161461524Y-116249048D01*
X161080572Y-116325238D01*
X161728191Y-116058571D02*
X161918667Y-116591905D01*
X162109143Y-116058571D01*
X162718667Y-116553810D02*
X162642477Y-116591905D01*
X162490096Y-116591905D01*
X162413905Y-116553810D01*
X162375810Y-116477619D01*
X162375810Y-116172857D01*
X162413905Y-116096667D01*
X162490096Y-116058571D01*
X162642477Y-116058571D01*
X162718667Y-116096667D01*
X162756762Y-116172857D01*
X162756762Y-116249048D01*
X162375810Y-116325238D01*
X163213905Y-116591905D02*
X163137714Y-116553810D01*
X163099619Y-116477619D01*
X163099619Y-115791905D01*
X164090096Y-116553810D02*
X164204382Y-116591905D01*
X164394858Y-116591905D01*
X164471048Y-116553810D01*
X164509144Y-116515714D01*
X164547239Y-116439524D01*
X164547239Y-116363333D01*
X164509144Y-116287143D01*
X164471048Y-116249048D01*
X164394858Y-116210952D01*
X164242477Y-116172857D01*
X164166286Y-116134762D01*
X164128191Y-116096667D01*
X164090096Y-116020476D01*
X164090096Y-115944286D01*
X164128191Y-115868095D01*
X164166286Y-115830000D01*
X164242477Y-115791905D01*
X164432953Y-115791905D01*
X164547239Y-115830000D01*
X164890096Y-116591905D02*
X164890096Y-115791905D01*
X165232953Y-116591905D02*
X165232953Y-116172857D01*
X165194858Y-116096667D01*
X165118668Y-116058571D01*
X165004382Y-116058571D01*
X164928191Y-116096667D01*
X164890096Y-116134762D01*
X165613906Y-116591905D02*
X165613906Y-116058571D01*
X165613906Y-115791905D02*
X165575811Y-115830000D01*
X165613906Y-115868095D01*
X165652001Y-115830000D01*
X165613906Y-115791905D01*
X165613906Y-115868095D01*
X165880572Y-116058571D02*
X166185334Y-116058571D01*
X165994858Y-116591905D02*
X165994858Y-115906190D01*
X166032953Y-115830000D01*
X166109144Y-115791905D01*
X166185334Y-115791905D01*
X166337715Y-116058571D02*
X166642477Y-116058571D01*
X166452001Y-115791905D02*
X166452001Y-116477619D01*
X166490096Y-116553810D01*
X166566287Y-116591905D01*
X166642477Y-116591905D01*
X167213906Y-116553810D02*
X167137716Y-116591905D01*
X166985335Y-116591905D01*
X166909144Y-116553810D01*
X166871049Y-116477619D01*
X166871049Y-116172857D01*
X166909144Y-116096667D01*
X166985335Y-116058571D01*
X167137716Y-116058571D01*
X167213906Y-116096667D01*
X167252001Y-116172857D01*
X167252001Y-116249048D01*
X166871049Y-116325238D01*
X167594858Y-116591905D02*
X167594858Y-116058571D01*
X167594858Y-116210952D02*
X167632953Y-116134762D01*
X167671049Y-116096667D01*
X167747239Y-116058571D01*
X167823430Y-116058571D01*
X154547237Y-117811905D02*
X154547237Y-117011905D01*
X154813904Y-117583333D01*
X155080571Y-117011905D01*
X155080571Y-117811905D01*
X155804380Y-117811905D02*
X155804380Y-117392857D01*
X155766285Y-117316667D01*
X155690095Y-117278571D01*
X155537714Y-117278571D01*
X155461523Y-117316667D01*
X155804380Y-117773810D02*
X155728190Y-117811905D01*
X155537714Y-117811905D01*
X155461523Y-117773810D01*
X155423428Y-117697619D01*
X155423428Y-117621429D01*
X155461523Y-117545238D01*
X155537714Y-117507143D01*
X155728190Y-117507143D01*
X155804380Y-117469048D01*
X156528190Y-117773810D02*
X156452000Y-117811905D01*
X156299619Y-117811905D01*
X156223428Y-117773810D01*
X156185333Y-117735714D01*
X156147238Y-117659524D01*
X156147238Y-117430952D01*
X156185333Y-117354762D01*
X156223428Y-117316667D01*
X156299619Y-117278571D01*
X156452000Y-117278571D01*
X156528190Y-117316667D01*
X156871047Y-117811905D02*
X156871047Y-117011905D01*
X157213904Y-117811905D02*
X157213904Y-117392857D01*
X157175809Y-117316667D01*
X157099619Y-117278571D01*
X156985333Y-117278571D01*
X156909142Y-117316667D01*
X156871047Y-117354762D01*
X157594857Y-117811905D02*
X157594857Y-117278571D01*
X157594857Y-117011905D02*
X157556762Y-117050000D01*
X157594857Y-117088095D01*
X157632952Y-117050000D01*
X157594857Y-117011905D01*
X157594857Y-117088095D01*
X157975809Y-117278571D02*
X157975809Y-117811905D01*
X157975809Y-117354762D02*
X158013904Y-117316667D01*
X158090095Y-117278571D01*
X158204381Y-117278571D01*
X158280571Y-117316667D01*
X158318666Y-117392857D01*
X158318666Y-117811905D01*
X159042476Y-117811905D02*
X159042476Y-117392857D01*
X159004381Y-117316667D01*
X158928191Y-117278571D01*
X158775810Y-117278571D01*
X158699619Y-117316667D01*
X159042476Y-117773810D02*
X158966286Y-117811905D01*
X158775810Y-117811905D01*
X158699619Y-117773810D01*
X158661524Y-117697619D01*
X158661524Y-117621429D01*
X158699619Y-117545238D01*
X158775810Y-117507143D01*
X158966286Y-117507143D01*
X159042476Y-117469048D01*
X159994858Y-117773810D02*
X160109144Y-117811905D01*
X160299620Y-117811905D01*
X160375810Y-117773810D01*
X160413906Y-117735714D01*
X160452001Y-117659524D01*
X160452001Y-117583333D01*
X160413906Y-117507143D01*
X160375810Y-117469048D01*
X160299620Y-117430952D01*
X160147239Y-117392857D01*
X160071048Y-117354762D01*
X160032953Y-117316667D01*
X159994858Y-117240476D01*
X159994858Y-117164286D01*
X160032953Y-117088095D01*
X160071048Y-117050000D01*
X160147239Y-117011905D01*
X160337715Y-117011905D01*
X160452001Y-117050000D01*
X160794858Y-117278571D02*
X160794858Y-118078571D01*
X160794858Y-117316667D02*
X160871049Y-117278571D01*
X161023430Y-117278571D01*
X161099620Y-117316667D01*
X161137715Y-117354762D01*
X161175811Y-117430952D01*
X161175811Y-117659524D01*
X161137715Y-117735714D01*
X161099620Y-117773810D01*
X161023430Y-117811905D01*
X160871049Y-117811905D01*
X160794858Y-117773810D01*
X161823430Y-117773810D02*
X161747240Y-117811905D01*
X161594859Y-117811905D01*
X161518668Y-117773810D01*
X161480573Y-117697619D01*
X161480573Y-117392857D01*
X161518668Y-117316667D01*
X161594859Y-117278571D01*
X161747240Y-117278571D01*
X161823430Y-117316667D01*
X161861525Y-117392857D01*
X161861525Y-117469048D01*
X161480573Y-117545238D01*
X162547239Y-117773810D02*
X162471049Y-117811905D01*
X162318668Y-117811905D01*
X162242477Y-117773810D01*
X162204382Y-117735714D01*
X162166287Y-117659524D01*
X162166287Y-117430952D01*
X162204382Y-117354762D01*
X162242477Y-117316667D01*
X162318668Y-117278571D01*
X162471049Y-117278571D01*
X162547239Y-117316667D01*
X163232953Y-117278571D02*
X163232953Y-117811905D01*
X162890096Y-117278571D02*
X162890096Y-117697619D01*
X162928191Y-117773810D01*
X163004382Y-117811905D01*
X163118668Y-117811905D01*
X163194858Y-117773810D01*
X163232953Y-117735714D01*
X163728192Y-117811905D02*
X163652001Y-117773810D01*
X163613906Y-117697619D01*
X163613906Y-117011905D01*
X164375811Y-117811905D02*
X164375811Y-117392857D01*
X164337716Y-117316667D01*
X164261526Y-117278571D01*
X164109145Y-117278571D01*
X164032954Y-117316667D01*
X164375811Y-117773810D02*
X164299621Y-117811905D01*
X164109145Y-117811905D01*
X164032954Y-117773810D01*
X163994859Y-117697619D01*
X163994859Y-117621429D01*
X164032954Y-117545238D01*
X164109145Y-117507143D01*
X164299621Y-117507143D01*
X164375811Y-117469048D01*
X164642478Y-117278571D02*
X164947240Y-117278571D01*
X164756764Y-117011905D02*
X164756764Y-117697619D01*
X164794859Y-117773810D01*
X164871050Y-117811905D01*
X164947240Y-117811905D01*
X165213907Y-117811905D02*
X165213907Y-117278571D01*
X165213907Y-117430952D02*
X165252002Y-117354762D01*
X165290098Y-117316667D01*
X165366288Y-117278571D01*
X165442479Y-117278571D01*
X165709145Y-117811905D02*
X165709145Y-117278571D01*
X165709145Y-117011905D02*
X165671050Y-117050000D01*
X165709145Y-117088095D01*
X165747240Y-117050000D01*
X165709145Y-117011905D01*
X165709145Y-117088095D01*
X166013907Y-117811905D02*
X166432954Y-117278571D01*
X166013907Y-117278571D02*
X166432954Y-117811905D01*
X167232954Y-117011905D02*
X167499621Y-117811905D01*
X167766288Y-117011905D01*
X168452002Y-117811905D02*
X167994859Y-117811905D01*
X168223430Y-117811905D02*
X168223430Y-117011905D01*
X168147240Y-117126190D01*
X168071049Y-117202381D01*
X167994859Y-117240476D01*
X168794859Y-117735714D02*
X168832954Y-117773810D01*
X168794859Y-117811905D01*
X168756764Y-117773810D01*
X168794859Y-117735714D01*
X168794859Y-117811905D01*
X169594859Y-117811905D02*
X169137716Y-117811905D01*
X169366287Y-117811905D02*
X169366287Y-117011905D01*
X169290097Y-117126190D01*
X169213906Y-117202381D01*
X169137716Y-117240476D01*
M02*
