G04 #@! TF.FileFunction,Copper,L1,Top,Signal*
%FSLAX46Y46*%
G04 Gerber Fmt 4.6, Leading zero omitted, Abs format (unit mm)*
G04 Created by KiCad (PCBNEW 4.0.2-stable) date Sunday, 27 May 2018 'pmt' 21:04:44*
%MOMM*%
G01*
G04 APERTURE LIST*
%ADD10C,0.100000*%
%ADD11R,0.900000X1.700000*%
%ADD12R,1.600000X1.000000*%
%ADD13R,1.000000X1.600000*%
%ADD14R,3.657600X2.032000*%
%ADD15R,1.016000X2.032000*%
%ADD16R,2.032000X1.727200*%
%ADD17O,2.032000X1.727200*%
%ADD18R,1.800860X1.597660*%
%ADD19R,1.450000X0.350000*%
%ADD20R,1.700000X0.900000*%
%ADD21C,0.635000*%
%ADD22C,0.381000*%
%ADD23C,0.254000*%
G04 APERTURE END LIST*
D10*
D11*
X171704000Y-110744000D03*
X174604000Y-110744000D03*
D12*
X161290000Y-102870000D03*
X161290000Y-99870000D03*
D13*
X174395000Y-100965000D03*
X177395000Y-100965000D03*
D14*
X168910000Y-94615000D03*
D15*
X168910000Y-101219000D03*
X171196000Y-101219000D03*
X166624000Y-101219000D03*
D16*
X153670000Y-111760000D03*
D17*
X153670000Y-109220000D03*
X153670000Y-106680000D03*
X153670000Y-104140000D03*
X153670000Y-101600000D03*
X153670000Y-99060000D03*
D16*
X184150000Y-99060000D03*
D17*
X184150000Y-101600000D03*
X184150000Y-104140000D03*
X184150000Y-106680000D03*
X184150000Y-109220000D03*
X184150000Y-111760000D03*
D11*
X168656000Y-116332000D03*
X165756000Y-116332000D03*
X168656000Y-113284000D03*
X165756000Y-113284000D03*
D18*
X174752000Y-94488000D03*
X174752000Y-97327720D03*
X175260000Y-114300000D03*
X175260000Y-117139720D03*
X179832000Y-114300000D03*
X179832000Y-117139720D03*
D19*
X169135000Y-104095000D03*
X169135000Y-104745000D03*
X169135000Y-105395000D03*
X169135000Y-106045000D03*
X169135000Y-106695000D03*
X169135000Y-107345000D03*
X169135000Y-107995000D03*
X175035000Y-107995000D03*
X175035000Y-107345000D03*
X175035000Y-106695000D03*
X175035000Y-106045000D03*
X175035000Y-105395000D03*
X175035000Y-104745000D03*
X175035000Y-104095000D03*
D20*
X179324000Y-97388000D03*
X179324000Y-94488000D03*
D21*
X181864000Y-94488000D03*
X163068000Y-114300000D03*
X167005000Y-97790000D03*
X179705000Y-100330000D03*
X165100000Y-101600000D03*
X168910000Y-109220000D03*
X181610000Y-104140000D03*
X177165000Y-104140000D03*
X177800000Y-106045000D03*
X177800000Y-108204000D03*
X181864000Y-106680000D03*
X179832000Y-112776000D03*
X170688000Y-113284000D03*
X177292000Y-115824000D03*
D22*
X165055000Y-104095000D02*
X163830000Y-102870000D01*
X163830000Y-102870000D02*
X161290000Y-102870000D01*
X169135000Y-104095000D02*
X165055000Y-104095000D01*
X168910000Y-101219000D02*
X168910000Y-103870000D01*
X168910000Y-103870000D02*
X169135000Y-104095000D01*
X179324000Y-94488000D02*
X181864000Y-94488000D01*
X165756000Y-116332000D02*
X165100000Y-116332000D01*
X165100000Y-116332000D02*
X163068000Y-114300000D01*
X165756000Y-113284000D02*
X164084000Y-113284000D01*
X164084000Y-113284000D02*
X163068000Y-114300000D01*
X166624000Y-101219000D02*
X166624000Y-98171000D01*
X166624000Y-98171000D02*
X167005000Y-97790000D01*
X177395000Y-100965000D02*
X179070000Y-100965000D01*
X179070000Y-100965000D02*
X179705000Y-100330000D01*
X161290000Y-99870000D02*
X163370000Y-99870000D01*
X163370000Y-99870000D02*
X165100000Y-101600000D01*
X166624000Y-101219000D02*
X165481000Y-101219000D01*
X165481000Y-101219000D02*
X165100000Y-101600000D01*
X169135000Y-107995000D02*
X169135000Y-108995000D01*
X169135000Y-108995000D02*
X168910000Y-109220000D01*
X175035000Y-104095000D02*
X177120000Y-104095000D01*
X177120000Y-104095000D02*
X177165000Y-104140000D01*
D23*
X174752000Y-97327720D02*
X179263720Y-97327720D01*
X179263720Y-97327720D02*
X179324000Y-97388000D01*
X159355000Y-104745000D02*
X156210000Y-101600000D01*
X156210000Y-101600000D02*
X153670000Y-101600000D01*
X169135000Y-104745000D02*
X159355000Y-104745000D01*
X159385000Y-106045000D02*
X156210000Y-109220000D01*
X156210000Y-109220000D02*
X153670000Y-109220000D01*
X169135000Y-106045000D02*
X159385000Y-106045000D01*
X157495000Y-105395000D02*
X156210000Y-106680000D01*
X156210000Y-106680000D02*
X153670000Y-106680000D01*
X169135000Y-105395000D02*
X157495000Y-105395000D01*
X164450000Y-106695000D02*
X159385000Y-111760000D01*
X159385000Y-111760000D02*
X153670000Y-111760000D01*
X169135000Y-106695000D02*
X164450000Y-106695000D01*
X175035000Y-107995000D02*
X175035000Y-110313000D01*
X175035000Y-110313000D02*
X174604000Y-110744000D01*
X182372000Y-110134400D02*
X183997600Y-111760000D01*
X183997600Y-111760000D02*
X184150000Y-111760000D01*
X182372000Y-109728000D02*
X182372000Y-110134400D01*
X179339000Y-106695000D02*
X182372000Y-109728000D01*
X175035000Y-106695000D02*
X179339000Y-106695000D01*
X177292000Y-106045000D02*
X177800000Y-106045000D01*
X177800000Y-106045000D02*
X179705000Y-106045000D01*
X175260000Y-114300000D02*
X175260000Y-113247170D01*
X175260000Y-113247170D02*
X177800000Y-110707170D01*
X177800000Y-110707170D02*
X177800000Y-108204000D01*
X175035000Y-106045000D02*
X177292000Y-106045000D01*
X179705000Y-106045000D02*
X182880000Y-109220000D01*
X182880000Y-109220000D02*
X184150000Y-109220000D01*
X181610000Y-106680000D02*
X181864000Y-106680000D01*
X181864000Y-106680000D02*
X184150000Y-106680000D01*
X179832000Y-114300000D02*
X179832000Y-112776000D01*
X181102000Y-106172000D02*
X181610000Y-106680000D01*
X180325000Y-105395000D02*
X181102000Y-106172000D01*
X175035000Y-105395000D02*
X180325000Y-105395000D01*
X182880000Y-101600000D02*
X184150000Y-101600000D01*
X181610000Y-101600000D02*
X182880000Y-101600000D01*
X176053502Y-104784502D02*
X178425498Y-104784502D01*
X178425498Y-104784502D02*
X181610000Y-101600000D01*
X176014000Y-104745000D02*
X176053502Y-104784502D01*
X175035000Y-104745000D02*
X176014000Y-104745000D01*
X170987720Y-117139720D02*
X170180000Y-116332000D01*
X170180000Y-116332000D02*
X168656000Y-116332000D01*
X175260000Y-117139720D02*
X170987720Y-117139720D01*
X168955720Y-116631720D02*
X168656000Y-116332000D01*
X170688000Y-113284000D02*
X168656000Y-113284000D01*
X179832000Y-117139720D02*
X178607720Y-117139720D01*
X178607720Y-117139720D02*
X177292000Y-115824000D01*
G36*
X186563000Y-115565767D02*
X186322184Y-119178000D01*
X152527000Y-119178000D01*
X152527000Y-114488633D01*
X162115335Y-114488633D01*
X162260039Y-114838843D01*
X162527747Y-115107020D01*
X162835288Y-115234722D01*
X164516283Y-116915717D01*
X164658560Y-117010784D01*
X164658560Y-117182000D01*
X164702838Y-117417317D01*
X164841910Y-117633441D01*
X165054110Y-117778431D01*
X165306000Y-117829440D01*
X166206000Y-117829440D01*
X166441317Y-117785162D01*
X166657441Y-117646090D01*
X166802431Y-117433890D01*
X166853440Y-117182000D01*
X166853440Y-115482000D01*
X167558560Y-115482000D01*
X167558560Y-117182000D01*
X167602838Y-117417317D01*
X167741910Y-117633441D01*
X167954110Y-117778431D01*
X168206000Y-117829440D01*
X169106000Y-117829440D01*
X169341317Y-117785162D01*
X169557441Y-117646090D01*
X169702431Y-117433890D01*
X169753440Y-117182000D01*
X169753440Y-117094000D01*
X169864370Y-117094000D01*
X170448905Y-117678536D01*
X170696116Y-117843717D01*
X170987720Y-117901720D01*
X173712130Y-117901720D01*
X173712130Y-117938550D01*
X173756408Y-118173867D01*
X173895480Y-118389991D01*
X174107680Y-118534981D01*
X174359570Y-118585990D01*
X176160430Y-118585990D01*
X176395747Y-118541712D01*
X176611871Y-118402640D01*
X176756861Y-118190440D01*
X176807870Y-117938550D01*
X176807870Y-116654324D01*
X177101705Y-116776335D01*
X177166762Y-116776392D01*
X178068905Y-117678535D01*
X178284130Y-117822344D01*
X178284130Y-117938550D01*
X178328408Y-118173867D01*
X178467480Y-118389991D01*
X178679680Y-118534981D01*
X178931570Y-118585990D01*
X180732430Y-118585990D01*
X180967747Y-118541712D01*
X181183871Y-118402640D01*
X181328861Y-118190440D01*
X181379870Y-117938550D01*
X181379870Y-116340890D01*
X181335592Y-116105573D01*
X181196520Y-115889449D01*
X180984320Y-115744459D01*
X180867634Y-115720830D01*
X180967747Y-115701992D01*
X181183871Y-115562920D01*
X181328861Y-115350720D01*
X181379870Y-115098830D01*
X181379870Y-113501170D01*
X181335592Y-113265853D01*
X181196520Y-113049729D01*
X180984320Y-112904739D01*
X180784424Y-112864259D01*
X180784665Y-112587367D01*
X180639961Y-112237157D01*
X180372253Y-111968980D01*
X180022295Y-111823665D01*
X179643367Y-111823335D01*
X179293157Y-111968039D01*
X179024980Y-112235747D01*
X178879665Y-112585705D01*
X178879423Y-112863542D01*
X178696253Y-112898008D01*
X178480129Y-113037080D01*
X178335139Y-113249280D01*
X178284130Y-113501170D01*
X178284130Y-115098830D01*
X178328408Y-115334147D01*
X178467480Y-115550271D01*
X178679680Y-115695261D01*
X178796366Y-115718890D01*
X178696253Y-115737728D01*
X178480129Y-115876800D01*
X178456708Y-115911078D01*
X178244610Y-115698980D01*
X178244665Y-115635367D01*
X178099961Y-115285157D01*
X177832253Y-115016980D01*
X177482295Y-114871665D01*
X177103367Y-114871335D01*
X176807870Y-114993432D01*
X176807870Y-113501170D01*
X176763592Y-113265853D01*
X176624520Y-113049729D01*
X176571380Y-113013420D01*
X178338815Y-111245986D01*
X178503996Y-110998775D01*
X178504150Y-110998000D01*
X178562000Y-110707170D01*
X178562000Y-108789194D01*
X178607020Y-108744253D01*
X178752335Y-108394295D01*
X178752665Y-108015367D01*
X178607961Y-107665157D01*
X178400168Y-107457000D01*
X179023370Y-107457000D01*
X181610000Y-110043631D01*
X181610000Y-110134400D01*
X181668004Y-110426005D01*
X181787341Y-110604605D01*
X181833185Y-110673215D01*
X182541865Y-111381895D01*
X182466655Y-111760000D01*
X182580729Y-112333489D01*
X182905585Y-112819670D01*
X183391766Y-113144526D01*
X183965255Y-113258600D01*
X184334745Y-113258600D01*
X184908234Y-113144526D01*
X185394415Y-112819670D01*
X185719271Y-112333489D01*
X185833345Y-111760000D01*
X185719271Y-111186511D01*
X185394415Y-110700330D01*
X185079634Y-110490000D01*
X185394415Y-110279670D01*
X185719271Y-109793489D01*
X185833345Y-109220000D01*
X185719271Y-108646511D01*
X185394415Y-108160330D01*
X185079634Y-107950000D01*
X185394415Y-107739670D01*
X185719271Y-107253489D01*
X185833345Y-106680000D01*
X185719271Y-106106511D01*
X185394415Y-105620330D01*
X185084931Y-105413539D01*
X185500732Y-105042036D01*
X185754709Y-104514791D01*
X185757358Y-104499026D01*
X185636217Y-104267000D01*
X184277000Y-104267000D01*
X184277000Y-104287000D01*
X184023000Y-104287000D01*
X184023000Y-104267000D01*
X182663783Y-104267000D01*
X182542642Y-104499026D01*
X182545291Y-104514791D01*
X182799268Y-105042036D01*
X183215069Y-105413539D01*
X182905585Y-105620330D01*
X182706688Y-105918000D01*
X182449194Y-105918000D01*
X182404253Y-105872980D01*
X182054295Y-105727665D01*
X181735017Y-105727387D01*
X180863815Y-104856185D01*
X180616605Y-104691004D01*
X180325000Y-104633000D01*
X179654630Y-104633000D01*
X181925630Y-102362000D01*
X182706688Y-102362000D01*
X182905585Y-102659670D01*
X183215069Y-102866461D01*
X182799268Y-103237964D01*
X182545291Y-103765209D01*
X182542642Y-103780974D01*
X182663783Y-104013000D01*
X184023000Y-104013000D01*
X184023000Y-103993000D01*
X184277000Y-103993000D01*
X184277000Y-104013000D01*
X185636217Y-104013000D01*
X185757358Y-103780974D01*
X185754709Y-103765209D01*
X185500732Y-103237964D01*
X185084931Y-102866461D01*
X185394415Y-102659670D01*
X185719271Y-102173489D01*
X185833345Y-101600000D01*
X185719271Y-101026511D01*
X185394415Y-100540330D01*
X185380087Y-100530757D01*
X185401317Y-100526762D01*
X185617441Y-100387690D01*
X185762431Y-100175490D01*
X185813440Y-99923600D01*
X185813440Y-98196400D01*
X185769162Y-97961083D01*
X185630090Y-97744959D01*
X185417890Y-97599969D01*
X185166000Y-97548960D01*
X183134000Y-97548960D01*
X182898683Y-97593238D01*
X182682559Y-97732310D01*
X182537569Y-97944510D01*
X182486560Y-98196400D01*
X182486560Y-99923600D01*
X182530838Y-100158917D01*
X182669910Y-100375041D01*
X182882110Y-100520031D01*
X182923439Y-100528400D01*
X182905585Y-100540330D01*
X182706688Y-100838000D01*
X181610000Y-100838000D01*
X181318395Y-100896004D01*
X181136654Y-101017440D01*
X181071185Y-101061185D01*
X178109868Y-104022502D01*
X176395000Y-104022502D01*
X176395000Y-103967998D01*
X176275752Y-103967998D01*
X176395000Y-103848750D01*
X176395000Y-103793690D01*
X176298327Y-103560301D01*
X176119698Y-103381673D01*
X175886309Y-103285000D01*
X175320750Y-103285000D01*
X175162000Y-103443750D01*
X175162000Y-103922560D01*
X174908000Y-103922560D01*
X174908000Y-103443750D01*
X174749250Y-103285000D01*
X174183691Y-103285000D01*
X173950302Y-103381673D01*
X173771673Y-103560301D01*
X173675000Y-103793690D01*
X173675000Y-103848750D01*
X173833750Y-104007500D01*
X174011492Y-104007500D01*
X173858559Y-104105910D01*
X173746853Y-104269397D01*
X173675000Y-104341250D01*
X173675000Y-104396310D01*
X173690268Y-104433171D01*
X173662560Y-104570000D01*
X173662560Y-104920000D01*
X173691821Y-105075507D01*
X173662560Y-105220000D01*
X173662560Y-105570000D01*
X173691821Y-105725507D01*
X173662560Y-105870000D01*
X173662560Y-106220000D01*
X173691821Y-106375507D01*
X173662560Y-106520000D01*
X173662560Y-106870000D01*
X173691821Y-107025507D01*
X173662560Y-107170000D01*
X173662560Y-107520000D01*
X173691821Y-107675507D01*
X173662560Y-107820000D01*
X173662560Y-108170000D01*
X173706838Y-108405317D01*
X173845910Y-108621441D01*
X174058110Y-108766431D01*
X174273000Y-108809947D01*
X174273000Y-109246560D01*
X174154000Y-109246560D01*
X173918683Y-109290838D01*
X173702559Y-109429910D01*
X173557569Y-109642110D01*
X173506560Y-109894000D01*
X173506560Y-111594000D01*
X173550838Y-111829317D01*
X173689910Y-112045441D01*
X173902110Y-112190431D01*
X174154000Y-112241440D01*
X175054000Y-112241440D01*
X175219181Y-112210359D01*
X174721185Y-112708355D01*
X174624048Y-112853730D01*
X174359570Y-112853730D01*
X174124253Y-112898008D01*
X173908129Y-113037080D01*
X173763139Y-113249280D01*
X173712130Y-113501170D01*
X173712130Y-115098830D01*
X173756408Y-115334147D01*
X173895480Y-115550271D01*
X174107680Y-115695261D01*
X174224366Y-115718890D01*
X174124253Y-115737728D01*
X173908129Y-115876800D01*
X173763139Y-116089000D01*
X173712130Y-116340890D01*
X173712130Y-116377720D01*
X171303351Y-116377720D01*
X170718815Y-115793185D01*
X170471605Y-115628004D01*
X170180000Y-115570000D01*
X169753440Y-115570000D01*
X169753440Y-115482000D01*
X169709162Y-115246683D01*
X169570090Y-115030559D01*
X169357890Y-114885569D01*
X169106000Y-114834560D01*
X168206000Y-114834560D01*
X167970683Y-114878838D01*
X167754559Y-115017910D01*
X167609569Y-115230110D01*
X167558560Y-115482000D01*
X166853440Y-115482000D01*
X166809162Y-115246683D01*
X166670090Y-115030559D01*
X166457890Y-114885569D01*
X166206000Y-114834560D01*
X165306000Y-114834560D01*
X165070683Y-114878838D01*
X164914666Y-114979232D01*
X164235434Y-114300000D01*
X164425934Y-114109500D01*
X164658560Y-114109500D01*
X164658560Y-114134000D01*
X164702838Y-114369317D01*
X164841910Y-114585441D01*
X165054110Y-114730431D01*
X165306000Y-114781440D01*
X166206000Y-114781440D01*
X166441317Y-114737162D01*
X166657441Y-114598090D01*
X166802431Y-114385890D01*
X166853440Y-114134000D01*
X166853440Y-112434000D01*
X167558560Y-112434000D01*
X167558560Y-114134000D01*
X167602838Y-114369317D01*
X167741910Y-114585441D01*
X167954110Y-114730431D01*
X168206000Y-114781440D01*
X169106000Y-114781440D01*
X169341317Y-114737162D01*
X169557441Y-114598090D01*
X169702431Y-114385890D01*
X169753440Y-114134000D01*
X169753440Y-114046000D01*
X170102806Y-114046000D01*
X170147747Y-114091020D01*
X170497705Y-114236335D01*
X170876633Y-114236665D01*
X171226843Y-114091961D01*
X171495020Y-113824253D01*
X171640335Y-113474295D01*
X171640665Y-113095367D01*
X171495961Y-112745157D01*
X171228253Y-112476980D01*
X170878295Y-112331665D01*
X170499367Y-112331335D01*
X170149157Y-112476039D01*
X170103115Y-112522000D01*
X169753440Y-112522000D01*
X169753440Y-112434000D01*
X169709162Y-112198683D01*
X169570090Y-111982559D01*
X169357890Y-111837569D01*
X169106000Y-111786560D01*
X168206000Y-111786560D01*
X167970683Y-111830838D01*
X167754559Y-111969910D01*
X167609569Y-112182110D01*
X167558560Y-112434000D01*
X166853440Y-112434000D01*
X166809162Y-112198683D01*
X166670090Y-111982559D01*
X166457890Y-111837569D01*
X166206000Y-111786560D01*
X165306000Y-111786560D01*
X165070683Y-111830838D01*
X164854559Y-111969910D01*
X164709569Y-112182110D01*
X164658560Y-112434000D01*
X164658560Y-112458500D01*
X164084005Y-112458500D01*
X164084000Y-112458499D01*
X163768094Y-112521337D01*
X163500283Y-112700283D01*
X162834828Y-113365738D01*
X162529157Y-113492039D01*
X162260980Y-113759747D01*
X162115665Y-114109705D01*
X162115335Y-114488633D01*
X152527000Y-114488633D01*
X152527000Y-113245322D01*
X152654000Y-113271040D01*
X154686000Y-113271040D01*
X154921317Y-113226762D01*
X155137441Y-113087690D01*
X155282431Y-112875490D01*
X155333440Y-112623600D01*
X155333440Y-112522000D01*
X159385000Y-112522000D01*
X159676605Y-112463996D01*
X159923815Y-112298815D01*
X161192880Y-111029750D01*
X170619000Y-111029750D01*
X170619000Y-111720310D01*
X170715673Y-111953699D01*
X170894302Y-112132327D01*
X171127691Y-112229000D01*
X171418250Y-112229000D01*
X171577000Y-112070250D01*
X171577000Y-110871000D01*
X171831000Y-110871000D01*
X171831000Y-112070250D01*
X171989750Y-112229000D01*
X172280309Y-112229000D01*
X172513698Y-112132327D01*
X172692327Y-111953699D01*
X172789000Y-111720310D01*
X172789000Y-111029750D01*
X172630250Y-110871000D01*
X171831000Y-110871000D01*
X171577000Y-110871000D01*
X170777750Y-110871000D01*
X170619000Y-111029750D01*
X161192880Y-111029750D01*
X164765631Y-107457000D01*
X167762560Y-107457000D01*
X167762560Y-107520000D01*
X167791821Y-107675507D01*
X167762560Y-107820000D01*
X167762560Y-108170000D01*
X167806838Y-108405317D01*
X167945910Y-108621441D01*
X168087125Y-108717929D01*
X167957665Y-109029705D01*
X167957335Y-109408633D01*
X168102039Y-109758843D01*
X168369747Y-110027020D01*
X168719705Y-110172335D01*
X169098633Y-110172665D01*
X169448843Y-110027961D01*
X169709569Y-109767690D01*
X170619000Y-109767690D01*
X170619000Y-110458250D01*
X170777750Y-110617000D01*
X171577000Y-110617000D01*
X171577000Y-109417750D01*
X171831000Y-109417750D01*
X171831000Y-110617000D01*
X172630250Y-110617000D01*
X172789000Y-110458250D01*
X172789000Y-109767690D01*
X172692327Y-109534301D01*
X172513698Y-109355673D01*
X172280309Y-109259000D01*
X171989750Y-109259000D01*
X171831000Y-109417750D01*
X171577000Y-109417750D01*
X171418250Y-109259000D01*
X171127691Y-109259000D01*
X170894302Y-109355673D01*
X170715673Y-109534301D01*
X170619000Y-109767690D01*
X169709569Y-109767690D01*
X169717020Y-109760253D01*
X169862335Y-109410295D01*
X169862376Y-109363717D01*
X169897663Y-109310906D01*
X169960500Y-108995000D01*
X169960500Y-108798530D01*
X170095317Y-108773162D01*
X170311441Y-108634090D01*
X170456431Y-108421890D01*
X170507440Y-108170000D01*
X170507440Y-107820000D01*
X170478179Y-107664493D01*
X170507440Y-107520000D01*
X170507440Y-107170000D01*
X170478179Y-107014493D01*
X170507440Y-106870000D01*
X170507440Y-106520000D01*
X170478179Y-106364493D01*
X170507440Y-106220000D01*
X170507440Y-105870000D01*
X170478179Y-105714493D01*
X170507440Y-105570000D01*
X170507440Y-105220000D01*
X170478179Y-105064493D01*
X170507440Y-104920000D01*
X170507440Y-104570000D01*
X170478179Y-104414493D01*
X170507440Y-104270000D01*
X170507440Y-103920000D01*
X170463162Y-103684683D01*
X170324090Y-103468559D01*
X170111890Y-103323569D01*
X169860000Y-103272560D01*
X169735500Y-103272560D01*
X169735500Y-102785279D01*
X169869441Y-102699090D01*
X170014431Y-102486890D01*
X170053000Y-102296431D01*
X170053000Y-102361310D01*
X170149673Y-102594699D01*
X170328302Y-102773327D01*
X170561691Y-102870000D01*
X170910250Y-102870000D01*
X171069000Y-102711250D01*
X171069000Y-101346000D01*
X171323000Y-101346000D01*
X171323000Y-102711250D01*
X171481750Y-102870000D01*
X171830309Y-102870000D01*
X172063698Y-102773327D01*
X172242327Y-102594699D01*
X172339000Y-102361310D01*
X172339000Y-101504750D01*
X172180250Y-101346000D01*
X171323000Y-101346000D01*
X171069000Y-101346000D01*
X171049000Y-101346000D01*
X171049000Y-101250750D01*
X173260000Y-101250750D01*
X173260000Y-101891310D01*
X173356673Y-102124699D01*
X173535302Y-102303327D01*
X173768691Y-102400000D01*
X174109250Y-102400000D01*
X174268000Y-102241250D01*
X174268000Y-101092000D01*
X174522000Y-101092000D01*
X174522000Y-102241250D01*
X174680750Y-102400000D01*
X175021309Y-102400000D01*
X175254698Y-102303327D01*
X175433327Y-102124699D01*
X175530000Y-101891310D01*
X175530000Y-101250750D01*
X175371250Y-101092000D01*
X174522000Y-101092000D01*
X174268000Y-101092000D01*
X173418750Y-101092000D01*
X173260000Y-101250750D01*
X171049000Y-101250750D01*
X171049000Y-101092000D01*
X171069000Y-101092000D01*
X171069000Y-99726750D01*
X171323000Y-99726750D01*
X171323000Y-101092000D01*
X172180250Y-101092000D01*
X172339000Y-100933250D01*
X172339000Y-100076690D01*
X172323260Y-100038690D01*
X173260000Y-100038690D01*
X173260000Y-100679250D01*
X173418750Y-100838000D01*
X174268000Y-100838000D01*
X174268000Y-99688750D01*
X174522000Y-99688750D01*
X174522000Y-100838000D01*
X175371250Y-100838000D01*
X175530000Y-100679250D01*
X175530000Y-100165000D01*
X176247560Y-100165000D01*
X176247560Y-101765000D01*
X176291838Y-102000317D01*
X176430910Y-102216441D01*
X176643110Y-102361431D01*
X176895000Y-102412440D01*
X177895000Y-102412440D01*
X178130317Y-102368162D01*
X178346441Y-102229090D01*
X178491431Y-102016890D01*
X178537276Y-101790500D01*
X179070000Y-101790500D01*
X179385906Y-101727663D01*
X179653717Y-101548717D01*
X179938172Y-101264262D01*
X180243843Y-101137961D01*
X180512020Y-100870253D01*
X180657335Y-100520295D01*
X180657665Y-100141367D01*
X180512961Y-99791157D01*
X180245253Y-99522980D01*
X179895295Y-99377665D01*
X179516367Y-99377335D01*
X179166157Y-99522039D01*
X178897980Y-99789747D01*
X178770278Y-100097289D01*
X178728066Y-100139500D01*
X178537642Y-100139500D01*
X178498162Y-99929683D01*
X178359090Y-99713559D01*
X178146890Y-99568569D01*
X177895000Y-99517560D01*
X176895000Y-99517560D01*
X176659683Y-99561838D01*
X176443559Y-99700910D01*
X176298569Y-99913110D01*
X176247560Y-100165000D01*
X175530000Y-100165000D01*
X175530000Y-100038690D01*
X175433327Y-99805301D01*
X175254698Y-99626673D01*
X175021309Y-99530000D01*
X174680750Y-99530000D01*
X174522000Y-99688750D01*
X174268000Y-99688750D01*
X174109250Y-99530000D01*
X173768691Y-99530000D01*
X173535302Y-99626673D01*
X173356673Y-99805301D01*
X173260000Y-100038690D01*
X172323260Y-100038690D01*
X172242327Y-99843301D01*
X172063698Y-99664673D01*
X171830309Y-99568000D01*
X171481750Y-99568000D01*
X171323000Y-99726750D01*
X171069000Y-99726750D01*
X170910250Y-99568000D01*
X170561691Y-99568000D01*
X170328302Y-99664673D01*
X170149673Y-99843301D01*
X170053000Y-100076690D01*
X170053000Y-100136887D01*
X170021162Y-99967683D01*
X169882090Y-99751559D01*
X169669890Y-99606569D01*
X169418000Y-99555560D01*
X168402000Y-99555560D01*
X168166683Y-99599838D01*
X167950559Y-99738910D01*
X167805569Y-99951110D01*
X167767457Y-100139314D01*
X167735162Y-99967683D01*
X167596090Y-99751559D01*
X167449500Y-99651398D01*
X167449500Y-98636943D01*
X167543843Y-98597961D01*
X167812020Y-98330253D01*
X167957335Y-97980295D01*
X167957665Y-97601367D01*
X167812961Y-97251157D01*
X167545253Y-96982980D01*
X167195295Y-96837665D01*
X166816367Y-96837335D01*
X166466157Y-96982039D01*
X166197980Y-97249747D01*
X166070278Y-97557288D01*
X166040283Y-97587283D01*
X165861337Y-97855094D01*
X165861337Y-97855095D01*
X165798500Y-98171000D01*
X165798500Y-99652721D01*
X165664559Y-99738910D01*
X165519569Y-99951110D01*
X165468560Y-100203000D01*
X165468560Y-100395974D01*
X165165095Y-100456337D01*
X165140323Y-100472889D01*
X163953717Y-99286283D01*
X163685906Y-99107337D01*
X163370000Y-99044500D01*
X162635131Y-99044500D01*
X162554090Y-98918559D01*
X162341890Y-98773569D01*
X162090000Y-98722560D01*
X160490000Y-98722560D01*
X160254683Y-98766838D01*
X160038559Y-98905910D01*
X159893569Y-99118110D01*
X159842560Y-99370000D01*
X159842560Y-100370000D01*
X159886838Y-100605317D01*
X160025910Y-100821441D01*
X160238110Y-100966431D01*
X160490000Y-101017440D01*
X162090000Y-101017440D01*
X162325317Y-100973162D01*
X162541441Y-100834090D01*
X162636135Y-100695500D01*
X163028066Y-100695500D01*
X164165738Y-101833171D01*
X164292039Y-102138843D01*
X164559747Y-102407020D01*
X164909705Y-102552335D01*
X165288633Y-102552665D01*
X165511041Y-102460768D01*
X165512838Y-102470317D01*
X165651910Y-102686441D01*
X165864110Y-102831431D01*
X166116000Y-102882440D01*
X167132000Y-102882440D01*
X167367317Y-102838162D01*
X167583441Y-102699090D01*
X167728431Y-102486890D01*
X167766543Y-102298686D01*
X167798838Y-102470317D01*
X167937910Y-102686441D01*
X168084500Y-102786602D01*
X168084500Y-103269500D01*
X165396933Y-103269500D01*
X164413717Y-102286283D01*
X164145906Y-102107337D01*
X163830000Y-102044500D01*
X162635131Y-102044500D01*
X162554090Y-101918559D01*
X162341890Y-101773569D01*
X162090000Y-101722560D01*
X160490000Y-101722560D01*
X160254683Y-101766838D01*
X160038559Y-101905910D01*
X159893569Y-102118110D01*
X159842560Y-102370000D01*
X159842560Y-103370000D01*
X159886838Y-103605317D01*
X160025910Y-103821441D01*
X160238110Y-103966431D01*
X160319930Y-103983000D01*
X159670631Y-103983000D01*
X156748815Y-101061185D01*
X156683346Y-101017440D01*
X156501605Y-100896004D01*
X156210000Y-100838000D01*
X155113312Y-100838000D01*
X154914415Y-100540330D01*
X154599634Y-100330000D01*
X154914415Y-100119670D01*
X155239271Y-99633489D01*
X155353345Y-99060000D01*
X155239271Y-98486511D01*
X154914415Y-98000330D01*
X154428234Y-97675474D01*
X153854745Y-97561400D01*
X153485255Y-97561400D01*
X152911766Y-97675474D01*
X152527000Y-97932567D01*
X152527000Y-96528890D01*
X173204130Y-96528890D01*
X173204130Y-98126550D01*
X173248408Y-98361867D01*
X173387480Y-98577991D01*
X173599680Y-98722981D01*
X173851570Y-98773990D01*
X175652430Y-98773990D01*
X175887747Y-98729712D01*
X176103871Y-98590640D01*
X176248861Y-98378440D01*
X176299870Y-98126550D01*
X176299870Y-98089720D01*
X177881393Y-98089720D01*
X178009910Y-98289441D01*
X178222110Y-98434431D01*
X178474000Y-98485440D01*
X180174000Y-98485440D01*
X180409317Y-98441162D01*
X180625441Y-98302090D01*
X180770431Y-98089890D01*
X180821440Y-97838000D01*
X180821440Y-96938000D01*
X180777162Y-96702683D01*
X180638090Y-96486559D01*
X180425890Y-96341569D01*
X180174000Y-96290560D01*
X178474000Y-96290560D01*
X178238683Y-96334838D01*
X178022559Y-96473910D01*
X177959828Y-96565720D01*
X176299870Y-96565720D01*
X176299870Y-96528890D01*
X176255592Y-96293573D01*
X176116520Y-96077449D01*
X175904320Y-95932459D01*
X175802741Y-95911889D01*
X176012129Y-95825157D01*
X176190757Y-95646528D01*
X176287430Y-95413139D01*
X176287430Y-94773750D01*
X176128680Y-94615000D01*
X174879000Y-94615000D01*
X174879000Y-94635000D01*
X174625000Y-94635000D01*
X174625000Y-94615000D01*
X173375320Y-94615000D01*
X173216570Y-94773750D01*
X173216570Y-95413139D01*
X173313243Y-95646528D01*
X173491871Y-95825157D01*
X173697681Y-95910406D01*
X173616253Y-95925728D01*
X173400129Y-96064800D01*
X173255139Y-96277000D01*
X173204130Y-96528890D01*
X152527000Y-96528890D01*
X152527000Y-93599000D01*
X166433760Y-93599000D01*
X166433760Y-95631000D01*
X166478038Y-95866317D01*
X166617110Y-96082441D01*
X166829310Y-96227431D01*
X167081200Y-96278440D01*
X170738800Y-96278440D01*
X170974117Y-96234162D01*
X171190241Y-96095090D01*
X171335231Y-95882890D01*
X171386240Y-95631000D01*
X171386240Y-93599000D01*
X171379440Y-93562861D01*
X173216570Y-93562861D01*
X173216570Y-94202250D01*
X173375320Y-94361000D01*
X174625000Y-94361000D01*
X174625000Y-93212920D01*
X174879000Y-93212920D01*
X174879000Y-94361000D01*
X176128680Y-94361000D01*
X176287430Y-94202250D01*
X176287430Y-94038000D01*
X177826560Y-94038000D01*
X177826560Y-94938000D01*
X177870838Y-95173317D01*
X178009910Y-95389441D01*
X178222110Y-95534431D01*
X178474000Y-95585440D01*
X180174000Y-95585440D01*
X180409317Y-95541162D01*
X180625441Y-95402090D01*
X180685972Y-95313500D01*
X181368252Y-95313500D01*
X181673705Y-95440335D01*
X182052633Y-95440665D01*
X182402843Y-95295961D01*
X182671020Y-95028253D01*
X182816335Y-94678295D01*
X182816665Y-94299367D01*
X182671961Y-93949157D01*
X182404253Y-93680980D01*
X182054295Y-93535665D01*
X181675367Y-93535335D01*
X181367605Y-93662500D01*
X180686957Y-93662500D01*
X180638090Y-93586559D01*
X180425890Y-93441569D01*
X180174000Y-93390560D01*
X178474000Y-93390560D01*
X178238683Y-93434838D01*
X178022559Y-93573910D01*
X177877569Y-93786110D01*
X177826560Y-94038000D01*
X176287430Y-94038000D01*
X176287430Y-93562861D01*
X176190757Y-93329472D01*
X176012129Y-93150843D01*
X175778740Y-93054170D01*
X175037750Y-93054170D01*
X174879000Y-93212920D01*
X174625000Y-93212920D01*
X174466250Y-93054170D01*
X173725260Y-93054170D01*
X173491871Y-93150843D01*
X173313243Y-93329472D01*
X173216570Y-93562861D01*
X171379440Y-93562861D01*
X171341962Y-93363683D01*
X171202890Y-93147559D01*
X170990690Y-93002569D01*
X170738800Y-92951560D01*
X167081200Y-92951560D01*
X166845883Y-92995838D01*
X166629759Y-93134910D01*
X166484769Y-93347110D01*
X166433760Y-93599000D01*
X152527000Y-93599000D01*
X152527000Y-92658000D01*
X186563000Y-92658000D01*
X186563000Y-115565767D01*
X186563000Y-115565767D01*
G37*
X186563000Y-115565767D02*
X186322184Y-119178000D01*
X152527000Y-119178000D01*
X152527000Y-114488633D01*
X162115335Y-114488633D01*
X162260039Y-114838843D01*
X162527747Y-115107020D01*
X162835288Y-115234722D01*
X164516283Y-116915717D01*
X164658560Y-117010784D01*
X164658560Y-117182000D01*
X164702838Y-117417317D01*
X164841910Y-117633441D01*
X165054110Y-117778431D01*
X165306000Y-117829440D01*
X166206000Y-117829440D01*
X166441317Y-117785162D01*
X166657441Y-117646090D01*
X166802431Y-117433890D01*
X166853440Y-117182000D01*
X166853440Y-115482000D01*
X167558560Y-115482000D01*
X167558560Y-117182000D01*
X167602838Y-117417317D01*
X167741910Y-117633441D01*
X167954110Y-117778431D01*
X168206000Y-117829440D01*
X169106000Y-117829440D01*
X169341317Y-117785162D01*
X169557441Y-117646090D01*
X169702431Y-117433890D01*
X169753440Y-117182000D01*
X169753440Y-117094000D01*
X169864370Y-117094000D01*
X170448905Y-117678536D01*
X170696116Y-117843717D01*
X170987720Y-117901720D01*
X173712130Y-117901720D01*
X173712130Y-117938550D01*
X173756408Y-118173867D01*
X173895480Y-118389991D01*
X174107680Y-118534981D01*
X174359570Y-118585990D01*
X176160430Y-118585990D01*
X176395747Y-118541712D01*
X176611871Y-118402640D01*
X176756861Y-118190440D01*
X176807870Y-117938550D01*
X176807870Y-116654324D01*
X177101705Y-116776335D01*
X177166762Y-116776392D01*
X178068905Y-117678535D01*
X178284130Y-117822344D01*
X178284130Y-117938550D01*
X178328408Y-118173867D01*
X178467480Y-118389991D01*
X178679680Y-118534981D01*
X178931570Y-118585990D01*
X180732430Y-118585990D01*
X180967747Y-118541712D01*
X181183871Y-118402640D01*
X181328861Y-118190440D01*
X181379870Y-117938550D01*
X181379870Y-116340890D01*
X181335592Y-116105573D01*
X181196520Y-115889449D01*
X180984320Y-115744459D01*
X180867634Y-115720830D01*
X180967747Y-115701992D01*
X181183871Y-115562920D01*
X181328861Y-115350720D01*
X181379870Y-115098830D01*
X181379870Y-113501170D01*
X181335592Y-113265853D01*
X181196520Y-113049729D01*
X180984320Y-112904739D01*
X180784424Y-112864259D01*
X180784665Y-112587367D01*
X180639961Y-112237157D01*
X180372253Y-111968980D01*
X180022295Y-111823665D01*
X179643367Y-111823335D01*
X179293157Y-111968039D01*
X179024980Y-112235747D01*
X178879665Y-112585705D01*
X178879423Y-112863542D01*
X178696253Y-112898008D01*
X178480129Y-113037080D01*
X178335139Y-113249280D01*
X178284130Y-113501170D01*
X178284130Y-115098830D01*
X178328408Y-115334147D01*
X178467480Y-115550271D01*
X178679680Y-115695261D01*
X178796366Y-115718890D01*
X178696253Y-115737728D01*
X178480129Y-115876800D01*
X178456708Y-115911078D01*
X178244610Y-115698980D01*
X178244665Y-115635367D01*
X178099961Y-115285157D01*
X177832253Y-115016980D01*
X177482295Y-114871665D01*
X177103367Y-114871335D01*
X176807870Y-114993432D01*
X176807870Y-113501170D01*
X176763592Y-113265853D01*
X176624520Y-113049729D01*
X176571380Y-113013420D01*
X178338815Y-111245986D01*
X178503996Y-110998775D01*
X178504150Y-110998000D01*
X178562000Y-110707170D01*
X178562000Y-108789194D01*
X178607020Y-108744253D01*
X178752335Y-108394295D01*
X178752665Y-108015367D01*
X178607961Y-107665157D01*
X178400168Y-107457000D01*
X179023370Y-107457000D01*
X181610000Y-110043631D01*
X181610000Y-110134400D01*
X181668004Y-110426005D01*
X181787341Y-110604605D01*
X181833185Y-110673215D01*
X182541865Y-111381895D01*
X182466655Y-111760000D01*
X182580729Y-112333489D01*
X182905585Y-112819670D01*
X183391766Y-113144526D01*
X183965255Y-113258600D01*
X184334745Y-113258600D01*
X184908234Y-113144526D01*
X185394415Y-112819670D01*
X185719271Y-112333489D01*
X185833345Y-111760000D01*
X185719271Y-111186511D01*
X185394415Y-110700330D01*
X185079634Y-110490000D01*
X185394415Y-110279670D01*
X185719271Y-109793489D01*
X185833345Y-109220000D01*
X185719271Y-108646511D01*
X185394415Y-108160330D01*
X185079634Y-107950000D01*
X185394415Y-107739670D01*
X185719271Y-107253489D01*
X185833345Y-106680000D01*
X185719271Y-106106511D01*
X185394415Y-105620330D01*
X185084931Y-105413539D01*
X185500732Y-105042036D01*
X185754709Y-104514791D01*
X185757358Y-104499026D01*
X185636217Y-104267000D01*
X184277000Y-104267000D01*
X184277000Y-104287000D01*
X184023000Y-104287000D01*
X184023000Y-104267000D01*
X182663783Y-104267000D01*
X182542642Y-104499026D01*
X182545291Y-104514791D01*
X182799268Y-105042036D01*
X183215069Y-105413539D01*
X182905585Y-105620330D01*
X182706688Y-105918000D01*
X182449194Y-105918000D01*
X182404253Y-105872980D01*
X182054295Y-105727665D01*
X181735017Y-105727387D01*
X180863815Y-104856185D01*
X180616605Y-104691004D01*
X180325000Y-104633000D01*
X179654630Y-104633000D01*
X181925630Y-102362000D01*
X182706688Y-102362000D01*
X182905585Y-102659670D01*
X183215069Y-102866461D01*
X182799268Y-103237964D01*
X182545291Y-103765209D01*
X182542642Y-103780974D01*
X182663783Y-104013000D01*
X184023000Y-104013000D01*
X184023000Y-103993000D01*
X184277000Y-103993000D01*
X184277000Y-104013000D01*
X185636217Y-104013000D01*
X185757358Y-103780974D01*
X185754709Y-103765209D01*
X185500732Y-103237964D01*
X185084931Y-102866461D01*
X185394415Y-102659670D01*
X185719271Y-102173489D01*
X185833345Y-101600000D01*
X185719271Y-101026511D01*
X185394415Y-100540330D01*
X185380087Y-100530757D01*
X185401317Y-100526762D01*
X185617441Y-100387690D01*
X185762431Y-100175490D01*
X185813440Y-99923600D01*
X185813440Y-98196400D01*
X185769162Y-97961083D01*
X185630090Y-97744959D01*
X185417890Y-97599969D01*
X185166000Y-97548960D01*
X183134000Y-97548960D01*
X182898683Y-97593238D01*
X182682559Y-97732310D01*
X182537569Y-97944510D01*
X182486560Y-98196400D01*
X182486560Y-99923600D01*
X182530838Y-100158917D01*
X182669910Y-100375041D01*
X182882110Y-100520031D01*
X182923439Y-100528400D01*
X182905585Y-100540330D01*
X182706688Y-100838000D01*
X181610000Y-100838000D01*
X181318395Y-100896004D01*
X181136654Y-101017440D01*
X181071185Y-101061185D01*
X178109868Y-104022502D01*
X176395000Y-104022502D01*
X176395000Y-103967998D01*
X176275752Y-103967998D01*
X176395000Y-103848750D01*
X176395000Y-103793690D01*
X176298327Y-103560301D01*
X176119698Y-103381673D01*
X175886309Y-103285000D01*
X175320750Y-103285000D01*
X175162000Y-103443750D01*
X175162000Y-103922560D01*
X174908000Y-103922560D01*
X174908000Y-103443750D01*
X174749250Y-103285000D01*
X174183691Y-103285000D01*
X173950302Y-103381673D01*
X173771673Y-103560301D01*
X173675000Y-103793690D01*
X173675000Y-103848750D01*
X173833750Y-104007500D01*
X174011492Y-104007500D01*
X173858559Y-104105910D01*
X173746853Y-104269397D01*
X173675000Y-104341250D01*
X173675000Y-104396310D01*
X173690268Y-104433171D01*
X173662560Y-104570000D01*
X173662560Y-104920000D01*
X173691821Y-105075507D01*
X173662560Y-105220000D01*
X173662560Y-105570000D01*
X173691821Y-105725507D01*
X173662560Y-105870000D01*
X173662560Y-106220000D01*
X173691821Y-106375507D01*
X173662560Y-106520000D01*
X173662560Y-106870000D01*
X173691821Y-107025507D01*
X173662560Y-107170000D01*
X173662560Y-107520000D01*
X173691821Y-107675507D01*
X173662560Y-107820000D01*
X173662560Y-108170000D01*
X173706838Y-108405317D01*
X173845910Y-108621441D01*
X174058110Y-108766431D01*
X174273000Y-108809947D01*
X174273000Y-109246560D01*
X174154000Y-109246560D01*
X173918683Y-109290838D01*
X173702559Y-109429910D01*
X173557569Y-109642110D01*
X173506560Y-109894000D01*
X173506560Y-111594000D01*
X173550838Y-111829317D01*
X173689910Y-112045441D01*
X173902110Y-112190431D01*
X174154000Y-112241440D01*
X175054000Y-112241440D01*
X175219181Y-112210359D01*
X174721185Y-112708355D01*
X174624048Y-112853730D01*
X174359570Y-112853730D01*
X174124253Y-112898008D01*
X173908129Y-113037080D01*
X173763139Y-113249280D01*
X173712130Y-113501170D01*
X173712130Y-115098830D01*
X173756408Y-115334147D01*
X173895480Y-115550271D01*
X174107680Y-115695261D01*
X174224366Y-115718890D01*
X174124253Y-115737728D01*
X173908129Y-115876800D01*
X173763139Y-116089000D01*
X173712130Y-116340890D01*
X173712130Y-116377720D01*
X171303351Y-116377720D01*
X170718815Y-115793185D01*
X170471605Y-115628004D01*
X170180000Y-115570000D01*
X169753440Y-115570000D01*
X169753440Y-115482000D01*
X169709162Y-115246683D01*
X169570090Y-115030559D01*
X169357890Y-114885569D01*
X169106000Y-114834560D01*
X168206000Y-114834560D01*
X167970683Y-114878838D01*
X167754559Y-115017910D01*
X167609569Y-115230110D01*
X167558560Y-115482000D01*
X166853440Y-115482000D01*
X166809162Y-115246683D01*
X166670090Y-115030559D01*
X166457890Y-114885569D01*
X166206000Y-114834560D01*
X165306000Y-114834560D01*
X165070683Y-114878838D01*
X164914666Y-114979232D01*
X164235434Y-114300000D01*
X164425934Y-114109500D01*
X164658560Y-114109500D01*
X164658560Y-114134000D01*
X164702838Y-114369317D01*
X164841910Y-114585441D01*
X165054110Y-114730431D01*
X165306000Y-114781440D01*
X166206000Y-114781440D01*
X166441317Y-114737162D01*
X166657441Y-114598090D01*
X166802431Y-114385890D01*
X166853440Y-114134000D01*
X166853440Y-112434000D01*
X167558560Y-112434000D01*
X167558560Y-114134000D01*
X167602838Y-114369317D01*
X167741910Y-114585441D01*
X167954110Y-114730431D01*
X168206000Y-114781440D01*
X169106000Y-114781440D01*
X169341317Y-114737162D01*
X169557441Y-114598090D01*
X169702431Y-114385890D01*
X169753440Y-114134000D01*
X169753440Y-114046000D01*
X170102806Y-114046000D01*
X170147747Y-114091020D01*
X170497705Y-114236335D01*
X170876633Y-114236665D01*
X171226843Y-114091961D01*
X171495020Y-113824253D01*
X171640335Y-113474295D01*
X171640665Y-113095367D01*
X171495961Y-112745157D01*
X171228253Y-112476980D01*
X170878295Y-112331665D01*
X170499367Y-112331335D01*
X170149157Y-112476039D01*
X170103115Y-112522000D01*
X169753440Y-112522000D01*
X169753440Y-112434000D01*
X169709162Y-112198683D01*
X169570090Y-111982559D01*
X169357890Y-111837569D01*
X169106000Y-111786560D01*
X168206000Y-111786560D01*
X167970683Y-111830838D01*
X167754559Y-111969910D01*
X167609569Y-112182110D01*
X167558560Y-112434000D01*
X166853440Y-112434000D01*
X166809162Y-112198683D01*
X166670090Y-111982559D01*
X166457890Y-111837569D01*
X166206000Y-111786560D01*
X165306000Y-111786560D01*
X165070683Y-111830838D01*
X164854559Y-111969910D01*
X164709569Y-112182110D01*
X164658560Y-112434000D01*
X164658560Y-112458500D01*
X164084005Y-112458500D01*
X164084000Y-112458499D01*
X163768094Y-112521337D01*
X163500283Y-112700283D01*
X162834828Y-113365738D01*
X162529157Y-113492039D01*
X162260980Y-113759747D01*
X162115665Y-114109705D01*
X162115335Y-114488633D01*
X152527000Y-114488633D01*
X152527000Y-113245322D01*
X152654000Y-113271040D01*
X154686000Y-113271040D01*
X154921317Y-113226762D01*
X155137441Y-113087690D01*
X155282431Y-112875490D01*
X155333440Y-112623600D01*
X155333440Y-112522000D01*
X159385000Y-112522000D01*
X159676605Y-112463996D01*
X159923815Y-112298815D01*
X161192880Y-111029750D01*
X170619000Y-111029750D01*
X170619000Y-111720310D01*
X170715673Y-111953699D01*
X170894302Y-112132327D01*
X171127691Y-112229000D01*
X171418250Y-112229000D01*
X171577000Y-112070250D01*
X171577000Y-110871000D01*
X171831000Y-110871000D01*
X171831000Y-112070250D01*
X171989750Y-112229000D01*
X172280309Y-112229000D01*
X172513698Y-112132327D01*
X172692327Y-111953699D01*
X172789000Y-111720310D01*
X172789000Y-111029750D01*
X172630250Y-110871000D01*
X171831000Y-110871000D01*
X171577000Y-110871000D01*
X170777750Y-110871000D01*
X170619000Y-111029750D01*
X161192880Y-111029750D01*
X164765631Y-107457000D01*
X167762560Y-107457000D01*
X167762560Y-107520000D01*
X167791821Y-107675507D01*
X167762560Y-107820000D01*
X167762560Y-108170000D01*
X167806838Y-108405317D01*
X167945910Y-108621441D01*
X168087125Y-108717929D01*
X167957665Y-109029705D01*
X167957335Y-109408633D01*
X168102039Y-109758843D01*
X168369747Y-110027020D01*
X168719705Y-110172335D01*
X169098633Y-110172665D01*
X169448843Y-110027961D01*
X169709569Y-109767690D01*
X170619000Y-109767690D01*
X170619000Y-110458250D01*
X170777750Y-110617000D01*
X171577000Y-110617000D01*
X171577000Y-109417750D01*
X171831000Y-109417750D01*
X171831000Y-110617000D01*
X172630250Y-110617000D01*
X172789000Y-110458250D01*
X172789000Y-109767690D01*
X172692327Y-109534301D01*
X172513698Y-109355673D01*
X172280309Y-109259000D01*
X171989750Y-109259000D01*
X171831000Y-109417750D01*
X171577000Y-109417750D01*
X171418250Y-109259000D01*
X171127691Y-109259000D01*
X170894302Y-109355673D01*
X170715673Y-109534301D01*
X170619000Y-109767690D01*
X169709569Y-109767690D01*
X169717020Y-109760253D01*
X169862335Y-109410295D01*
X169862376Y-109363717D01*
X169897663Y-109310906D01*
X169960500Y-108995000D01*
X169960500Y-108798530D01*
X170095317Y-108773162D01*
X170311441Y-108634090D01*
X170456431Y-108421890D01*
X170507440Y-108170000D01*
X170507440Y-107820000D01*
X170478179Y-107664493D01*
X170507440Y-107520000D01*
X170507440Y-107170000D01*
X170478179Y-107014493D01*
X170507440Y-106870000D01*
X170507440Y-106520000D01*
X170478179Y-106364493D01*
X170507440Y-106220000D01*
X170507440Y-105870000D01*
X170478179Y-105714493D01*
X170507440Y-105570000D01*
X170507440Y-105220000D01*
X170478179Y-105064493D01*
X170507440Y-104920000D01*
X170507440Y-104570000D01*
X170478179Y-104414493D01*
X170507440Y-104270000D01*
X170507440Y-103920000D01*
X170463162Y-103684683D01*
X170324090Y-103468559D01*
X170111890Y-103323569D01*
X169860000Y-103272560D01*
X169735500Y-103272560D01*
X169735500Y-102785279D01*
X169869441Y-102699090D01*
X170014431Y-102486890D01*
X170053000Y-102296431D01*
X170053000Y-102361310D01*
X170149673Y-102594699D01*
X170328302Y-102773327D01*
X170561691Y-102870000D01*
X170910250Y-102870000D01*
X171069000Y-102711250D01*
X171069000Y-101346000D01*
X171323000Y-101346000D01*
X171323000Y-102711250D01*
X171481750Y-102870000D01*
X171830309Y-102870000D01*
X172063698Y-102773327D01*
X172242327Y-102594699D01*
X172339000Y-102361310D01*
X172339000Y-101504750D01*
X172180250Y-101346000D01*
X171323000Y-101346000D01*
X171069000Y-101346000D01*
X171049000Y-101346000D01*
X171049000Y-101250750D01*
X173260000Y-101250750D01*
X173260000Y-101891310D01*
X173356673Y-102124699D01*
X173535302Y-102303327D01*
X173768691Y-102400000D01*
X174109250Y-102400000D01*
X174268000Y-102241250D01*
X174268000Y-101092000D01*
X174522000Y-101092000D01*
X174522000Y-102241250D01*
X174680750Y-102400000D01*
X175021309Y-102400000D01*
X175254698Y-102303327D01*
X175433327Y-102124699D01*
X175530000Y-101891310D01*
X175530000Y-101250750D01*
X175371250Y-101092000D01*
X174522000Y-101092000D01*
X174268000Y-101092000D01*
X173418750Y-101092000D01*
X173260000Y-101250750D01*
X171049000Y-101250750D01*
X171049000Y-101092000D01*
X171069000Y-101092000D01*
X171069000Y-99726750D01*
X171323000Y-99726750D01*
X171323000Y-101092000D01*
X172180250Y-101092000D01*
X172339000Y-100933250D01*
X172339000Y-100076690D01*
X172323260Y-100038690D01*
X173260000Y-100038690D01*
X173260000Y-100679250D01*
X173418750Y-100838000D01*
X174268000Y-100838000D01*
X174268000Y-99688750D01*
X174522000Y-99688750D01*
X174522000Y-100838000D01*
X175371250Y-100838000D01*
X175530000Y-100679250D01*
X175530000Y-100165000D01*
X176247560Y-100165000D01*
X176247560Y-101765000D01*
X176291838Y-102000317D01*
X176430910Y-102216441D01*
X176643110Y-102361431D01*
X176895000Y-102412440D01*
X177895000Y-102412440D01*
X178130317Y-102368162D01*
X178346441Y-102229090D01*
X178491431Y-102016890D01*
X178537276Y-101790500D01*
X179070000Y-101790500D01*
X179385906Y-101727663D01*
X179653717Y-101548717D01*
X179938172Y-101264262D01*
X180243843Y-101137961D01*
X180512020Y-100870253D01*
X180657335Y-100520295D01*
X180657665Y-100141367D01*
X180512961Y-99791157D01*
X180245253Y-99522980D01*
X179895295Y-99377665D01*
X179516367Y-99377335D01*
X179166157Y-99522039D01*
X178897980Y-99789747D01*
X178770278Y-100097289D01*
X178728066Y-100139500D01*
X178537642Y-100139500D01*
X178498162Y-99929683D01*
X178359090Y-99713559D01*
X178146890Y-99568569D01*
X177895000Y-99517560D01*
X176895000Y-99517560D01*
X176659683Y-99561838D01*
X176443559Y-99700910D01*
X176298569Y-99913110D01*
X176247560Y-100165000D01*
X175530000Y-100165000D01*
X175530000Y-100038690D01*
X175433327Y-99805301D01*
X175254698Y-99626673D01*
X175021309Y-99530000D01*
X174680750Y-99530000D01*
X174522000Y-99688750D01*
X174268000Y-99688750D01*
X174109250Y-99530000D01*
X173768691Y-99530000D01*
X173535302Y-99626673D01*
X173356673Y-99805301D01*
X173260000Y-100038690D01*
X172323260Y-100038690D01*
X172242327Y-99843301D01*
X172063698Y-99664673D01*
X171830309Y-99568000D01*
X171481750Y-99568000D01*
X171323000Y-99726750D01*
X171069000Y-99726750D01*
X170910250Y-99568000D01*
X170561691Y-99568000D01*
X170328302Y-99664673D01*
X170149673Y-99843301D01*
X170053000Y-100076690D01*
X170053000Y-100136887D01*
X170021162Y-99967683D01*
X169882090Y-99751559D01*
X169669890Y-99606569D01*
X169418000Y-99555560D01*
X168402000Y-99555560D01*
X168166683Y-99599838D01*
X167950559Y-99738910D01*
X167805569Y-99951110D01*
X167767457Y-100139314D01*
X167735162Y-99967683D01*
X167596090Y-99751559D01*
X167449500Y-99651398D01*
X167449500Y-98636943D01*
X167543843Y-98597961D01*
X167812020Y-98330253D01*
X167957335Y-97980295D01*
X167957665Y-97601367D01*
X167812961Y-97251157D01*
X167545253Y-96982980D01*
X167195295Y-96837665D01*
X166816367Y-96837335D01*
X166466157Y-96982039D01*
X166197980Y-97249747D01*
X166070278Y-97557288D01*
X166040283Y-97587283D01*
X165861337Y-97855094D01*
X165861337Y-97855095D01*
X165798500Y-98171000D01*
X165798500Y-99652721D01*
X165664559Y-99738910D01*
X165519569Y-99951110D01*
X165468560Y-100203000D01*
X165468560Y-100395974D01*
X165165095Y-100456337D01*
X165140323Y-100472889D01*
X163953717Y-99286283D01*
X163685906Y-99107337D01*
X163370000Y-99044500D01*
X162635131Y-99044500D01*
X162554090Y-98918559D01*
X162341890Y-98773569D01*
X162090000Y-98722560D01*
X160490000Y-98722560D01*
X160254683Y-98766838D01*
X160038559Y-98905910D01*
X159893569Y-99118110D01*
X159842560Y-99370000D01*
X159842560Y-100370000D01*
X159886838Y-100605317D01*
X160025910Y-100821441D01*
X160238110Y-100966431D01*
X160490000Y-101017440D01*
X162090000Y-101017440D01*
X162325317Y-100973162D01*
X162541441Y-100834090D01*
X162636135Y-100695500D01*
X163028066Y-100695500D01*
X164165738Y-101833171D01*
X164292039Y-102138843D01*
X164559747Y-102407020D01*
X164909705Y-102552335D01*
X165288633Y-102552665D01*
X165511041Y-102460768D01*
X165512838Y-102470317D01*
X165651910Y-102686441D01*
X165864110Y-102831431D01*
X166116000Y-102882440D01*
X167132000Y-102882440D01*
X167367317Y-102838162D01*
X167583441Y-102699090D01*
X167728431Y-102486890D01*
X167766543Y-102298686D01*
X167798838Y-102470317D01*
X167937910Y-102686441D01*
X168084500Y-102786602D01*
X168084500Y-103269500D01*
X165396933Y-103269500D01*
X164413717Y-102286283D01*
X164145906Y-102107337D01*
X163830000Y-102044500D01*
X162635131Y-102044500D01*
X162554090Y-101918559D01*
X162341890Y-101773569D01*
X162090000Y-101722560D01*
X160490000Y-101722560D01*
X160254683Y-101766838D01*
X160038559Y-101905910D01*
X159893569Y-102118110D01*
X159842560Y-102370000D01*
X159842560Y-103370000D01*
X159886838Y-103605317D01*
X160025910Y-103821441D01*
X160238110Y-103966431D01*
X160319930Y-103983000D01*
X159670631Y-103983000D01*
X156748815Y-101061185D01*
X156683346Y-101017440D01*
X156501605Y-100896004D01*
X156210000Y-100838000D01*
X155113312Y-100838000D01*
X154914415Y-100540330D01*
X154599634Y-100330000D01*
X154914415Y-100119670D01*
X155239271Y-99633489D01*
X155353345Y-99060000D01*
X155239271Y-98486511D01*
X154914415Y-98000330D01*
X154428234Y-97675474D01*
X153854745Y-97561400D01*
X153485255Y-97561400D01*
X152911766Y-97675474D01*
X152527000Y-97932567D01*
X152527000Y-96528890D01*
X173204130Y-96528890D01*
X173204130Y-98126550D01*
X173248408Y-98361867D01*
X173387480Y-98577991D01*
X173599680Y-98722981D01*
X173851570Y-98773990D01*
X175652430Y-98773990D01*
X175887747Y-98729712D01*
X176103871Y-98590640D01*
X176248861Y-98378440D01*
X176299870Y-98126550D01*
X176299870Y-98089720D01*
X177881393Y-98089720D01*
X178009910Y-98289441D01*
X178222110Y-98434431D01*
X178474000Y-98485440D01*
X180174000Y-98485440D01*
X180409317Y-98441162D01*
X180625441Y-98302090D01*
X180770431Y-98089890D01*
X180821440Y-97838000D01*
X180821440Y-96938000D01*
X180777162Y-96702683D01*
X180638090Y-96486559D01*
X180425890Y-96341569D01*
X180174000Y-96290560D01*
X178474000Y-96290560D01*
X178238683Y-96334838D01*
X178022559Y-96473910D01*
X177959828Y-96565720D01*
X176299870Y-96565720D01*
X176299870Y-96528890D01*
X176255592Y-96293573D01*
X176116520Y-96077449D01*
X175904320Y-95932459D01*
X175802741Y-95911889D01*
X176012129Y-95825157D01*
X176190757Y-95646528D01*
X176287430Y-95413139D01*
X176287430Y-94773750D01*
X176128680Y-94615000D01*
X174879000Y-94615000D01*
X174879000Y-94635000D01*
X174625000Y-94635000D01*
X174625000Y-94615000D01*
X173375320Y-94615000D01*
X173216570Y-94773750D01*
X173216570Y-95413139D01*
X173313243Y-95646528D01*
X173491871Y-95825157D01*
X173697681Y-95910406D01*
X173616253Y-95925728D01*
X173400129Y-96064800D01*
X173255139Y-96277000D01*
X173204130Y-96528890D01*
X152527000Y-96528890D01*
X152527000Y-93599000D01*
X166433760Y-93599000D01*
X166433760Y-95631000D01*
X166478038Y-95866317D01*
X166617110Y-96082441D01*
X166829310Y-96227431D01*
X167081200Y-96278440D01*
X170738800Y-96278440D01*
X170974117Y-96234162D01*
X171190241Y-96095090D01*
X171335231Y-95882890D01*
X171386240Y-95631000D01*
X171386240Y-93599000D01*
X171379440Y-93562861D01*
X173216570Y-93562861D01*
X173216570Y-94202250D01*
X173375320Y-94361000D01*
X174625000Y-94361000D01*
X174625000Y-93212920D01*
X174879000Y-93212920D01*
X174879000Y-94361000D01*
X176128680Y-94361000D01*
X176287430Y-94202250D01*
X176287430Y-94038000D01*
X177826560Y-94038000D01*
X177826560Y-94938000D01*
X177870838Y-95173317D01*
X178009910Y-95389441D01*
X178222110Y-95534431D01*
X178474000Y-95585440D01*
X180174000Y-95585440D01*
X180409317Y-95541162D01*
X180625441Y-95402090D01*
X180685972Y-95313500D01*
X181368252Y-95313500D01*
X181673705Y-95440335D01*
X182052633Y-95440665D01*
X182402843Y-95295961D01*
X182671020Y-95028253D01*
X182816335Y-94678295D01*
X182816665Y-94299367D01*
X182671961Y-93949157D01*
X182404253Y-93680980D01*
X182054295Y-93535665D01*
X181675367Y-93535335D01*
X181367605Y-93662500D01*
X180686957Y-93662500D01*
X180638090Y-93586559D01*
X180425890Y-93441569D01*
X180174000Y-93390560D01*
X178474000Y-93390560D01*
X178238683Y-93434838D01*
X178022559Y-93573910D01*
X177877569Y-93786110D01*
X177826560Y-94038000D01*
X176287430Y-94038000D01*
X176287430Y-93562861D01*
X176190757Y-93329472D01*
X176012129Y-93150843D01*
X175778740Y-93054170D01*
X175037750Y-93054170D01*
X174879000Y-93212920D01*
X174625000Y-93212920D01*
X174466250Y-93054170D01*
X173725260Y-93054170D01*
X173491871Y-93150843D01*
X173313243Y-93329472D01*
X173216570Y-93562861D01*
X171379440Y-93562861D01*
X171341962Y-93363683D01*
X171202890Y-93147559D01*
X170990690Y-93002569D01*
X170738800Y-92951560D01*
X167081200Y-92951560D01*
X166845883Y-92995838D01*
X166629759Y-93134910D01*
X166484769Y-93347110D01*
X166433760Y-93599000D01*
X152527000Y-93599000D01*
X152527000Y-92658000D01*
X186563000Y-92658000D01*
X186563000Y-115565767D01*
M02*
