M48
; DRILL file {KiCad (5.1.2-1)-1} date Monday, 22 July 2019 at 14:19:54
; FORMAT={-:-/ absolute / metric / decimal}
; #@! TF.CreationDate,2019-07-22T14:19:54+02:00
; #@! TF.GenerationSoftware,Kicad,Pcbnew,(5.1.2-1)-1
; #@! TF.FileFunction,Plated,1,2,PTH
FMAT,2
METRIC
T1C0.400
T2C1.016
T3C3.200
%
G90
G05
T1
X148.717Y-62.992
X148.844Y-50.038
X156.972Y-74.422
X157.226Y-56.642
X157.734Y-57.912
X158.242Y-59.182
X159.0Y-60.213
X159.004Y-64.516
X159.512Y-44.196
X159.766Y-52.324
X159.829Y-62.039
X164.338Y-74.422
X164.592Y-64.008
T2
X135.382Y-55.372
X135.382Y-57.912
X135.382Y-60.452
X135.382Y-62.992
X135.382Y-65.532
X135.382Y-68.072
X138.938Y-55.372
X138.938Y-57.912
X138.938Y-60.452
X173.736Y-55.372
X173.736Y-57.912
X173.736Y-60.452
X173.736Y-62.992
X173.736Y-65.532
X173.736Y-68.072
X138.938Y-65.532
X138.938Y-68.072
X170.18Y-55.372
X170.18Y-57.912
X170.18Y-60.452
X170.18Y-62.992
X170.18Y-65.532
X170.18Y-68.072
T3
X171.196Y-46.482
X138.684Y-73.533
X170.942Y-73.66
X138.684Y-46.482
T0
M30
